<svg width="553" height="214" viewBox="0 0 553 214" fill="none" xmlns="http://www.w3.org/2000/svg">
<g clip-path="url(#clip0_193:1917)">
<path d="M125.88 26.2C133.06 26.2 138.88 20.3797 138.88 13.2C138.88 6.02025 133.06 0.199951 125.88 0.199951C118.7 0.199951 112.88 6.02025 112.88 13.2C112.88 20.3797 118.7 26.2 125.88 26.2Z" fill="#FFBC00"/>
<path d="M25.8899 52.99C33.0696 52.99 38.8899 47.1697 38.8899 39.99C38.8899 32.8103 33.0696 26.99 25.8899 26.99C18.7102 26.99 12.8899 32.8103 12.8899 39.99C12.8899 47.1697 18.7102 52.99 25.8899 52.99Z" fill="#FFBC00"/>
<path d="M74.05 33.03C81.2298 33.03 87.05 27.2097 87.05 20.03C87.05 12.8503 81.2298 7.03003 74.05 7.03003C66.8703 7.03003 61.05 12.8503 61.05 20.03C61.05 27.2097 66.8703 33.03 74.05 33.03Z" fill="#FFBC00"/>
<path d="M177.65 33.02C184.83 33.02 190.65 27.1997 190.65 20.02C190.65 12.8403 184.83 7.02002 177.65 7.02002C170.47 7.02002 164.65 12.8403 164.65 20.02C164.65 27.1997 170.47 33.02 177.65 33.02Z" fill="#FFBC00"/>
<path d="M7.72003 171.17L29.96 88.17H10.88C8.22784 88.17 5.68432 89.2236 3.80896 91.099C1.9336 92.9743 0.880005 95.5179 0.880005 98.17V203.17C0.880005 205.822 1.9336 208.366 3.80896 210.241C5.68432 212.116 8.22784 213.17 10.88 213.17H125.88L14.79 183.42C13.5213 183.08 12.3321 182.493 11.2902 181.694C10.2482 180.894 9.37406 179.897 8.71753 178.76C8.061 177.622 7.63496 176.366 7.46381 175.064C7.29265 173.762 7.37975 172.439 7.72003 171.17Z" fill="#88B8F2"/>
<path d="M240.88 88.1899H221.76L244.02 171.19C244.36 172.459 244.447 173.782 244.276 175.084C244.105 176.386 243.679 177.642 243.022 178.779C242.366 179.917 241.492 180.914 240.45 181.714C239.408 182.513 238.218 183.1 236.95 183.44L125.88 213.19H240.88C243.532 213.19 246.076 212.136 247.951 210.261C249.826 208.386 250.88 205.842 250.88 203.19V98.1899C250.88 95.5378 249.826 92.9942 247.951 91.1189C246.076 89.2435 243.532 88.1899 240.88 88.1899Z" fill="#88B8F2"/>
<path d="M146.44 56.98L132.94 43.49C131.065 41.6153 128.522 40.5621 125.87 40.5621C123.218 40.5621 120.675 41.6153 118.8 43.49L105.28 57L125.88 68.87L146.44 56.98Z" fill="#88B8F2"/>
<path d="M65.5499 67.61L47.15 62.68C45.8801 62.3367 44.5549 62.2474 43.2504 62.4171C41.9459 62.5868 40.6877 63.0122 39.5479 63.6689C38.4081 64.3257 37.4091 65.2009 36.6081 66.2444C35.8071 67.2879 35.2198 68.4792 34.8799 69.75L29.9399 88.19H53.65L65.5499 67.61Z" fill="#88B8F2"/>
<path opacity="0.5" d="M22.59 142.07L53.67 88.1899H29.96L7.72003 171.19C7.37974 172.459 7.29264 173.782 7.4638 175.084C7.63496 176.386 8.06099 177.642 8.71752 178.779C9.37406 179.917 10.2482 180.914 11.2902 181.714C12.3321 182.513 13.5213 183.1 14.79 183.44L125.88 213.19L26.27 155.73C25.1311 155.075 24.1324 154.202 23.331 153.161C22.5297 152.12 21.9413 150.931 21.5995 149.662C21.2578 148.394 21.1693 147.07 21.3393 145.768C21.5092 144.465 21.9343 143.208 22.59 142.07V142.07Z" fill="#345FAC"/>
<path d="M22.59 142.07L53.67 88.1899H29.96L7.72003 171.19C7.37974 172.459 7.29264 173.782 7.4638 175.084C7.63496 176.386 8.06099 177.642 8.71752 178.779C9.37406 179.917 10.2482 180.914 11.2902 181.714C12.3321 182.513 13.5213 183.1 14.79 183.44L125.88 213.19L26.27 155.73C25.1311 155.075 24.1324 154.202 23.331 153.161C22.5297 152.12 21.9413 150.931 21.5995 149.662C21.2578 148.394 21.1693 147.07 21.3393 145.768C21.5092 144.465 21.9343 143.208 22.59 142.07V142.07Z" fill="#4484E4"/>
<path d="M105.28 57L88.7201 47.45C87.5822 46.7938 86.3262 46.3683 85.0239 46.1976C83.7215 46.0269 82.3983 46.1145 81.1298 46.4553C79.8613 46.7961 78.6724 47.3834 77.6309 48.1838C76.5895 48.9842 75.7159 49.9819 75.0601 51.12L65.55 67.61L88.55 73.77L105.28 57Z" fill="#88B8F2"/>
<path opacity="0.5" d="M108.22 79.04L125.86 68.87L105.29 57L88.52 73.76L108.22 79.04Z" fill="#345FAC"/>
<path d="M108.22 79.04L125.86 68.87L105.29 57L88.52 73.76L108.22 79.04Z" fill="#4484E4"/>
<path opacity="0.5" d="M74.1001 88.19L88.52 73.76L65.55 67.61L53.6799 88.19H74.1001Z" fill="#345FAC"/>
<path d="M74.1001 88.19L88.52 73.76L65.55 67.61L53.6799 88.19H74.1001Z" fill="#4484E4"/>
<path opacity="0.5" d="M44.5499 117.73L74.0999 88.1899H53.6699L22.5899 142.07C21.9337 143.208 21.5081 144.464 21.3375 145.766C21.1668 147.068 21.2544 148.392 21.5952 149.66C21.936 150.929 22.5234 152.118 23.3237 153.159C24.1241 154.201 25.1218 155.074 26.2599 155.73L125.88 213.19L44.5499 131.87C42.6752 129.995 41.622 127.452 41.622 124.8C41.622 122.148 42.6752 119.605 44.5499 117.73Z" fill="#345FAC"/>
<path opacity="0.5" d="M44.5499 117.73L74.0999 88.1899H53.6699L22.5899 142.07C21.9337 143.208 21.5081 144.464 21.3375 145.766C21.1668 147.068 21.2544 148.392 21.5952 149.66C21.936 150.929 22.5234 152.118 23.3237 153.159C24.1241 154.201 25.1218 155.074 26.2599 155.73L125.88 213.19L44.5499 131.87C42.6752 129.995 41.622 127.452 41.622 124.8C41.622 122.148 42.6752 119.605 44.5499 117.73Z" fill="#345FAC"/>
<path d="M44.5499 117.73L74.0999 88.1899H53.6699L22.5899 142.07C21.9337 143.208 21.5081 144.464 21.3375 145.766C21.1668 147.068 21.2544 148.392 21.5952 149.66C21.936 150.929 22.5234 152.118 23.3237 153.159C24.1241 154.201 25.1218 155.074 26.2599 155.73L125.88 213.19L44.5499 131.87C42.6752 129.995 41.622 127.452 41.622 124.8C41.622 122.148 42.6752 119.605 44.5499 117.73Z" fill="#1C5ED7"/>
<path opacity="0.5" d="M88.52 73.76L74.1001 88.19H92.3899L108.22 79.04L88.52 73.76Z" fill="#345FAC"/>
<path opacity="0.5" d="M88.52 73.76L74.1001 88.19H92.3899L108.22 79.04L88.52 73.76Z" fill="#345FAC"/>
<path d="M88.52 73.76L74.1001 88.19H92.3899L108.22 79.04L88.52 73.76Z" fill="#1C5ED7"/>
<path opacity="0.5" d="M72.0399 99.9299L92.3799 88.1899H74.0999L44.5499 117.73C42.6752 119.605 41.6221 122.148 41.6221 124.8C41.6221 127.452 42.6752 129.995 44.5499 131.87L125.88 213.19L68.39 113.59C67.0631 111.294 66.7022 108.566 67.3867 106.004C68.0711 103.443 69.7449 101.258 72.0399 99.9299V99.9299Z" fill="#345FAC"/>
<path opacity="0.5" d="M72.0399 99.9299L92.3799 88.1899H74.0999L44.5499 117.73C42.6752 119.605 41.6221 122.148 41.6221 124.8C41.6221 127.452 42.6752 129.995 44.5499 131.87L125.88 213.19L68.39 113.59C67.0631 111.294 66.7022 108.566 67.3867 106.004C68.0711 103.443 69.7449 101.258 72.0399 99.9299V99.9299Z" fill="#345FAC"/>
<path opacity="0.5" d="M72.0399 99.9299L92.3799 88.1899H74.0999L44.5499 117.73C42.6752 119.605 41.6221 122.148 41.6221 124.8C41.6221 127.452 42.6752 129.995 44.5499 131.87L125.88 213.19L68.39 113.59C67.0631 111.294 66.7022 108.566 67.3867 106.004C68.0711 103.443 69.7449 101.258 72.0399 99.9299V99.9299Z" fill="#345FAC"/>
<path d="M72.0399 99.9299L92.3799 88.1899H74.0999L44.5499 117.73C42.6752 119.605 41.6221 122.148 41.6221 124.8C41.6221 127.452 42.6752 129.995 44.5499 131.87L125.88 213.19L68.39 113.59C67.0631 111.294 66.7022 108.566 67.3867 106.004C68.0711 103.443 69.7449 101.258 72.0399 99.9299V99.9299Z" fill="#0442CA"/>
<path d="M186.16 67.5899L176.63 51.0999C175.304 48.8032 173.12 47.1273 170.558 46.441C167.996 45.7546 165.267 46.1139 162.97 47.4399L146.44 56.9799L163.21 73.75L186.16 67.5899Z" fill="#88B8F2"/>
<path opacity="0.5" d="M143.49 79.04L163.21 73.75L146.45 56.98L125.86 68.87L143.49 79.04Z" fill="#345FAC"/>
<path d="M143.49 79.04L163.21 73.75L146.45 56.98L125.86 68.87L143.49 79.04Z" fill="#4484E4"/>
<path opacity="0.5" d="M143.49 79.04L125.86 68.87L108.22 79.04L125.86 83.77L143.49 79.04Z" fill="#345FAC"/>
<path opacity="0.5" d="M143.49 79.04L125.86 68.87L108.22 79.04L125.86 83.77L143.49 79.04Z" fill="#345FAC"/>
<path d="M143.49 79.04L125.86 68.87L108.22 79.04L125.86 83.77L143.49 79.04Z" fill="#1C5ED7"/>
<path opacity="0.5" d="M108.22 79.04L92.3899 88.19H109.4L125.86 83.7701L108.22 79.04Z" fill="#345FAC"/>
<path opacity="0.5" d="M108.22 79.04L92.3899 88.19H109.4L125.86 83.7701L108.22 79.04Z" fill="#345FAC"/>
<path opacity="0.5" d="M108.22 79.04L92.3899 88.19H109.4L125.86 83.7701L108.22 79.04Z" fill="#345FAC"/>
<path d="M108.22 79.04L92.3899 88.19H109.4L125.86 83.7701L108.22 79.04Z" fill="#0442CA"/>
<path opacity="0.5" d="M103.14 89.8699L109.39 88.1899H92.39L72.05 99.9299C69.7533 101.256 68.0774 103.44 67.391 106.002C66.7046 108.564 67.064 111.293 68.39 113.59L125.88 213.19L96.08 102.12C95.3925 99.5593 95.7499 96.8304 97.0738 94.5332C98.3977 92.2361 100.58 90.5587 103.14 89.8699V89.8699Z" fill="#345FAC"/>
<path opacity="0.5" d="M103.14 89.8699L109.39 88.1899H92.39L72.05 99.9299C69.7533 101.256 68.0774 103.44 67.391 106.002C66.7046 108.564 67.064 111.293 68.39 113.59L125.88 213.19L96.08 102.12C95.3925 99.5593 95.7499 96.8304 97.0738 94.5332C98.3977 92.2361 100.58 90.5587 103.14 89.8699V89.8699Z" fill="#345FAC"/>
<path opacity="0.5" d="M103.14 89.8699L109.39 88.1899H92.39L72.05 99.9299C69.7533 101.256 68.0774 103.44 67.391 106.002C66.7046 108.564 67.064 111.293 68.39 113.59L125.88 213.19L96.08 102.12C95.3925 99.5593 95.7499 96.8304 97.0738 94.5332C98.3977 92.2361 100.58 90.5587 103.14 89.8699V89.8699Z" fill="#345FAC"/>
<path opacity="0.5" d="M103.14 89.8699L109.39 88.1899H92.39L72.05 99.9299C69.7533 101.256 68.0774 103.44 67.391 106.002C66.7046 108.564 67.064 111.293 68.39 113.59L125.88 213.19L96.08 102.12C95.3925 99.5593 95.7499 96.8304 97.0738 94.5332C98.3977 92.2361 100.58 90.5587 103.14 89.8699V89.8699Z" fill="#345FAC"/>
<path d="M103.14 89.8699L109.39 88.1899H92.39L72.05 99.9299C69.7533 101.256 68.0774 103.44 67.391 106.002C66.7046 108.564 67.064 111.293 68.39 113.59L125.88 213.19L96.08 102.12C95.3925 99.5593 95.7499 96.8304 97.0738 94.5332C98.3977 92.2361 100.58 90.5587 103.14 89.8699V89.8699Z" fill="#002EBE"/>
<path d="M221.75 88.19L216.8 69.72C216.111 67.1597 214.434 64.9777 212.137 63.6538C209.839 62.3299 207.111 61.9724 204.55 62.66L186.16 67.59L198.05 88.19H221.75Z" fill="#88B8F2"/>
<path opacity="0.5" d="M244.01 171.14L221.75 88.14H198.05L229.13 141.99C230.456 144.287 230.815 147.016 230.129 149.578C229.443 152.14 227.767 154.324 225.47 155.65L125.88 213.19L236.94 183.37C239.498 182.683 241.678 181.01 243.004 178.717C244.329 176.424 244.691 173.699 244.01 171.14V171.14Z" fill="#345FAC"/>
<path d="M244.01 171.14L221.75 88.14H198.05L229.13 141.99C230.456 144.287 230.815 147.016 230.129 149.578C229.443 152.14 227.767 154.324 225.47 155.65L125.88 213.19L236.94 183.37C239.498 182.683 241.678 181.01 243.004 178.717C244.329 176.424 244.691 173.699 244.01 171.14V171.14Z" fill="#4484E4"/>
<path opacity="0.5" d="M177.65 88.19H198.05L186.16 67.59L163.21 73.75L177.65 88.19Z" fill="#345FAC"/>
<path d="M177.65 88.19H198.05L186.16 67.59L163.21 73.75L177.65 88.19Z" fill="#4484E4"/>
<path opacity="0.5" d="M229.13 142.04L198.05 88.1899H177.65L207.19 117.73C209.065 119.605 210.118 122.148 210.118 124.8C210.118 127.452 209.065 129.995 207.19 131.87L125.88 213.19L225.48 155.7C227.775 154.372 229.449 152.187 230.133 149.626C230.818 147.064 230.457 144.336 229.13 142.04V142.04Z" fill="#345FAC"/>
<path opacity="0.5" d="M229.13 142.04L198.05 88.1899H177.65L207.19 117.73C209.065 119.605 210.118 122.148 210.118 124.8C210.118 127.452 209.065 129.995 207.19 131.87L125.88 213.19L225.48 155.7C227.775 154.372 229.449 152.187 230.133 149.626C230.818 147.064 230.457 144.336 229.13 142.04V142.04Z" fill="#345FAC"/>
<path d="M229.13 142.04L198.05 88.1899H177.65L207.19 117.73C209.065 119.605 210.118 122.148 210.118 124.8C210.118 127.452 209.065 129.995 207.19 131.87L125.88 213.19L225.48 155.7C227.775 154.372 229.449 152.187 230.133 149.626C230.818 147.064 230.457 144.336 229.13 142.04V142.04Z" fill="#1C5ED7"/>
<path opacity="0.5" d="M143.49 79.04L159.35 88.19H177.65L163.21 73.75L143.49 79.04Z" fill="#345FAC"/>
<path opacity="0.5" d="M143.49 79.04L159.35 88.19H177.65L163.21 73.75L143.49 79.04Z" fill="#345FAC"/>
<path d="M143.49 79.04L159.35 88.19H177.65L163.21 73.75L143.49 79.04Z" fill="#1C5ED7"/>
<path opacity="0.5" d="M207.19 117.73L177.65 88.1899H159.34L179.67 99.9199C180.808 100.576 181.806 101.449 182.606 102.491C183.406 103.532 183.994 104.721 184.335 105.99C184.675 107.258 184.763 108.581 184.592 109.884C184.422 111.186 183.996 112.442 183.34 113.58L125.88 213.19L207.2 131.87C209.073 129.993 210.125 127.45 210.123 124.798C210.121 122.146 209.066 119.604 207.19 117.73V117.73Z" fill="#345FAC"/>
<path opacity="0.5" d="M207.19 117.73L177.65 88.1899H159.34L179.67 99.9199C180.808 100.576 181.806 101.449 182.606 102.491C183.406 103.532 183.994 104.721 184.335 105.99C184.675 107.258 184.763 108.581 184.592 109.884C184.422 111.186 183.996 112.442 183.34 113.58L125.88 213.19L207.2 131.87C209.073 129.993 210.125 127.45 210.123 124.798C210.121 122.146 209.066 119.604 207.19 117.73V117.73Z" fill="#345FAC"/>
<path opacity="0.5" d="M207.19 117.73L177.65 88.1899H159.34L179.67 99.9199C180.808 100.576 181.806 101.449 182.606 102.491C183.406 103.532 183.994 104.721 184.335 105.99C184.675 107.258 184.763 108.581 184.592 109.884C184.422 111.186 183.996 112.442 183.34 113.58L125.88 213.19L207.2 131.87C209.073 129.993 210.125 127.45 210.123 124.798C210.121 122.146 209.066 119.604 207.19 117.73V117.73Z" fill="#345FAC"/>
<path d="M207.19 117.73L177.65 88.1899H159.34L179.67 99.9199C180.808 100.576 181.806 101.449 182.606 102.491C183.406 103.532 183.994 104.721 184.335 105.99C184.675 107.258 184.763 108.581 184.592 109.884C184.422 111.186 183.996 112.442 183.34 113.58L125.88 213.19L207.2 131.87C209.073 129.993 210.125 127.45 210.123 124.798C210.121 122.146 209.066 119.604 207.19 117.73V117.73Z" fill="#0442CA"/>
<path opacity="0.5" d="M125.86 83.7701L142.34 88.19H159.35L143.49 79.04L125.86 83.7701Z" fill="#345FAC"/>
<path opacity="0.5" d="M125.86 83.7701L142.34 88.19H159.35L143.49 79.04L125.86 83.7701Z" fill="#345FAC"/>
<path opacity="0.5" d="M125.86 83.7701L142.34 88.19H159.35L143.49 79.04L125.86 83.7701Z" fill="#345FAC"/>
<path d="M125.86 83.7701L142.34 88.19H159.35L143.49 79.04L125.86 83.7701Z" fill="#0442CA"/>
<path opacity="0.5" d="M179.67 99.9199L159.34 88.1899H142.34L148.58 89.8599C149.848 90.1999 151.038 90.7865 152.08 91.5862C153.122 92.3858 153.996 93.3829 154.652 94.5204C155.309 95.658 155.735 96.9137 155.906 98.216C156.077 99.5182 155.99 100.841 155.65 102.11L125.88 213.19L183.35 113.58C184.006 112.441 184.431 111.185 184.601 109.882C184.771 108.579 184.682 107.256 184.34 105.987C183.999 104.719 183.41 103.53 182.609 102.489C181.808 101.448 180.809 100.575 179.67 99.9199V99.9199Z" fill="#345FAC"/>
<path opacity="0.5" d="M179.67 99.9199L159.34 88.1899H142.34L148.58 89.8599C149.848 90.1999 151.038 90.7865 152.08 91.5862C153.122 92.3858 153.996 93.3829 154.652 94.5204C155.309 95.658 155.735 96.9137 155.906 98.216C156.077 99.5182 155.99 100.841 155.65 102.11L125.88 213.19L183.35 113.58C184.006 112.441 184.431 111.185 184.601 109.882C184.771 108.579 184.682 107.256 184.34 105.987C183.999 104.719 183.41 103.53 182.609 102.489C181.808 101.448 180.809 100.575 179.67 99.9199V99.9199Z" fill="#345FAC"/>
<path opacity="0.5" d="M179.67 99.9199L159.34 88.1899H142.34L148.58 89.8599C149.848 90.1999 151.038 90.7865 152.08 91.5862C153.122 92.3858 153.996 93.3829 154.652 94.5204C155.309 95.658 155.735 96.9137 155.906 98.216C156.077 99.5182 155.99 100.841 155.65 102.11L125.88 213.19L183.35 113.58C184.006 112.441 184.431 111.185 184.601 109.882C184.771 108.579 184.682 107.256 184.34 105.987C183.999 104.719 183.41 103.53 182.609 102.489C181.808 101.448 180.809 100.575 179.67 99.9199V99.9199Z" fill="#345FAC"/>
<path opacity="0.5" d="M179.67 99.9199L159.34 88.1899H142.34L148.58 89.8599C149.848 90.1999 151.038 90.7865 152.08 91.5862C153.122 92.3858 153.996 93.3829 154.652 94.5204C155.309 95.658 155.735 96.9137 155.906 98.216C156.077 99.5182 155.99 100.841 155.65 102.11L125.88 213.19L183.35 113.58C184.006 112.441 184.431 111.185 184.601 109.882C184.771 108.579 184.682 107.256 184.34 105.987C183.999 104.719 183.41 103.53 182.609 102.489C181.808 101.448 180.809 100.575 179.67 99.9199V99.9199Z" fill="#345FAC"/>
<path d="M179.67 99.9199L159.34 88.1899H142.34L148.58 89.8599C149.848 90.1999 151.038 90.7865 152.08 91.5862C153.122 92.3858 153.996 93.3829 154.652 94.5204C155.309 95.658 155.735 96.9137 155.906 98.216C156.077 99.5182 155.99 100.841 155.65 102.11L125.88 213.19L183.35 113.58C184.006 112.441 184.431 111.185 184.601 109.882C184.771 108.579 184.682 107.256 184.34 105.987C183.999 104.719 183.41 103.53 182.609 102.489C181.808 101.448 180.809 100.575 179.67 99.9199V99.9199Z" fill="#002EBE"/>
<path opacity="0.5" d="M109.4 88.19H142.34L125.86 83.77L109.4 88.19Z" fill="#345FAC"/>
<path opacity="0.5" d="M109.4 88.19H142.34L125.86 83.77L109.4 88.19Z" fill="#345FAC"/>
<path opacity="0.5" d="M109.4 88.19H142.34L125.86 83.77L109.4 88.19Z" fill="#345FAC"/>
<path opacity="0.5" d="M109.4 88.19H142.34L125.86 83.77L109.4 88.19Z" fill="#345FAC"/>
<path d="M109.4 88.19H142.34L125.86 83.77L109.4 88.19Z" fill="#002EBE"/>
<path opacity="0.5" d="M148.57 89.8599L142.33 88.1899H109.39L103.14 89.8699C101.871 90.2099 100.682 90.7965 99.6401 91.5961C98.5982 92.3958 97.724 93.3929 97.0675 94.5304C96.4109 95.668 95.9849 96.9237 95.8138 98.226C95.6426 99.5282 95.7297 100.851 96.07 102.12L125.88 213.19L155.65 102.11C155.99 100.841 156.077 99.5169 155.905 98.2141C155.733 96.9114 155.306 95.6553 154.649 94.5176C153.991 93.38 153.116 92.383 152.073 91.5838C151.03 90.7846 149.839 90.1989 148.57 89.8599V89.8599Z" fill="#345FAC"/>
<path opacity="0.5" d="M148.57 89.8599L142.33 88.1899H109.39L103.14 89.8699C101.871 90.2099 100.682 90.7965 99.6401 91.5961C98.5982 92.3958 97.724 93.3929 97.0675 94.5304C96.4109 95.668 95.9849 96.9237 95.8138 98.226C95.6426 99.5282 95.7297 100.851 96.07 102.12L125.88 213.19L155.65 102.11C155.99 100.841 156.077 99.5169 155.905 98.2141C155.733 96.9114 155.306 95.6553 154.649 94.5176C153.991 93.38 153.116 92.383 152.073 91.5838C151.03 90.7846 149.839 90.1989 148.57 89.8599V89.8599Z" fill="#345FAC"/>
<path opacity="0.5" d="M148.57 89.8599L142.33 88.1899H109.39L103.14 89.8699C101.871 90.2099 100.682 90.7965 99.6401 91.5961C98.5982 92.3958 97.724 93.3929 97.0675 94.5304C96.4109 95.668 95.9849 96.9237 95.8138 98.226C95.6426 99.5282 95.7297 100.851 96.07 102.12L125.88 213.19L155.65 102.11C155.99 100.841 156.077 99.5169 155.905 98.2141C155.733 96.9114 155.306 95.6553 154.649 94.5176C153.991 93.38 153.116 92.383 152.073 91.5838C151.03 90.7846 149.839 90.1989 148.57 89.8599V89.8599Z" fill="#345FAC"/>
<path opacity="0.5" d="M148.57 89.8599L142.33 88.1899H109.39L103.14 89.8699C101.871 90.2099 100.682 90.7965 99.6401 91.5961C98.5982 92.3958 97.724 93.3929 97.0675 94.5304C96.4109 95.668 95.9849 96.9237 95.8138 98.226C95.6426 99.5282 95.7297 100.851 96.07 102.12L125.88 213.19L155.65 102.11C155.99 100.841 156.077 99.5169 155.905 98.2141C155.733 96.9114 155.306 95.6553 154.649 94.5176C153.991 93.38 153.116 92.383 152.073 91.5838C151.03 90.7846 149.839 90.1989 148.57 89.8599V89.8599Z" fill="#345FAC"/>
<path opacity="0.5" d="M148.57 89.8599L142.33 88.1899H109.39L103.14 89.8699C101.871 90.2099 100.682 90.7965 99.6401 91.5961C98.5982 92.3958 97.724 93.3929 97.0675 94.5304C96.4109 95.668 95.9849 96.9237 95.8138 98.226C95.6426 99.5282 95.7297 100.851 96.07 102.12L125.88 213.19L155.65 102.11C155.99 100.841 156.077 99.5169 155.905 98.2141C155.733 96.9114 155.306 95.6553 154.649 94.5176C153.991 93.38 153.116 92.383 152.073 91.5838C151.03 90.7846 149.839 90.1989 148.57 89.8599V89.8599Z" fill="#345FAC"/>
<path d="M148.57 89.8599L142.33 88.1899H109.39L103.14 89.8699C101.871 90.2099 100.682 90.7965 99.6401 91.5961C98.5982 92.3958 97.724 93.3929 97.0675 94.5304C96.4109 95.668 95.9849 96.9237 95.8138 98.226C95.6426 99.5282 95.7297 100.851 96.07 102.12L125.88 213.19L155.65 102.11C155.99 100.841 156.077 99.5169 155.905 98.2141C155.733 96.9114 155.306 95.6553 154.649 94.5176C153.991 93.38 153.116 92.383 152.073 91.5838C151.03 90.7846 149.839 90.1989 148.57 89.8599V89.8599Z" fill="#0020B1"/>
<path d="M225.81 52.96C232.99 52.96 238.81 47.1397 238.81 39.96C238.81 32.7803 232.99 26.96 225.81 26.96C218.63 26.96 212.81 32.7803 212.81 39.96C212.81 47.1397 218.63 52.96 225.81 52.96Z" fill="#FFBC00"/>
<path d="M125.88 109.27C118.14 116.66 102.65 135.37 102.65 151.11C102.65 157.271 105.097 163.18 109.454 167.536C113.81 171.893 119.719 174.34 125.88 174.34C132.041 174.34 137.95 171.893 142.306 167.536C146.663 163.18 149.11 157.271 149.11 151.11C149.09 135.37 133.6 116.66 125.88 109.27Z" fill="white"/>
<path d="M345.59 89.75L332.12 140.12C332.071 140.266 331.975 140.392 331.846 140.478C331.717 140.563 331.564 140.602 331.41 140.59H322.8C322.648 140.592 322.499 140.548 322.373 140.464C322.246 140.38 322.148 140.26 322.09 140.12L316.77 120.3L309.56 140.2C309.53 140.32 309.458 140.425 309.357 140.496C309.256 140.568 309.133 140.601 309.01 140.59H300.71C300.566 140.599 300.424 140.556 300.309 140.47C300.194 140.384 300.113 140.26 300.08 140.12L286.69 89.68C286.665 89.5792 286.665 89.4737 286.689 89.3728C286.714 89.2719 286.763 89.1785 286.832 89.1007C286.901 89.0229 286.988 88.9631 287.085 88.9264C287.182 88.8897 287.287 88.8772 287.39 88.89H296.39C296.517 88.9087 296.635 88.9627 296.733 89.0458C296.83 89.1289 296.902 89.2379 296.94 89.36L305.64 122.57L312.14 102.92L308.53 89.75C308.501 89.6511 308.495 89.5467 308.512 89.4451C308.53 89.3434 308.571 89.2472 308.632 89.164C308.693 89.0807 308.772 89.0127 308.864 88.9652C308.955 88.9177 309.057 88.8919 309.16 88.89H318.88C319.2 88.89 319.35 88.98 319.51 89.36L326.72 121.36L335.34 89.36C335.381 89.2269 335.464 89.1101 335.575 89.0258C335.686 88.9416 335.82 88.8941 335.96 88.89H344.96C345.066 88.8826 345.172 88.9022 345.269 88.947C345.366 88.9918 345.449 89.0603 345.512 89.1462C345.575 89.2321 345.615 89.3325 345.629 89.4381C345.642 89.5437 345.629 89.651 345.59 89.75V89.75Z" fill="black"/>
<path d="M357.88 139.88V89.6C357.87 89.5111 357.879 89.4211 357.906 89.3359C357.933 89.2506 357.978 89.1721 358.038 89.1052C358.097 89.0383 358.17 88.9845 358.251 88.9475C358.332 88.9104 358.421 88.8908 358.51 88.89H385.14C385.234 88.8886 385.327 88.9061 385.413 88.9413C385.5 88.9765 385.579 89.0287 385.645 89.0949C385.711 89.1611 385.764 89.2399 385.799 89.3267C385.834 89.4134 385.851 89.5063 385.85 89.6V97.98C385.85 98.1683 385.775 98.3489 385.642 98.482C385.509 98.6152 385.328 98.69 385.14 98.69H368.23V109.37H381.38C381.469 109.371 381.556 109.39 381.637 109.427C381.717 109.463 381.789 109.516 381.849 109.582C381.908 109.648 381.953 109.725 381.981 109.809C382.008 109.893 382.018 109.982 382.01 110.07V118.61C382.018 118.698 382.008 118.787 381.981 118.871C381.953 118.955 381.908 119.032 381.849 119.098C381.789 119.164 381.717 119.217 381.637 119.253C381.556 119.29 381.469 119.309 381.38 119.31H368.23V130.83H385.14C385.233 130.829 385.325 130.846 385.411 130.88C385.497 130.915 385.575 130.966 385.642 131.031C385.708 131.097 385.76 131.174 385.796 131.26C385.832 131.345 385.85 131.437 385.85 131.53V139.91C385.851 140.004 385.834 140.097 385.799 140.183C385.764 140.27 385.711 140.349 385.645 140.415C385.579 140.481 385.5 140.533 385.413 140.569C385.327 140.604 385.234 140.621 385.14 140.62H358.48C358.39 140.615 358.302 140.592 358.222 140.551C358.142 140.511 358.072 140.454 358.015 140.384C357.958 140.314 357.917 140.233 357.894 140.146C357.871 140.059 357.866 139.969 357.88 139.88V139.88Z" fill="black"/>
<path d="M409.33 89.6V130.73H426.25C426.343 130.729 426.435 130.746 426.521 130.78C426.607 130.815 426.685 130.866 426.752 130.931C426.818 130.997 426.87 131.074 426.906 131.16C426.942 131.245 426.96 131.337 426.96 131.43V139.88C426.96 140.068 426.885 140.249 426.752 140.382C426.619 140.515 426.438 140.59 426.25 140.59H399.7C399.611 140.589 399.522 140.57 399.441 140.532C399.36 140.495 399.287 140.442 399.227 140.375C399.168 140.308 399.123 140.229 399.096 140.144C399.069 140.059 399.06 139.969 399.07 139.88V89.6C399.06 89.5111 399.069 89.4211 399.096 89.3359C399.123 89.2507 399.168 89.1721 399.227 89.1052C399.287 89.0383 399.36 88.9846 399.441 88.9475C399.522 88.9105 399.611 88.8909 399.7 88.89H408.63C408.723 88.89 408.815 88.9084 408.9 88.9442C408.986 88.98 409.063 89.0325 409.129 89.0986C409.194 89.1646 409.245 89.243 409.28 89.3291C409.314 89.4151 409.331 89.5072 409.33 89.6Z" fill="black"/>
<path d="M448.21 89.6V130.73H465.13C465.223 130.729 465.315 130.746 465.401 130.78C465.487 130.815 465.565 130.866 465.631 130.931C465.697 130.997 465.75 131.074 465.786 131.16C465.821 131.245 465.84 131.337 465.84 131.43V139.88C465.84 140.068 465.765 140.249 465.632 140.382C465.499 140.515 465.318 140.59 465.13 140.59H438.58C438.49 140.589 438.402 140.57 438.321 140.532C438.239 140.495 438.167 140.442 438.107 140.375C438.048 140.308 438.003 140.229 437.976 140.144C437.949 140.059 437.94 139.969 437.95 139.88V89.6C437.94 89.5111 437.949 89.4211 437.976 89.3359C438.003 89.2507 438.048 89.1721 438.107 89.1052C438.167 89.0383 438.239 88.9846 438.321 88.9475C438.402 88.9105 438.49 88.8909 438.58 88.89H447.51C447.603 88.89 447.695 88.9084 447.78 88.9442C447.866 88.98 447.943 89.0325 448.008 89.0986C448.074 89.1646 448.125 89.243 448.16 89.3291C448.194 89.4151 448.211 89.5072 448.21 89.6Z" fill="black"/>
<path d="M508.15 124.22C508.202 128.011 507.161 131.736 505.15 134.95C502.25 139.26 497.71 141.38 491.44 141.38C484.78 141.38 477.03 138.16 474.61 130.88C474.567 130.766 474.565 130.64 474.606 130.525C474.646 130.41 474.725 130.312 474.83 130.25L482.04 124.07C482.114 124.009 482.199 123.965 482.291 123.939C482.383 123.914 482.479 123.908 482.573 123.922C482.668 123.936 482.758 123.97 482.838 124.021C482.919 124.073 482.987 124.14 483.04 124.22C483.2 124.62 483.51 125.22 483.9 126.03C485.08 128.45 487.9 130.88 491.03 130.88C493.46 130.88 496.75 129.55 496.75 125.79C496.75 122.19 491.81 120.15 488.75 118.97C485.051 117.598 481.61 115.614 478.57 113.1C475.35 110.1 473.79 106.83 473.79 102.92C473.79 93.1299 482.79 88.1899 491.34 88.1899C498.07 88.1899 503.08 91.7199 506.34 98.6899C506.403 98.8394 506.413 99.0056 506.369 99.1616C506.326 99.3177 506.231 99.4545 506.1 99.5499L499.1 104.4C498.79 104.56 498.63 104.56 498.31 104.17C495.65 100.33 493.31 98.5299 490.17 98.5299C488.52 98.5299 484.68 99.1499 484.68 102.06C484.68 105.58 491.18 107.38 494.32 108.87C500.39 111.69 508.15 116.15 508.15 124.22Z" fill="black"/>
<path d="M533.57 120.9C534.655 122.276 535.177 124.014 535.03 125.76V134.46C535.03 136.74 534.56 138.33 533.57 139.39C532.28 140.71 530.33 141.39 527.48 141.39C524.63 141.39 522.62 140.72 521.36 139.39C520.266 137.991 519.737 136.231 519.88 134.46V125.76C519.74 124.002 520.268 122.255 521.36 120.87C522.62 119.51 524.61 118.92 527.48 118.92C530.35 118.92 532.32 119.54 533.57 120.9ZM530.63 126.85C530.63 123.94 529.07 123.35 527.63 123.35H527.23C525.11 123.35 524.29 124.7 524.29 126.85V133.47C524.29 136.38 525.84 137.01 527.23 137.01H527.63C529.75 137.01 530.57 135.59 530.63 133.47V126.85Z" fill="black"/>
<path d="M541.09 141.05C541.053 141.049 541.016 141.04 540.982 141.024C540.949 141.008 540.919 140.985 540.894 140.957C540.87 140.929 540.851 140.896 540.84 140.86C540.829 140.825 540.826 140.787 540.83 140.75V119.51C540.826 119.473 540.829 119.435 540.84 119.4C540.851 119.364 540.87 119.331 540.894 119.303C540.919 119.275 540.949 119.252 540.982 119.236C541.016 119.22 541.053 119.211 541.09 119.21H552.34C552.38 119.209 552.419 119.215 552.456 119.23C552.493 119.245 552.527 119.267 552.555 119.295C552.583 119.323 552.605 119.357 552.62 119.394C552.634 119.431 552.641 119.47 552.64 119.51V123.05C552.64 123.13 552.608 123.206 552.552 123.262C552.496 123.318 552.419 123.35 552.34 123.35H545.2V127.85H550.75C550.787 127.85 550.824 127.858 550.858 127.872C550.892 127.887 550.923 127.909 550.948 127.936C550.974 127.963 550.993 127.995 551.005 128.031C551.018 128.066 551.023 128.103 551.02 128.14V131.75C551.023 131.788 551.018 131.825 551.005 131.861C550.993 131.897 550.974 131.929 550.949 131.957C550.923 131.985 550.893 132.008 550.859 132.024C550.825 132.04 550.788 132.049 550.75 132.05H545.2V140.75C545.197 140.829 545.165 140.904 545.109 140.959C545.053 141.015 544.979 141.048 544.9 141.05H541.09Z" fill="black"/>
<path d="M313.21 191.88C313.21 191.787 313.228 191.695 313.264 191.61C313.3 191.524 313.353 191.447 313.419 191.381C313.485 191.316 313.563 191.265 313.649 191.23C313.735 191.196 313.827 191.179 313.92 191.18H322.88C322.973 191.179 323.065 191.196 323.151 191.23C323.237 191.265 323.315 191.316 323.381 191.381C323.448 191.447 323.5 191.524 323.536 191.61C323.572 191.695 323.59 191.787 323.59 191.88V196.82C323.59 208.33 317.4 213.19 305.73 213.19C294.84 213.19 287.73 208.88 287.73 196.82V176.22C287.73 164.62 294.07 160 305.73 160C316.73 160 323.59 164.23 323.59 176.22V177.86C323.59 178.048 323.515 178.229 323.382 178.362C323.249 178.495 323.068 178.57 322.88 178.57H313.88C313.787 178.57 313.694 178.552 313.608 178.516C313.522 178.48 313.444 178.428 313.378 178.362C313.312 178.296 313.26 178.218 313.224 178.132C313.188 178.046 313.17 177.953 313.17 177.86V176.61C313.17 172.3 309.96 170.5 306.17 170.5H305.24C302.65 170.5 300.92 171.2 299.75 172.77C298.58 174.34 298.26 176.22 298.26 178.77V194.28C298.26 201.09 302.1 202.59 305.26 202.59H306.19C308.78 202.59 310.58 201.88 311.75 200.32C312.892 198.535 313.441 196.435 313.32 194.32L313.21 191.88Z" fill="black"/>
<path d="M359.77 161.37C359.77 161.184 359.844 161.006 359.975 160.875C360.106 160.744 360.284 160.67 360.47 160.67H369.4C369.493 160.669 369.585 160.686 369.671 160.72C369.757 160.755 369.835 160.806 369.901 160.871C369.967 160.937 370.02 161.014 370.056 161.1C370.091 161.185 370.11 161.277 370.11 161.37V211.66C370.11 211.848 370.035 212.029 369.902 212.162C369.769 212.295 369.588 212.37 369.4 212.37H360.47C360.377 212.37 360.285 212.352 360.2 212.316C360.114 212.28 360.036 212.227 359.971 212.161C359.906 212.095 359.855 212.017 359.82 211.931C359.786 211.845 359.769 211.753 359.77 211.66V190.87H347.07V211.7C347.071 211.793 347.054 211.885 347.02 211.971C346.985 212.057 346.934 212.135 346.868 212.201C346.803 212.268 346.726 212.32 346.64 212.356C346.555 212.392 346.463 212.41 346.37 212.41H337.44C337.351 212.408 337.263 212.387 337.183 212.349C337.102 212.312 337.03 212.258 336.971 212.192C336.912 212.125 336.867 212.047 336.839 211.963C336.812 211.878 336.802 211.789 336.81 211.7V161.37C336.802 161.282 336.812 161.193 336.839 161.109C336.867 161.025 336.912 160.948 336.971 160.882C337.031 160.816 337.103 160.763 337.183 160.727C337.264 160.69 337.351 160.671 337.44 160.67H346.37C346.556 160.67 346.734 160.744 346.865 160.875C346.996 161.006 347.07 161.184 347.07 161.37V181.07H359.77V161.37Z" fill="black"/>
<path d="M395.12 160.71H404.88C405.011 160.714 405.137 160.763 405.237 160.849C405.337 160.934 405.405 161.051 405.43 161.18L418.98 211.55C419.002 211.654 419.001 211.762 418.976 211.865C418.951 211.969 418.904 212.066 418.837 212.148C418.769 212.231 418.684 212.297 418.588 212.342C418.492 212.388 418.386 212.411 418.28 212.41H409.34C409.208 212.405 409.083 212.354 408.984 212.266C408.886 212.179 408.821 212.06 408.8 211.93L405.74 200.93H394.3L391.3 211.93C391.22 212.25 391.06 212.41 390.75 212.41H381.75C381.643 212.413 381.537 212.391 381.439 212.346C381.342 212.302 381.256 212.235 381.188 212.152C381.121 212.069 381.073 211.972 381.049 211.867C381.025 211.763 381.025 211.654 381.05 211.55L394.6 161.18C394.623 161.056 394.687 160.942 394.781 160.858C394.875 160.773 394.994 160.721 395.12 160.71V160.71ZM403.26 191.26L399.88 179.43L396.74 191.26H403.26Z" fill="black"/>
<path d="M452.01 160.71H461.01C461.103 160.709 461.195 160.726 461.281 160.76C461.367 160.795 461.445 160.846 461.511 160.911C461.577 160.977 461.63 161.054 461.666 161.14C461.701 161.225 461.72 161.317 461.72 161.41V211.7C461.72 211.888 461.645 212.069 461.512 212.202C461.379 212.335 461.198 212.41 461.01 212.41H452.31C452.168 212.419 452.027 212.387 451.902 212.318C451.778 212.249 451.677 212.145 451.61 212.02L440.17 186.24V211.7C440.171 211.793 440.154 211.885 440.12 211.971C440.085 212.057 440.034 212.135 439.968 212.201C439.903 212.267 439.826 212.32 439.74 212.356C439.655 212.392 439.563 212.41 439.47 212.41H430.54C430.45 212.409 430.362 212.389 430.281 212.352C430.199 212.315 430.127 212.262 430.067 212.195C430.008 212.128 429.963 212.049 429.936 211.964C429.909 211.879 429.9 211.789 429.91 211.7V161.37C429.9 161.282 429.909 161.192 429.936 161.107C429.963 161.023 430.008 160.945 430.068 160.878C430.127 160.812 430.2 160.76 430.281 160.724C430.363 160.688 430.451 160.669 430.54 160.67H439.78C439.899 160.675 440.015 160.714 440.113 160.784C440.21 160.853 440.286 160.949 440.33 161.06L451.33 186.36V161.37C451.34 161.195 451.415 161.03 451.541 160.907C451.667 160.785 451.834 160.715 452.01 160.71V160.71Z" fill="black"/>
<path d="M491.98 192.9V184.52C491.98 184.427 491.998 184.334 492.034 184.248C492.07 184.162 492.122 184.084 492.188 184.018C492.254 183.952 492.332 183.9 492.418 183.864C492.504 183.828 492.597 183.81 492.69 183.81H510.63C510.723 183.81 510.815 183.828 510.9 183.864C510.986 183.9 511.063 183.952 511.129 184.019C511.194 184.085 511.245 184.163 511.28 184.249C511.314 184.335 511.331 184.427 511.33 184.52V196.82C511.33 208.33 505.14 213.19 493.47 213.19C482.58 213.19 475.47 208.88 475.47 196.82V176.22C475.47 164.86 481.81 160 493.47 160C504.47 160 511.33 164.23 511.33 176.22V177.86C511.331 177.953 511.314 178.045 511.28 178.131C511.245 178.217 511.194 178.295 511.129 178.361C511.063 178.428 510.986 178.48 510.9 178.516C510.815 178.552 510.723 178.57 510.63 178.57H501.63C501.537 178.57 501.444 178.552 501.358 178.516C501.272 178.48 501.194 178.428 501.128 178.362C501.062 178.296 501.01 178.218 500.974 178.132C500.938 178.046 500.92 177.953 500.92 177.86V176.86C500.92 172.09 497.92 170.52 493.92 170.52H492.99C490.4 170.52 488.68 171.22 487.5 172.79C486.32 174.36 486.01 176.24 486.01 178.79V194.3C486.01 201.11 489.7 202.61 493.01 202.61H493.94C498.72 202.61 500.94 199.31 500.94 194.3V193.6H492.72C492.625 193.604 492.53 193.589 492.441 193.556C492.352 193.522 492.271 193.472 492.202 193.406C492.133 193.341 492.078 193.263 492.04 193.176C492.002 193.089 491.981 192.995 491.98 192.9V192.9Z" fill="black"/>
<path d="M524.67 211.7V161.37C524.662 161.282 524.672 161.193 524.7 161.109C524.727 161.025 524.772 160.948 524.831 160.882C524.891 160.816 524.963 160.763 525.044 160.727C525.124 160.69 525.212 160.671 525.3 160.67H551.93C552.023 160.669 552.115 160.686 552.201 160.72C552.287 160.755 552.365 160.806 552.431 160.871C552.497 160.937 552.55 161.014 552.586 161.1C552.622 161.185 552.64 161.277 552.64 161.37V169.75C552.64 169.938 552.565 170.119 552.432 170.252C552.299 170.385 552.118 170.46 551.93 170.46H535.02V181.11H548.17C548.259 181.112 548.346 181.133 548.427 181.17C548.508 181.208 548.58 181.262 548.639 181.328C548.698 181.395 548.743 181.473 548.771 181.557C548.798 181.642 548.808 181.731 548.8 181.82V190.37C548.807 190.458 548.796 190.546 548.767 190.629C548.739 190.713 548.694 190.79 548.635 190.855C548.576 190.921 548.505 190.973 548.425 191.01C548.345 191.047 548.258 191.068 548.17 191.07H535.02V202.59H551.93C552.023 202.589 552.115 202.606 552.201 202.64C552.287 202.675 552.365 202.726 552.431 202.791C552.497 202.857 552.55 202.934 552.586 203.02C552.622 203.105 552.64 203.197 552.64 203.29V211.67C552.64 211.858 552.565 212.039 552.432 212.172C552.299 212.305 552.118 212.38 551.93 212.38H525.3C525.214 212.377 525.129 212.358 525.05 212.322C524.972 212.286 524.901 212.235 524.843 212.172C524.784 212.109 524.738 212.034 524.709 211.953C524.679 211.872 524.666 211.786 524.67 211.7V211.7Z" fill="black"/>
</g>
<defs>
<clipPath id="clip0_193:1917">
<rect width="551.76" height="212.99" fill="white" transform="translate(0.880005 0.199951)"/>
</clipPath>
</defs>
</svg>
