<svg width="553" height="214" viewBox="0 0 553 214" fill="none" xmlns="http://www.w3.org/2000/svg">
<g clip-path="url(#clip0_193:1916)">
<path d="M125.63 26.2C132.81 26.2 138.63 20.3797 138.63 13.2C138.63 6.02025 132.81 0.199951 125.63 0.199951C118.45 0.199951 112.63 6.02025 112.63 13.2C112.63 20.3797 118.45 26.2 125.63 26.2Z" fill="#FFBC00"/>
<path d="M25.65 52.99C32.8297 52.99 38.65 47.1697 38.65 39.99C38.65 32.8103 32.8297 26.99 25.65 26.99C18.4703 26.99 12.65 32.8103 12.65 39.99C12.65 47.1697 18.4703 52.99 25.65 52.99Z" fill="#FFBC00"/>
<path d="M73.8 33.03C80.9798 33.03 86.8 27.2097 86.8 20.03C86.8 12.8503 80.9798 7.03003 73.8 7.03003C66.6203 7.03003 60.8 12.8503 60.8 20.03C60.8 27.2097 66.6203 33.03 73.8 33.03Z" fill="#FFBC00"/>
<path d="M177.4 33.02C184.58 33.02 190.4 27.1997 190.4 20.02C190.4 12.8403 184.58 7.02002 177.4 7.02002C170.22 7.02002 164.4 12.8403 164.4 20.02C164.4 27.1997 170.22 33.02 177.4 33.02Z" fill="#FFBC00"/>
<path d="M7.48001 171.17L29.72 88.17H10.63C7.97784 88.17 5.4343 89.2236 3.55894 91.099C1.68357 92.9743 0.630005 95.5179 0.630005 98.17V203.17C0.630005 205.822 1.68357 208.366 3.55894 210.241C5.4343 212.116 7.97784 213.17 10.63 213.17H125.63L14.55 183.42C13.2814 183.08 12.0921 182.493 11.0502 181.694C10.0082 180.894 9.13406 179.897 8.47752 178.76C7.82099 177.622 7.39499 176.366 7.22383 175.064C7.05268 173.762 7.13973 172.439 7.48001 171.17V171.17Z" fill="#88B8F2"/>
<path d="M240.63 88.1899H221.51L243.77 171.19C244.436 173.742 244.067 176.454 242.743 178.736C241.419 181.017 239.247 182.683 236.7 183.37L125.63 213.17H240.63C243.282 213.17 245.826 212.116 247.701 210.241C249.576 208.366 250.63 205.822 250.63 203.17V98.1699C250.625 95.5212 249.569 92.9828 247.694 91.1118C245.819 89.2407 243.279 88.1899 240.63 88.1899V88.1899Z" fill="#88B8F2"/>
<path d="M146.2 56.98L132.7 43.49C130.825 41.6153 128.282 40.5621 125.63 40.5621C122.978 40.5621 120.435 41.6153 118.56 43.49L105.04 57L125.61 68.87L146.2 56.98Z" fill="#88B8F2"/>
<path d="M65.2999 67.61L46.8799 62.68C45.6114 62.3397 44.2882 62.2526 42.986 62.4238C41.6838 62.5949 40.428 63.0209 39.2905 63.6775C38.1529 64.334 37.1558 65.2082 36.3562 66.2501C35.5565 67.2921 34.9699 68.4813 34.6299 69.75L29.6899 88.19H53.3999L65.2999 67.61Z" fill="#88B8F2"/>
<path opacity="0.5" d="M22.35 142.07L53.43 88.1899H29.72L7.48 171.19C7.13972 172.459 7.05267 173.782 7.22382 175.084C7.39498 176.386 7.82098 177.642 8.47751 178.779C9.13405 179.917 10.0082 180.914 11.0502 181.714C12.0921 182.513 13.2813 183.1 14.55 183.44L125.63 213.21L26.01 155.75C24.8701 155.093 23.871 154.218 23.0699 153.175C22.2688 152.131 21.6814 150.94 21.3414 149.669C21.0014 148.399 20.9155 147.073 21.0886 145.769C21.2616 144.465 21.6903 143.208 22.35 142.07V142.07Z" fill="#345FAC"/>
<path d="M22.35 142.07L53.43 88.1899H29.72L7.48 171.19C7.13972 172.459 7.05267 173.782 7.22382 175.084C7.39498 176.386 7.82098 177.642 8.47751 178.779C9.13405 179.917 10.0082 180.914 11.0502 181.714C12.0921 182.513 13.2813 183.1 14.55 183.44L125.63 213.21L26.01 155.75C24.8701 155.093 23.871 154.218 23.0699 153.175C22.2688 152.131 21.6814 150.94 21.3414 149.669C21.0014 148.399 20.9155 147.073 21.0886 145.769C21.2616 144.465 21.6903 143.208 22.35 142.07V142.07Z" fill="#4484E4"/>
<path d="M105.04 57L88.4801 47.45C87.3422 46.7938 86.0862 46.3683 84.7839 46.1976C83.4815 46.0269 82.1583 46.1145 80.8898 46.4553C79.6213 46.7961 78.4323 47.3834 77.3909 48.1838C76.3494 48.9842 75.4759 49.9819 74.8201 51.12L65.3 67.61L88.3 73.77L105.04 57Z" fill="#88B8F2"/>
<path opacity="0.5" d="M107.98 79.04L125.61 68.87L105.04 57L88.28 73.76L107.98 79.04Z" fill="#345FAC"/>
<path d="M107.98 79.04L125.61 68.87L105.04 57L88.28 73.76L107.98 79.04Z" fill="#4484E4"/>
<path opacity="0.5" d="M73.86 88.19L88.28 73.76L65.3101 67.61L53.4301 88.19H73.86Z" fill="#345FAC"/>
<path d="M73.86 88.19L88.28 73.76L65.3101 67.61L53.4301 88.19H73.86Z" fill="#4484E4"/>
<path opacity="0.5" d="M44.31 117.73L73.88 88.1899H53.43L22.35 142.07C21.024 144.367 20.6646 147.096 21.351 149.658C22.0374 152.22 23.7133 154.404 26.01 155.73L125.63 213.19L44.31 131.87C42.4353 129.995 41.3821 127.452 41.3821 124.8C41.3821 122.148 42.4353 119.605 44.31 117.73Z" fill="#345FAC"/>
<path opacity="0.5" d="M44.31 117.73L73.88 88.1899H53.43L22.35 142.07C21.024 144.367 20.6646 147.096 21.351 149.658C22.0374 152.22 23.7133 154.404 26.01 155.73L125.63 213.19L44.31 131.87C42.4353 129.995 41.3821 127.452 41.3821 124.8C41.3821 122.148 42.4353 119.605 44.31 117.73Z" fill="#345FAC"/>
<path d="M44.31 117.73L73.88 88.1899H53.43L22.35 142.07C21.024 144.367 20.6646 147.096 21.351 149.658C22.0374 152.22 23.7133 154.404 26.01 155.73L125.63 213.19L44.31 131.87C42.4353 129.995 41.3821 127.452 41.3821 124.8C41.3821 122.148 42.4353 119.605 44.31 117.73Z" fill="#1C5ED7"/>
<path opacity="0.5" d="M88.28 73.76L73.86 88.19H92.14L107.98 79.04L88.28 73.76Z" fill="#345FAC"/>
<path opacity="0.5" d="M88.28 73.76L73.86 88.19H92.14L107.98 79.04L88.28 73.76Z" fill="#345FAC"/>
<path d="M88.28 73.76L73.86 88.19H92.14L107.98 79.04L88.28 73.76Z" fill="#1C5ED7"/>
<path opacity="0.5" d="M71.79 99.9299L92.14 88.1899H73.88L44.34 117.73C42.4653 119.605 41.4121 122.148 41.4121 124.8C41.4121 127.452 42.4653 129.995 44.34 131.87L125.66 213.19L68.16 113.59C66.8314 111.297 66.4675 108.57 67.1482 106.009C67.8288 103.447 69.4983 101.261 71.79 99.9299V99.9299Z" fill="#345FAC"/>
<path opacity="0.5" d="M71.79 99.9299L92.14 88.1899H73.88L44.34 117.73C42.4653 119.605 41.4121 122.148 41.4121 124.8C41.4121 127.452 42.4653 129.995 44.34 131.87L125.66 213.19L68.16 113.59C66.8314 111.297 66.4675 108.57 67.1482 106.009C67.8288 103.447 69.4983 101.261 71.79 99.9299V99.9299Z" fill="#345FAC"/>
<path opacity="0.5" d="M71.79 99.9299L92.14 88.1899H73.88L44.34 117.73C42.4653 119.605 41.4121 122.148 41.4121 124.8C41.4121 127.452 42.4653 129.995 44.34 131.87L125.66 213.19L68.16 113.59C66.8314 111.297 66.4675 108.57 67.1482 106.009C67.8288 103.447 69.4983 101.261 71.79 99.9299V99.9299Z" fill="#345FAC"/>
<path d="M71.79 99.9299L92.14 88.1899H73.88L44.34 117.73C42.4653 119.605 41.4121 122.148 41.4121 124.8C41.4121 127.452 42.4653 129.995 44.34 131.87L125.66 213.19L68.16 113.59C66.8314 111.297 66.4675 108.57 67.1482 106.009C67.8288 103.447 69.4983 101.261 71.79 99.9299V99.9299Z" fill="#0442CA"/>
<path d="M185.88 67.5899L176.36 51.0999C175.034 48.8032 172.85 47.1273 170.288 46.441C167.726 45.7546 164.997 46.1139 162.7 47.4399L146.17 56.9799L162.93 73.75L185.88 67.5899Z" fill="#88B8F2"/>
<path opacity="0.5" d="M143.24 79.04L162.97 73.75L146.2 56.98L125.61 68.87L143.24 79.04Z" fill="#345FAC"/>
<path d="M143.24 79.04L162.97 73.75L146.2 56.98L125.61 68.87L143.24 79.04Z" fill="#4484E4"/>
<path opacity="0.5" d="M143.24 79.04L125.61 68.87L107.98 79.04L125.61 83.77L143.24 79.04Z" fill="#345FAC"/>
<path opacity="0.5" d="M143.24 79.04L125.61 68.87L107.98 79.04L125.61 83.77L143.24 79.04Z" fill="#345FAC"/>
<path d="M143.24 79.04L125.61 68.87L107.98 79.04L125.61 83.77L143.24 79.04Z" fill="#1C5ED7"/>
<path opacity="0.5" d="M107.98 79.04L92.14 88.19H109.15L125.61 83.7701L107.98 79.04Z" fill="#345FAC"/>
<path opacity="0.5" d="M107.98 79.04L92.14 88.19H109.15L125.61 83.7701L107.98 79.04Z" fill="#345FAC"/>
<path opacity="0.5" d="M107.98 79.04L92.14 88.19H109.15L125.61 83.7701L107.98 79.04Z" fill="#345FAC"/>
<path d="M107.98 79.04L92.14 88.19H109.15L125.61 83.7701L107.98 79.04Z" fill="#0442CA"/>
<path opacity="0.5" d="M102.88 89.8699L109.14 88.1899H92.14L71.79 99.9299C69.4933 101.256 67.8174 103.44 67.131 106.002C66.4446 108.564 66.804 111.293 68.13 113.59L125.63 213.19L95.82 102.12C95.1324 99.5593 95.4899 96.8304 96.8138 94.5332C98.1377 92.2361 100.32 90.5587 102.88 89.8699V89.8699Z" fill="#345FAC"/>
<path opacity="0.5" d="M102.88 89.8699L109.14 88.1899H92.14L71.79 99.9299C69.4933 101.256 67.8174 103.44 67.131 106.002C66.4446 108.564 66.804 111.293 68.13 113.59L125.63 213.19L95.82 102.12C95.1324 99.5593 95.4899 96.8304 96.8138 94.5332C98.1377 92.2361 100.32 90.5587 102.88 89.8699V89.8699Z" fill="#345FAC"/>
<path opacity="0.5" d="M102.88 89.8699L109.14 88.1899H92.14L71.79 99.9299C69.4933 101.256 67.8174 103.44 67.131 106.002C66.4446 108.564 66.804 111.293 68.13 113.59L125.63 213.19L95.82 102.12C95.1324 99.5593 95.4899 96.8304 96.8138 94.5332C98.1377 92.2361 100.32 90.5587 102.88 89.8699V89.8699Z" fill="#345FAC"/>
<path opacity="0.5" d="M102.88 89.8699L109.14 88.1899H92.14L71.79 99.9299C69.4933 101.256 67.8174 103.44 67.131 106.002C66.4446 108.564 66.804 111.293 68.13 113.59L125.63 213.19L95.82 102.12C95.1324 99.5593 95.4899 96.8304 96.8138 94.5332C98.1377 92.2361 100.32 90.5587 102.88 89.8699V89.8699Z" fill="#345FAC"/>
<path d="M102.88 89.8699L109.14 88.1899H92.14L71.79 99.9299C69.4933 101.256 67.8174 103.44 67.131 106.002C66.4446 108.564 66.804 111.293 68.13 113.59L125.63 213.19L95.82 102.12C95.1324 99.5593 95.4899 96.8304 96.8138 94.5332C98.1377 92.2361 100.32 90.5587 102.88 89.8699V89.8699Z" fill="#002EBE"/>
<path d="M221.51 88.19L216.51 69.72C215.821 67.1597 214.144 64.9777 211.847 63.6538C209.55 62.3299 206.821 61.9724 204.26 62.66L185.88 67.59L197.77 88.19H221.51Z" fill="#88B8F2"/>
<path opacity="0.5" d="M243.77 171.14L221.51 88.14H197.8L228.88 142.04C230.206 144.337 230.565 147.066 229.879 149.628C229.193 152.19 227.517 154.374 225.22 155.7L125.63 213.19L236.7 183.37C239.258 182.683 241.439 181.01 242.764 178.717C244.089 176.424 244.451 173.699 243.77 171.14Z" fill="#345FAC"/>
<path d="M243.77 171.14L221.51 88.14H197.8L228.88 142.04C230.206 144.337 230.565 147.066 229.879 149.628C229.193 152.19 227.517 154.374 225.22 155.7L125.63 213.19L236.7 183.37C239.258 182.683 241.439 181.01 242.764 178.717C244.089 176.424 244.451 173.699 243.77 171.14Z" fill="#4484E4"/>
<path opacity="0.5" d="M177.41 88.19H197.81L185.91 67.59L162.97 73.75L177.41 88.19Z" fill="#345FAC"/>
<path d="M177.41 88.19H197.81L185.91 67.59L162.97 73.75L177.41 88.19Z" fill="#4484E4"/>
<path opacity="0.5" d="M228.88 142.04L197.8 88.1899H177.4L206.94 117.73C208.815 119.605 209.868 122.148 209.868 124.8C209.868 127.452 208.815 129.995 206.94 131.87L125.63 213.19L225.22 155.7C227.517 154.374 229.193 152.19 229.879 149.628C230.565 147.066 230.206 144.337 228.88 142.04V142.04Z" fill="#345FAC"/>
<path opacity="0.5" d="M228.88 142.04L197.8 88.1899H177.4L206.94 117.73C208.815 119.605 209.868 122.148 209.868 124.8C209.868 127.452 208.815 129.995 206.94 131.87L125.63 213.19L225.22 155.7C227.517 154.374 229.193 152.19 229.879 149.628C230.565 147.066 230.206 144.337 228.88 142.04V142.04Z" fill="#345FAC"/>
<path d="M228.88 142.04L197.8 88.1899H177.4L206.94 117.73C208.815 119.605 209.868 122.148 209.868 124.8C209.868 127.452 208.815 129.995 206.94 131.87L125.63 213.19L225.22 155.7C227.517 154.374 229.193 152.19 229.879 149.628C230.565 147.066 230.206 144.337 228.88 142.04V142.04Z" fill="#1C5ED7"/>
<path opacity="0.5" d="M143.24 79.04L159.1 88.19H177.41L162.97 73.75L143.24 79.04Z" fill="#345FAC"/>
<path opacity="0.5" d="M143.24 79.04L159.1 88.19H177.41L162.97 73.75L143.24 79.04Z" fill="#345FAC"/>
<path d="M143.24 79.04L159.1 88.19H177.41L162.97 73.75L143.24 79.04Z" fill="#1C5ED7"/>
<path opacity="0.5" d="M206.94 117.73L177.4 88.1899H159.1L179.43 99.9199C181.727 101.246 183.403 103.43 184.089 105.992C184.775 108.554 184.416 111.283 183.09 113.58L125.63 213.19L206.94 131.87C208.815 129.995 209.868 127.452 209.868 124.8C209.868 122.148 208.815 119.605 206.94 117.73Z" fill="#345FAC"/>
<path opacity="0.5" d="M206.94 117.73L177.4 88.1899H159.1L179.43 99.9199C181.727 101.246 183.403 103.43 184.089 105.992C184.775 108.554 184.416 111.283 183.09 113.58L125.63 213.19L206.94 131.87C208.815 129.995 209.868 127.452 209.868 124.8C209.868 122.148 208.815 119.605 206.94 117.73Z" fill="#345FAC"/>
<path opacity="0.5" d="M206.94 117.73L177.4 88.1899H159.1L179.43 99.9199C181.727 101.246 183.403 103.43 184.089 105.992C184.775 108.554 184.416 111.283 183.09 113.58L125.63 213.19L206.94 131.87C208.815 129.995 209.868 127.452 209.868 124.8C209.868 122.148 208.815 119.605 206.94 117.73Z" fill="#345FAC"/>
<path d="M206.94 117.73L177.4 88.1899H159.1L179.43 99.9199C181.727 101.246 183.403 103.43 184.089 105.992C184.775 108.554 184.416 111.283 183.09 113.58L125.63 213.19L206.94 131.87C208.815 129.995 209.868 127.452 209.868 124.8C209.868 122.148 208.815 119.605 206.94 117.73Z" fill="#0442CA"/>
<path opacity="0.5" d="M125.61 83.7701L142.09 88.19H159.1L143.24 79.04L125.61 83.7701Z" fill="#345FAC"/>
<path opacity="0.5" d="M125.61 83.7701L142.09 88.19H159.1L143.24 79.04L125.61 83.7701Z" fill="#345FAC"/>
<path opacity="0.5" d="M125.61 83.7701L142.09 88.19H159.1L143.24 79.04L125.61 83.7701Z" fill="#345FAC"/>
<path d="M125.61 83.7701L142.09 88.19H159.1L143.24 79.04L125.61 83.7701Z" fill="#0442CA"/>
<path opacity="0.5" d="M179.43 99.9199L159.1 88.1899H142.1L148.34 89.8599C149.609 90.1999 150.798 90.7865 151.84 91.5862C152.882 92.3858 153.756 93.3829 154.412 94.5204C155.069 95.658 155.495 96.9137 155.666 98.216C155.837 99.5182 155.75 100.841 155.41 102.11L125.63 213.19L183.09 113.58C184.416 111.283 184.775 108.554 184.089 105.992C183.403 103.43 181.727 101.246 179.43 99.9199Z" fill="#345FAC"/>
<path opacity="0.5" d="M179.43 99.9199L159.1 88.1899H142.1L148.34 89.8599C149.609 90.1999 150.798 90.7865 151.84 91.5862C152.882 92.3858 153.756 93.3829 154.412 94.5204C155.069 95.658 155.495 96.9137 155.666 98.216C155.837 99.5182 155.75 100.841 155.41 102.11L125.63 213.19L183.09 113.58C184.416 111.283 184.775 108.554 184.089 105.992C183.403 103.43 181.727 101.246 179.43 99.9199Z" fill="#345FAC"/>
<path opacity="0.5" d="M179.43 99.9199L159.1 88.1899H142.1L148.34 89.8599C149.609 90.1999 150.798 90.7865 151.84 91.5862C152.882 92.3858 153.756 93.3829 154.412 94.5204C155.069 95.658 155.495 96.9137 155.666 98.216C155.837 99.5182 155.75 100.841 155.41 102.11L125.63 213.19L183.09 113.58C184.416 111.283 184.775 108.554 184.089 105.992C183.403 103.43 181.727 101.246 179.43 99.9199Z" fill="#345FAC"/>
<path opacity="0.5" d="M179.43 99.9199L159.1 88.1899H142.1L148.34 89.8599C149.609 90.1999 150.798 90.7865 151.84 91.5862C152.882 92.3858 153.756 93.3829 154.412 94.5204C155.069 95.658 155.495 96.9137 155.666 98.216C155.837 99.5182 155.75 100.841 155.41 102.11L125.63 213.19L183.09 113.58C184.416 111.283 184.775 108.554 184.089 105.992C183.403 103.43 181.727 101.246 179.43 99.9199Z" fill="#345FAC"/>
<path d="M179.43 99.9199L159.1 88.1899H142.1L148.34 89.8599C149.609 90.1999 150.798 90.7865 151.84 91.5862C152.882 92.3858 153.756 93.3829 154.412 94.5204C155.069 95.658 155.495 96.9137 155.666 98.216C155.837 99.5182 155.75 100.841 155.41 102.11L125.63 213.19L183.09 113.58C184.416 111.283 184.775 108.554 184.089 105.992C183.403 103.43 181.727 101.246 179.43 99.9199Z" fill="#002EBE"/>
<path opacity="0.5" d="M109.15 88.19H142.09L125.61 83.77L109.15 88.19Z" fill="#345FAC"/>
<path opacity="0.5" d="M109.15 88.19H142.09L125.61 83.77L109.15 88.19Z" fill="#345FAC"/>
<path opacity="0.5" d="M109.15 88.19H142.09L125.61 83.77L109.15 88.19Z" fill="#345FAC"/>
<path opacity="0.5" d="M109.15 88.19H142.09L125.61 83.77L109.15 88.19Z" fill="#345FAC"/>
<path d="M109.15 88.19H142.09L125.61 83.77L109.15 88.19Z" fill="#002EBE"/>
<path opacity="0.5" d="M148.33 89.8599L142.09 88.1899H109.15L102.88 89.8699C101.611 90.2099 100.422 90.7965 99.3801 91.5961C98.3382 92.3958 97.464 93.3929 96.8075 94.5304C96.151 95.668 95.7249 96.9237 95.5538 98.226C95.3826 99.5282 95.4697 100.851 95.81 102.12L125.62 213.19L155.39 102.11C156.078 99.5493 155.72 96.8204 154.396 94.5232C153.072 92.2261 150.89 90.5487 148.33 89.8599V89.8599Z" fill="#345FAC"/>
<path opacity="0.5" d="M148.33 89.8599L142.09 88.1899H109.15L102.88 89.8699C101.611 90.2099 100.422 90.7965 99.3801 91.5961C98.3382 92.3958 97.464 93.3929 96.8075 94.5304C96.151 95.668 95.7249 96.9237 95.5538 98.226C95.3826 99.5282 95.4697 100.851 95.81 102.12L125.62 213.19L155.39 102.11C156.078 99.5493 155.72 96.8204 154.396 94.5232C153.072 92.2261 150.89 90.5487 148.33 89.8599V89.8599Z" fill="#345FAC"/>
<path opacity="0.5" d="M148.33 89.8599L142.09 88.1899H109.15L102.88 89.8699C101.611 90.2099 100.422 90.7965 99.3801 91.5961C98.3382 92.3958 97.464 93.3929 96.8075 94.5304C96.151 95.668 95.7249 96.9237 95.5538 98.226C95.3826 99.5282 95.4697 100.851 95.81 102.12L125.62 213.19L155.39 102.11C156.078 99.5493 155.72 96.8204 154.396 94.5232C153.072 92.2261 150.89 90.5487 148.33 89.8599V89.8599Z" fill="#345FAC"/>
<path opacity="0.5" d="M148.33 89.8599L142.09 88.1899H109.15L102.88 89.8699C101.611 90.2099 100.422 90.7965 99.3801 91.5961C98.3382 92.3958 97.464 93.3929 96.8075 94.5304C96.151 95.668 95.7249 96.9237 95.5538 98.226C95.3826 99.5282 95.4697 100.851 95.81 102.12L125.62 213.19L155.39 102.11C156.078 99.5493 155.72 96.8204 154.396 94.5232C153.072 92.2261 150.89 90.5487 148.33 89.8599V89.8599Z" fill="#345FAC"/>
<path opacity="0.5" d="M148.33 89.8599L142.09 88.1899H109.15L102.88 89.8699C101.611 90.2099 100.422 90.7965 99.3801 91.5961C98.3382 92.3958 97.464 93.3929 96.8075 94.5304C96.151 95.668 95.7249 96.9237 95.5538 98.226C95.3826 99.5282 95.4697 100.851 95.81 102.12L125.62 213.19L155.39 102.11C156.078 99.5493 155.72 96.8204 154.396 94.5232C153.072 92.2261 150.89 90.5487 148.33 89.8599V89.8599Z" fill="#345FAC"/>
<path d="M148.33 89.8599L142.09 88.1899H109.15L102.88 89.8699C101.611 90.2099 100.422 90.7965 99.3801 91.5961C98.3382 92.3958 97.464 93.3929 96.8075 94.5304C96.151 95.668 95.7249 96.9237 95.5538 98.226C95.3826 99.5282 95.4697 100.851 95.81 102.12L125.62 213.19L155.39 102.11C156.078 99.5493 155.72 96.8204 154.396 94.5232C153.072 92.2261 150.89 90.5487 148.33 89.8599V89.8599Z" fill="#0020B1"/>
<path d="M225.57 52.96C232.75 52.96 238.57 47.1397 238.57 39.96C238.57 32.7803 232.75 26.96 225.57 26.96C218.39 26.96 212.57 32.7803 212.57 39.96C212.57 47.1397 218.39 52.96 225.57 52.96Z" fill="#FFBC00"/>
<path d="M125.62 109.27C117.87 116.66 102.39 135.37 102.39 151.11C102.516 157.186 105.018 162.971 109.36 167.224C113.702 171.476 119.538 173.858 125.615 173.858C131.693 173.858 137.528 171.476 141.87 167.224C146.212 162.971 148.714 157.186 148.84 151.11C148.88 135.37 133.36 116.66 125.62 109.27Z" fill="white"/>
<path d="M345.35 89.75L331.88 140.12C331.831 140.266 331.735 140.392 331.606 140.478C331.477 140.563 331.324 140.602 331.17 140.59H322.56C322.408 140.592 322.259 140.548 322.133 140.464C322.006 140.38 321.908 140.26 321.85 140.12L316.52 120.3L309.32 140.2C309.288 140.319 309.215 140.423 309.115 140.494C309.015 140.565 308.893 140.599 308.77 140.59H300.46C300.318 140.598 300.177 140.555 300.063 140.469C299.95 140.383 299.871 140.259 299.84 140.12L286.45 89.68C286.425 89.5792 286.425 89.4737 286.449 89.3728C286.474 89.2719 286.523 89.1785 286.592 89.1007C286.661 89.0229 286.748 88.9631 286.845 88.9264C286.942 88.8897 287.047 88.8772 287.15 88.89H296.15C296.277 88.9087 296.395 88.9627 296.493 89.0458C296.59 89.1289 296.662 89.2379 296.7 89.36L305.39 122.57L311.89 102.92L308.29 89.75C308.258 89.651 308.251 89.546 308.268 89.4435C308.284 89.3409 308.325 89.2438 308.386 89.16C308.448 89.0762 308.528 89.008 308.621 88.9611C308.714 88.9142 308.816 88.8899 308.92 88.89H318.63C318.94 88.89 319.1 88.98 319.26 89.36L326.46 121.36L335.08 89.36C335.125 89.2269 335.209 89.1105 335.321 89.0266C335.434 88.9426 335.57 88.8949 335.71 88.89H344.71C344.817 88.8808 344.925 88.899 345.023 88.943C345.121 88.987 345.206 89.0554 345.27 89.1416C345.334 89.2277 345.375 89.3289 345.389 89.4354C345.403 89.5419 345.39 89.6502 345.35 89.75V89.75Z" fill="white"/>
<path d="M357.61 139.88V89.6C357.6 89.5111 357.609 89.4211 357.636 89.3359C357.663 89.2506 357.708 89.1721 357.767 89.1052C357.827 89.0383 357.9 88.9845 357.981 88.9475C358.062 88.9104 358.151 88.8908 358.24 88.89H384.88C384.974 88.8886 385.067 88.9061 385.153 88.9413C385.24 88.9765 385.319 89.0287 385.385 89.0949C385.451 89.1611 385.504 89.2399 385.539 89.3267C385.574 89.4134 385.591 89.5063 385.59 89.6V97.98C385.59 98.1683 385.515 98.3489 385.382 98.482C385.249 98.6152 385.068 98.69 384.88 98.69H367.95V109.37H381.11C381.198 109.371 381.285 109.39 381.365 109.427C381.445 109.463 381.517 109.516 381.576 109.582C381.634 109.648 381.678 109.726 381.705 109.81C381.731 109.894 381.74 109.982 381.73 110.07V118.61C381.74 118.698 381.731 118.786 381.705 118.87C381.678 118.954 381.634 119.032 381.576 119.098C381.517 119.164 381.445 119.217 381.365 119.253C381.285 119.29 381.198 119.309 381.11 119.31H367.95V130.83H384.88C384.973 130.829 385.065 130.846 385.151 130.88C385.237 130.915 385.315 130.966 385.381 131.031C385.448 131.097 385.5 131.174 385.536 131.26C385.572 131.345 385.59 131.437 385.59 131.53V139.91C385.591 140.004 385.574 140.097 385.539 140.183C385.504 140.27 385.451 140.349 385.385 140.415C385.319 140.481 385.24 140.533 385.153 140.569C385.067 140.604 384.974 140.621 384.88 140.62H358.24C358.148 140.62 358.057 140.599 357.973 140.561C357.889 140.522 357.815 140.465 357.755 140.395C357.695 140.325 357.651 140.242 357.626 140.153C357.601 140.064 357.596 139.971 357.61 139.88V139.88Z" fill="white"/>
<path d="M409.09 89.6V130.73H426.01C426.103 130.729 426.195 130.746 426.281 130.78C426.367 130.815 426.445 130.866 426.511 130.931C426.578 130.997 426.63 131.074 426.666 131.16C426.702 131.245 426.72 131.337 426.72 131.43V139.88C426.72 140.068 426.645 140.249 426.512 140.382C426.379 140.515 426.198 140.59 426.01 140.59H399.46C399.371 140.589 399.282 140.57 399.201 140.532C399.12 140.495 399.047 140.442 398.987 140.375C398.928 140.308 398.883 140.229 398.856 140.144C398.829 140.059 398.82 139.969 398.83 139.88V89.6C398.82 89.5111 398.829 89.4211 398.856 89.3359C398.883 89.2507 398.928 89.1721 398.987 89.1052C399.047 89.0383 399.12 88.9846 399.201 88.9475C399.282 88.9105 399.371 88.8909 399.46 88.89H408.39C408.483 88.89 408.575 88.9084 408.66 88.9442C408.746 88.98 408.823 89.0325 408.889 89.0986C408.954 89.1646 409.005 89.243 409.04 89.3291C409.074 89.4151 409.091 89.5072 409.09 89.6Z" fill="white"/>
<path d="M447.96 89.6V130.73H464.88C464.973 130.729 465.065 130.746 465.151 130.78C465.237 130.815 465.315 130.866 465.381 130.931C465.448 130.997 465.5 131.074 465.536 131.16C465.572 131.245 465.59 131.337 465.59 131.43V139.88C465.59 140.068 465.515 140.249 465.382 140.382C465.249 140.515 465.068 140.59 464.88 140.59H438.33C438.241 140.589 438.152 140.57 438.071 140.532C437.99 140.495 437.917 140.442 437.857 140.375C437.798 140.308 437.753 140.229 437.726 140.144C437.699 140.059 437.69 139.969 437.7 139.88V89.6C437.69 89.5111 437.699 89.4211 437.726 89.3359C437.753 89.2507 437.798 89.1721 437.857 89.1052C437.917 89.0383 437.99 88.9846 438.071 88.9475C438.152 88.9105 438.241 88.8909 438.33 88.89H447.26C447.353 88.89 447.445 88.9084 447.53 88.9442C447.616 88.98 447.693 89.0325 447.759 89.0986C447.824 89.1646 447.875 89.243 447.91 89.3291C447.944 89.4151 447.961 89.5072 447.96 89.6Z" fill="white"/>
<path d="M507.88 124.22C507.932 128.011 506.891 131.736 504.88 134.95C501.99 139.26 497.45 141.38 491.18 141.38C484.52 141.38 476.76 138.16 474.34 130.88C474.3 130.765 474.301 130.639 474.343 130.524C474.385 130.409 474.465 130.312 474.57 130.25L481.78 124.07C481.854 124.009 481.939 123.965 482.031 123.939C482.123 123.914 482.219 123.908 482.313 123.922C482.408 123.936 482.498 123.97 482.578 124.021C482.659 124.073 482.727 124.14 482.78 124.22C482.93 124.62 483.25 125.22 483.64 126.03C484.81 128.45 487.64 130.88 490.77 130.88C493.19 130.88 496.48 129.55 496.48 125.79C496.48 122.19 491.55 120.15 488.48 118.97C484.783 117.596 481.342 115.611 478.3 113.1C475.09 110.1 473.53 106.83 473.53 102.92C473.53 93.1299 482.53 88.1899 491.07 88.1899C497.81 88.1899 502.82 91.7199 506.07 98.6899C506.132 98.8386 506.143 99.0035 506.101 99.1591C506.06 99.3146 505.968 99.452 505.84 99.5499L498.84 104.4C498.53 104.56 498.37 104.56 498.06 104.17C495.4 100.33 493.06 98.5299 489.91 98.5299C488.27 98.5299 484.43 99.1499 484.43 102.06C484.43 105.58 490.93 107.38 494.07 108.87C500.15 111.69 507.88 116.15 507.88 124.22Z" fill="white"/>
<path d="M533.33 120.9C534.412 122.278 534.93 124.015 534.78 125.76V134.46C534.78 136.74 534.32 138.33 533.33 139.39C532.04 140.71 530.09 141.39 527.24 141.39C524.39 141.39 522.38 140.72 521.12 139.39C520.022 137.992 519.49 136.232 519.63 134.46V125.76C519.492 124 520.025 122.254 521.12 120.87C522.38 119.51 524.36 118.92 527.24 118.92C530.12 118.92 532.07 119.54 533.33 120.9ZM530.33 126.85C530.33 123.94 528.78 123.35 527.33 123.35H526.93C524.81 123.35 523.93 124.7 523.93 126.85V133.47C523.93 136.38 525.49 137.01 526.93 137.01H527.33C529.44 137.01 530.27 135.59 530.33 133.47V126.85Z" fill="white"/>
<path d="M540.88 141.05C540.842 141.049 540.805 141.04 540.771 141.024C540.737 141.008 540.706 140.985 540.681 140.957C540.656 140.929 540.637 140.897 540.624 140.861C540.612 140.825 540.607 140.788 540.61 140.75V119.51C540.606 119.472 540.61 119.434 540.621 119.397C540.633 119.361 540.652 119.328 540.678 119.299C540.703 119.271 540.734 119.248 540.769 119.233C540.804 119.218 540.842 119.21 540.88 119.21H552.12C552.16 119.209 552.199 119.215 552.236 119.23C552.273 119.245 552.307 119.267 552.335 119.295C552.363 119.323 552.385 119.357 552.4 119.394C552.415 119.431 552.421 119.47 552.42 119.51V123.05C552.42 123.13 552.388 123.206 552.332 123.262C552.276 123.318 552.2 123.35 552.12 123.35H544.98V127.85H550.54C550.576 127.851 550.612 127.86 550.645 127.875C550.678 127.891 550.707 127.913 550.732 127.94C550.756 127.967 550.775 127.998 550.786 128.033C550.798 128.067 550.803 128.104 550.8 128.14V131.75C550.804 131.787 550.801 131.825 550.79 131.86C550.778 131.896 550.76 131.929 550.736 131.957C550.711 131.985 550.681 132.008 550.648 132.024C550.614 132.04 550.577 132.049 550.54 132.05H544.98V140.75C544.98 140.83 544.948 140.906 544.892 140.962C544.836 141.018 544.76 141.05 544.68 141.05H540.88Z" fill="white"/>
<path d="M312.96 191.88C312.96 191.787 312.978 191.695 313.014 191.61C313.05 191.524 313.102 191.447 313.168 191.381C313.235 191.316 313.313 191.265 313.399 191.23C313.485 191.196 313.577 191.179 313.67 191.18H322.6C322.693 191.179 322.785 191.196 322.871 191.23C322.957 191.265 323.035 191.316 323.101 191.381C323.167 191.447 323.22 191.524 323.256 191.61C323.292 191.695 323.31 191.787 323.31 191.88V196.82C323.31 208.33 317.11 213.19 305.44 213.19C294.56 213.19 287.44 208.88 287.44 196.82V176.22C287.44 164.62 293.79 160 305.44 160C316.49 160 323.31 164.23 323.31 176.22V177.86C323.31 178.048 323.235 178.229 323.102 178.362C322.969 178.495 322.788 178.57 322.6 178.57H313.6C313.507 178.57 313.415 178.552 313.33 178.516C313.244 178.48 313.167 178.428 313.101 178.361C313.036 178.295 312.985 178.217 312.95 178.131C312.916 178.045 312.899 177.953 312.9 177.86V176.61C312.9 172.3 309.69 170.5 305.85 170.5H304.88C302.29 170.5 300.57 171.2 299.4 172.77C298.23 174.34 297.9 176.22 297.9 178.77V194.28C297.9 201.09 301.74 202.59 304.9 202.59H305.88C308.46 202.59 310.27 201.88 311.44 200.32C312.573 198.532 313.118 196.434 313 194.32L312.96 191.88Z" fill="white"/>
<path d="M359.52 161.37C359.52 161.184 359.594 161.006 359.725 160.875C359.856 160.744 360.034 160.67 360.22 160.67H369.15C369.243 160.669 369.335 160.686 369.421 160.72C369.507 160.755 369.585 160.806 369.651 160.871C369.718 160.937 369.77 161.014 369.806 161.1C369.842 161.185 369.86 161.277 369.86 161.37V211.66C369.86 211.848 369.785 212.029 369.652 212.162C369.519 212.295 369.338 212.37 369.15 212.37H360.22C360.127 212.37 360.035 212.352 359.95 212.316C359.864 212.28 359.787 212.227 359.721 212.161C359.656 212.095 359.605 212.017 359.57 211.931C359.536 211.845 359.519 211.753 359.52 211.66V190.87H346.88V211.7C346.881 211.793 346.864 211.885 346.83 211.971C346.795 212.057 346.744 212.135 346.679 212.201C346.613 212.268 346.536 212.32 346.45 212.356C346.365 212.392 346.273 212.41 346.18 212.41H337.25C337.161 212.409 337.072 212.39 336.991 212.352C336.91 212.315 336.837 212.262 336.777 212.195C336.718 212.128 336.673 212.049 336.646 211.964C336.619 211.879 336.61 211.789 336.62 211.7V161.37C336.61 161.282 336.619 161.192 336.646 161.107C336.673 161.023 336.718 160.945 336.778 160.879C336.837 160.812 336.91 160.76 336.992 160.724C337.073 160.688 337.161 160.669 337.25 160.67H346.18C346.366 160.67 346.544 160.744 346.675 160.875C346.806 161.006 346.88 161.184 346.88 161.37V181.07H359.57L359.52 161.37Z" fill="white"/>
<path d="M394.88 160.71H404.58C404.711 160.714 404.837 160.763 404.937 160.849C405.037 160.934 405.105 161.051 405.13 161.18L418.68 211.55C418.704 211.654 418.705 211.763 418.681 211.867C418.657 211.972 418.609 212.069 418.541 212.152C418.474 212.235 418.388 212.302 418.291 212.346C418.193 212.391 418.087 212.413 417.98 212.41H409.05C408.918 212.407 408.791 212.357 408.692 212.269C408.593 212.181 408.529 212.061 408.51 211.93L405.45 200.93H394.01L391.01 211.93C390.92 212.25 390.77 212.41 390.46 212.41H381.46C381.353 212.412 381.246 212.391 381.149 212.346C381.051 212.301 380.965 212.235 380.896 212.152C380.828 212.069 380.779 211.972 380.754 211.868C380.729 211.764 380.727 211.655 380.75 211.55L394.31 161.18C394.334 161.047 394.404 160.926 394.508 160.84C394.613 160.754 394.745 160.708 394.88 160.71ZM403.02 191.26L399.65 179.43L396.51 191.26H403.02Z" fill="white"/>
<path d="M451.77 160.71H460.77C460.863 160.709 460.955 160.726 461.041 160.76C461.127 160.795 461.205 160.846 461.271 160.912C461.337 160.977 461.39 161.054 461.426 161.14C461.462 161.225 461.48 161.317 461.48 161.41V211.7C461.48 211.888 461.405 212.069 461.272 212.202C461.139 212.335 460.958 212.41 460.77 212.41H452.08C451.937 212.42 451.794 212.388 451.668 212.319C451.542 212.25 451.439 212.146 451.37 212.02L439.94 186.24V211.7C439.94 211.888 439.865 212.069 439.732 212.202C439.599 212.335 439.418 212.41 439.23 212.41H430.31C430.22 212.409 430.132 212.389 430.05 212.353C429.968 212.316 429.894 212.262 429.834 212.195C429.774 212.129 429.729 212.05 429.7 211.965C429.672 211.88 429.662 211.789 429.67 211.7V161.37C429.662 161.281 429.672 161.191 429.7 161.107C429.729 161.022 429.774 160.944 429.835 160.878C429.895 160.812 429.969 160.76 430.05 160.724C430.132 160.688 430.221 160.67 430.31 160.67H439.55C439.669 160.675 439.785 160.715 439.883 160.784C439.98 160.853 440.056 160.949 440.1 161.06L451.1 186.36V161.37C451.11 161.196 451.184 161.033 451.308 160.911C451.431 160.789 451.596 160.717 451.77 160.71Z" fill="white"/>
<path d="M491.74 192.9V184.52C491.74 184.332 491.815 184.151 491.948 184.018C492.081 183.885 492.262 183.81 492.45 183.81H510.38C510.568 183.81 510.749 183.885 510.882 184.018C511.015 184.151 511.09 184.332 511.09 184.52V196.82C511.09 208.33 504.9 213.19 493.22 213.19C482.34 213.19 475.22 208.88 475.22 196.82V176.22C475.22 164.86 481.57 160 493.22 160C504.22 160 511.09 164.23 511.09 176.22V177.86C511.09 178.048 511.015 178.229 510.882 178.362C510.749 178.495 510.568 178.57 510.38 178.57H501.38C501.192 178.57 501.011 178.495 500.878 178.362C500.745 178.229 500.67 178.048 500.67 177.86V176.86C500.67 172.09 497.61 170.52 493.67 170.52H492.73C490.14 170.52 488.42 171.22 487.25 172.79C486.08 174.36 485.75 176.24 485.75 178.79V194.3C485.75 201.11 489.44 202.61 492.75 202.61H493.69C498.47 202.61 500.69 199.31 500.69 194.3V193.6H492.47C492.376 193.603 492.282 193.587 492.194 193.553C492.107 193.519 492.026 193.468 491.958 193.403C491.891 193.338 491.836 193.26 491.799 193.173C491.761 193.087 491.741 192.994 491.74 192.9Z" fill="white"/>
<path d="M524.43 211.7V161.37C524.42 161.282 524.429 161.192 524.456 161.107C524.483 161.023 524.528 160.945 524.588 160.878C524.647 160.812 524.72 160.76 524.802 160.724C524.883 160.688 524.971 160.669 525.06 160.67H551.69C551.876 160.67 552.054 160.744 552.185 160.875C552.316 161.006 552.39 161.184 552.39 161.37V169.75C552.391 169.843 552.374 169.935 552.34 170.021C552.305 170.107 552.254 170.185 552.188 170.251C552.123 170.317 552.046 170.37 551.96 170.406C551.875 170.442 551.783 170.46 551.69 170.46H534.77V181.11H547.93C548.019 181.112 548.106 181.133 548.186 181.17C548.266 181.208 548.338 181.262 548.396 181.329C548.454 181.396 548.498 181.474 548.524 181.558C548.551 181.643 548.56 181.732 548.55 181.82V190.37C548.558 190.457 548.548 190.545 548.521 190.629C548.494 190.712 548.45 190.789 548.392 190.855C548.334 190.92 548.263 190.973 548.183 191.01C548.104 191.047 548.018 191.068 547.93 191.07H534.77V202.59H551.69C551.876 202.59 552.054 202.664 552.185 202.795C552.316 202.926 552.39 203.104 552.39 203.29V211.67C552.391 211.763 552.374 211.855 552.34 211.941C552.305 212.027 552.254 212.105 552.188 212.171C552.123 212.237 552.046 212.29 551.96 212.326C551.875 212.362 551.783 212.38 551.69 212.38H525.06C524.973 212.379 524.888 212.36 524.809 212.325C524.729 212.289 524.658 212.239 524.599 212.175C524.54 212.111 524.495 212.036 524.466 211.955C524.437 211.873 524.424 211.786 524.43 211.7Z" fill="white"/>
</g>
<defs>
<clipPath id="clip0_193:1916">
<rect width="551.79" height="213.01" fill="white" transform="translate(0.630005 0.199951)"/>
</clipPath>
</defs>
</svg>
