<svg width="251" height="408" viewBox="0 0 251 408" fill="none" xmlns="http://www.w3.org/2000/svg">
<g clip-path="url(#clip0_193:1914)">
<path d="M125.63 26C132.81 26 138.63 20.1797 138.63 13C138.63 5.8203 132.81 0 125.63 0C118.45 0 112.63 5.8203 112.63 13C112.63 20.1797 118.45 26 125.63 26Z" fill="#FFBC00"/>
<path d="M25.64 52.79C32.8197 52.79 38.64 46.9697 38.64 39.79C38.64 32.6103 32.8197 26.79 25.64 26.79C18.4603 26.79 12.64 32.6103 12.64 39.79C12.64 46.9697 18.4603 52.79 25.64 52.79Z" fill="#FFBC00"/>
<path d="M73.8 32.83C80.9798 32.83 86.8 27.0097 86.8 19.83C86.8 12.6503 80.9798 6.82996 73.8 6.82996C66.6203 6.82996 60.8 12.6503 60.8 19.83C60.8 27.0097 66.6203 32.83 73.8 32.83Z" fill="#FFBC00"/>
<path d="M177.4 32.8199C184.58 32.8199 190.4 26.9996 190.4 19.8199C190.4 12.6402 184.58 6.81995 177.4 6.81995C170.22 6.81995 164.4 12.6402 164.4 19.8199C164.4 26.9996 170.22 32.8199 177.4 32.8199Z" fill="#FFBC00"/>
<path d="M7.46997 170.97L29.71 87.97H10.62C7.96783 87.97 5.42431 89.0235 3.54895 90.8989C1.67359 92.7743 0.619995 95.3178 0.619995 97.97V202.97C0.619995 205.622 1.67359 208.166 3.54895 210.041C5.42431 211.916 7.96783 212.97 10.62 212.97H125.62L14.54 183.2C11.9823 182.513 9.80151 180.84 8.47607 178.547C7.15064 176.254 6.78877 173.529 7.46997 170.97V170.97Z" fill="#88B8F2"/>
<path d="M240.62 87.99H221.5L243.76 170.94C244.1 172.209 244.187 173.532 244.016 174.834C243.845 176.136 243.419 177.392 242.763 178.529C242.106 179.667 241.232 180.664 240.19 181.464C239.148 182.263 237.959 182.85 236.69 183.19L125.62 212.99H240.62C243.272 212.99 245.816 211.936 247.691 210.061C249.566 208.186 250.62 205.642 250.62 202.99V97.99C250.62 95.3378 249.566 92.7943 247.691 90.9189C245.816 89.0436 243.272 87.99 240.62 87.99V87.99Z" fill="#88B8F2"/>
<path d="M146.19 56.79L132.7 43.29C131.771 42.3603 130.668 41.6227 129.454 41.1194C128.24 40.6162 126.939 40.3572 125.625 40.3572C124.311 40.3572 123.01 40.6162 121.796 41.1194C120.582 41.6227 119.479 42.3603 118.55 43.29L105.03 56.81L125.6 68.67L146.19 56.79Z" fill="#88B8F2"/>
<path d="M65.3 67.3701L46.9 62.4401C44.3394 61.7558 41.6119 62.1162 39.3168 63.4418C37.0217 64.7675 35.3468 66.9501 34.66 69.5101L29.66 87.9501H53.38L65.3 67.3701Z" fill="#88B8F2"/>
<path opacity="0.5" d="M22.3499 141.87L53.43 87.99H29.7099L7.46993 170.99C7.12965 172.259 7.04268 173.582 7.21383 174.884C7.38499 176.186 7.81096 177.442 8.46749 178.579C9.12403 179.717 9.9982 180.714 11.0401 181.514C12.0821 182.313 13.2714 182.9 14.54 183.24L125.62 213.01L26.01 155.55C24.8701 154.893 23.871 154.018 23.0699 152.975C22.2688 151.931 21.6814 150.74 21.3414 149.469C21.0014 148.199 20.9154 146.873 21.0885 145.569C21.2615 144.265 21.6902 143.008 22.3499 141.87V141.87Z" fill="#345FAC"/>
<path d="M22.3499 141.87L53.43 87.99H29.7099L7.46993 170.99C7.12965 172.259 7.04268 173.582 7.21383 174.884C7.38499 176.186 7.81096 177.442 8.46749 178.579C9.12403 179.717 9.9982 180.714 11.0401 181.514C12.0821 182.313 13.2714 182.9 14.54 183.24L125.62 213.01L26.01 155.55C24.8701 154.893 23.871 154.018 23.0699 152.975C22.2688 151.931 21.6814 150.74 21.3414 149.469C21.0014 148.199 20.9154 146.873 21.0885 145.569C21.2615 144.265 21.6902 143.008 22.3499 141.87V141.87Z" fill="#4484E4"/>
<path d="M105.03 56.81L88.47 47.25C87.3321 46.5939 86.0762 46.1683 84.7738 45.9976C83.4714 45.8269 82.1483 45.9145 80.8798 46.2553C79.6113 46.5961 78.4223 47.1835 77.3809 47.9839C76.3394 48.7843 75.4659 49.782 74.8101 50.92L65.3 67.37L88.3 73.53L105.03 56.81Z" fill="#88B8F2"/>
<path opacity="0.5" d="M107.98 78.85L125.61 68.67L105.04 56.8L88.28 73.57L107.98 78.85Z" fill="#345FAC"/>
<path d="M107.98 78.85L125.61 68.67L105.04 56.8L88.28 73.57L107.98 78.85Z" fill="#4484E4"/>
<path opacity="0.5" d="M73.8501 87.99L88.2801 73.57L65.3001 67.41L53.4301 87.99H73.8501Z" fill="#345FAC"/>
<path d="M73.8501 87.99L88.2801 73.57L65.3001 67.41L53.4301 87.99H73.8501Z" fill="#4484E4"/>
<path opacity="0.5" d="M44.3101 117.53L73.88 87.99H53.46L22.38 141.87C21.054 144.167 20.6946 146.896 21.381 149.458C22.0674 152.02 23.7433 154.204 26.0401 155.53L125.65 212.99L44.34 131.68C43.4083 130.753 42.6683 129.652 42.1625 128.439C41.6567 127.226 41.3949 125.925 41.3921 124.611C41.3893 123.297 41.6456 121.995 42.1463 120.78C42.6469 119.565 43.3823 118.461 44.3101 117.53V117.53Z" fill="#345FAC"/>
<path opacity="0.5" d="M44.3101 117.53L73.88 87.99H53.46L22.38 141.87C21.054 144.167 20.6946 146.896 21.381 149.458C22.0674 152.02 23.7433 154.204 26.0401 155.53L125.65 212.99L44.34 131.68C43.4083 130.753 42.6683 129.652 42.1625 128.439C41.6567 127.226 41.3949 125.925 41.3921 124.611C41.3893 123.297 41.6456 121.995 42.1463 120.78C42.6469 119.565 43.3823 118.461 44.3101 117.53V117.53Z" fill="#345FAC"/>
<path d="M44.3101 117.53L73.88 87.99H53.46L22.38 141.87C21.054 144.167 20.6946 146.896 21.381 149.458C22.0674 152.02 23.7433 154.204 26.0401 155.53L125.65 212.99L44.34 131.68C43.4083 130.753 42.6683 129.652 42.1625 128.439C41.6567 127.226 41.3949 125.925 41.3921 124.611C41.3893 123.297 41.6456 121.995 42.1463 120.78C42.6469 119.565 43.3823 118.461 44.3101 117.53V117.53Z" fill="#1C5ED7"/>
<path opacity="0.5" d="M88.28 73.5699L73.85 87.9899H92.14L107.98 78.8499L88.28 73.5699Z" fill="#345FAC"/>
<path opacity="0.5" d="M88.28 73.5699L73.85 87.9899H92.14L107.98 78.8499L88.28 73.5699Z" fill="#345FAC"/>
<path d="M88.28 73.5699L73.85 87.9899H92.14L107.98 78.8499L88.28 73.5699Z" fill="#1C5ED7"/>
<path opacity="0.5" d="M71.79 99.74L92.13 87.99H73.88L44.34 117.53C43.4102 118.459 42.6727 119.562 42.1694 120.776C41.6662 121.99 41.4071 123.291 41.4071 124.605C41.4071 125.919 41.6662 127.22 42.1694 128.434C42.6727 129.648 43.4102 130.751 44.34 131.68L125.65 212.99L68.13 113.37C66.8135 111.076 66.4594 108.354 67.1454 105.799C67.8313 103.245 69.5014 101.066 71.79 99.74V99.74Z" fill="#345FAC"/>
<path opacity="0.5" d="M71.79 99.74L92.13 87.99H73.88L44.34 117.53C43.4102 118.459 42.6727 119.562 42.1694 120.776C41.6662 121.99 41.4071 123.291 41.4071 124.605C41.4071 125.919 41.6662 127.22 42.1694 128.434C42.6727 129.648 43.4102 130.751 44.34 131.68L125.65 212.99L68.13 113.37C66.8135 111.076 66.4594 108.354 67.1454 105.799C67.8313 103.245 69.5014 101.066 71.79 99.74V99.74Z" fill="#345FAC"/>
<path opacity="0.5" d="M71.79 99.74L92.13 87.99H73.88L44.34 117.53C43.4102 118.459 42.6727 119.562 42.1694 120.776C41.6662 121.99 41.4071 123.291 41.4071 124.605C41.4071 125.919 41.6662 127.22 42.1694 128.434C42.6727 129.648 43.4102 130.751 44.34 131.68L125.65 212.99L68.13 113.37C66.8135 111.076 66.4594 108.354 67.1454 105.799C67.8313 103.245 69.5014 101.066 71.79 99.74V99.74Z" fill="#345FAC"/>
<path d="M71.79 99.74L92.13 87.99H73.88L44.34 117.53C43.4102 118.459 42.6727 119.562 42.1694 120.776C41.6662 121.99 41.4071 123.291 41.4071 124.605C41.4071 125.919 41.6662 127.22 42.1694 128.434C42.6727 129.648 43.4102 130.751 44.34 131.68L125.65 212.99L68.13 113.37C66.8135 111.076 66.4594 108.354 67.1454 105.799C67.8313 103.245 69.5014 101.066 71.79 99.74V99.74Z" fill="#0442CA"/>
<path d="M185.88 67.37L176.36 50.88C175.034 48.5832 172.85 46.9074 170.288 46.221C167.726 45.5346 164.997 45.894 162.7 47.22L146.16 56.77L162.93 73.53L185.88 67.37Z" fill="#88B8F2"/>
<path opacity="0.5" d="M143.24 78.84L162.97 73.55L146.2 56.78L125.61 68.67L143.24 78.84Z" fill="#345FAC"/>
<path d="M143.24 78.84L162.97 73.55L146.2 56.78L125.61 68.67L143.24 78.84Z" fill="#4484E4"/>
<path opacity="0.5" d="M143.24 78.84L125.61 68.67L107.98 78.85L125.61 83.57L143.24 78.84Z" fill="#345FAC"/>
<path opacity="0.5" d="M143.24 78.84L125.61 68.67L107.98 78.85L125.61 83.57L143.24 78.84Z" fill="#345FAC"/>
<path d="M143.24 78.84L125.61 68.67L107.98 78.85L125.61 83.57L143.24 78.84Z" fill="#1C5ED7"/>
<path opacity="0.5" d="M107.98 78.85L92.14 87.99H109.15L125.61 83.57L107.98 78.85Z" fill="#345FAC"/>
<path opacity="0.5" d="M107.98 78.85L92.14 87.99H109.15L125.61 83.57L107.98 78.85Z" fill="#345FAC"/>
<path opacity="0.5" d="M107.98 78.85L92.14 87.99H109.15L125.61 83.57L107.98 78.85Z" fill="#345FAC"/>
<path d="M107.98 78.85L92.14 87.99H109.15L125.61 83.57L107.98 78.85Z" fill="#0442CA"/>
<path opacity="0.5" d="M102.88 89.67L109.13 87.99H92.13L71.79 99.74C69.5014 101.066 67.8313 103.245 67.1454 105.799C66.4594 108.354 66.8135 111.076 68.13 113.37L125.62 212.96L95.82 101.89C95.1415 99.3335 95.5034 96.6123 96.8265 94.3221C98.1497 92.0319 100.326 90.3591 102.88 89.67V89.67Z" fill="#345FAC"/>
<path opacity="0.5" d="M102.88 89.67L109.13 87.99H92.13L71.79 99.74C69.5014 101.066 67.8313 103.245 67.1454 105.799C66.4594 108.354 66.8135 111.076 68.13 113.37L125.62 212.96L95.82 101.89C95.1415 99.3335 95.5034 96.6123 96.8265 94.3221C98.1497 92.0319 100.326 90.3591 102.88 89.67V89.67Z" fill="#345FAC"/>
<path opacity="0.5" d="M102.88 89.67L109.13 87.99H92.13L71.79 99.74C69.5014 101.066 67.8313 103.245 67.1454 105.799C66.4594 108.354 66.8135 111.076 68.13 113.37L125.62 212.96L95.82 101.89C95.1415 99.3335 95.5034 96.6123 96.8265 94.3221C98.1497 92.0319 100.326 90.3591 102.88 89.67V89.67Z" fill="#345FAC"/>
<path opacity="0.5" d="M102.88 89.67L109.13 87.99H92.13L71.79 99.74C69.5014 101.066 67.8313 103.245 67.1454 105.799C66.4594 108.354 66.8135 111.076 68.13 113.37L125.62 212.96L95.82 101.89C95.1415 99.3335 95.5034 96.6123 96.8265 94.3221C98.1497 92.0319 100.326 90.3591 102.88 89.67V89.67Z" fill="#345FAC"/>
<path d="M102.88 89.67L109.13 87.99H92.13L71.79 99.74C69.5014 101.066 67.8313 103.245 67.1454 105.799C66.4594 108.354 66.8135 111.076 68.13 113.37L125.62 212.96L95.82 101.89C95.1415 99.3335 95.5034 96.6123 96.8265 94.3221C98.1497 92.0319 100.326 90.3591 102.88 89.67V89.67Z" fill="#002EBE"/>
<path d="M221.5 87.99L216.5 69.53C216.16 68.2613 215.573 67.0721 214.774 66.0302C213.974 64.9882 212.977 64.114 211.839 63.4575C210.702 62.801 209.446 62.375 208.144 62.2038C206.842 62.0326 205.519 62.1197 204.25 62.46L185.88 67.37L197.77 87.97L221.5 87.99Z" fill="#88B8F2"/>
<path opacity="0.5" d="M243.76 170.94L221.5 87.99H197.8L228.88 141.84C230.206 144.137 230.565 146.866 229.879 149.428C229.193 151.99 227.517 154.174 225.22 155.5L125.62 212.99L236.69 183.19C237.959 182.85 239.148 182.263 240.19 181.464C241.232 180.664 242.106 179.667 242.763 178.529C243.419 177.392 243.845 176.136 244.016 174.834C244.187 173.532 244.1 172.209 243.76 170.94V170.94Z" fill="#345FAC"/>
<path d="M243.76 170.94L221.5 87.99H197.8L228.88 141.84C230.206 144.137 230.565 146.866 229.879 149.428C229.193 151.99 227.517 154.174 225.22 155.5L125.62 212.99L236.69 183.19C237.959 182.85 239.148 182.263 240.19 181.464C241.232 180.664 242.106 179.667 242.763 178.529C243.419 177.392 243.845 176.136 244.016 174.834C244.187 173.532 244.1 172.209 243.76 170.94V170.94Z" fill="#4484E4"/>
<path opacity="0.5" d="M177.41 87.99H197.8L185.91 67.39L162.97 73.55L177.41 87.99Z" fill="#345FAC"/>
<path d="M177.41 87.99H197.8L185.91 67.39L162.97 73.55L177.41 87.99Z" fill="#4484E4"/>
<path opacity="0.5" d="M228.88 141.84L197.8 87.99H177.4L206.94 117.53C207.87 118.459 208.607 119.562 209.111 120.776C209.614 121.99 209.873 123.291 209.873 124.605C209.873 125.919 209.614 127.22 209.111 128.434C208.607 129.648 207.87 130.751 206.94 131.68L125.62 212.99L225.22 155.5C227.517 154.174 229.193 151.99 229.879 149.428C230.565 146.866 230.206 144.137 228.88 141.84V141.84Z" fill="#345FAC"/>
<path opacity="0.5" d="M228.88 141.84L197.8 87.99H177.4L206.94 117.53C207.87 118.459 208.607 119.562 209.111 120.776C209.614 121.99 209.873 123.291 209.873 124.605C209.873 125.919 209.614 127.22 209.111 128.434C208.607 129.648 207.87 130.751 206.94 131.68L125.62 212.99L225.22 155.5C227.517 154.174 229.193 151.99 229.879 149.428C230.565 146.866 230.206 144.137 228.88 141.84V141.84Z" fill="#345FAC"/>
<path d="M228.88 141.84L197.8 87.99H177.4L206.94 117.53C207.87 118.459 208.607 119.562 209.111 120.776C209.614 121.99 209.873 123.291 209.873 124.605C209.873 125.919 209.614 127.22 209.111 128.434C208.607 129.648 207.87 130.751 206.94 131.68L125.62 212.99L225.22 155.5C227.517 154.174 229.193 151.99 229.879 149.428C230.565 146.866 230.206 144.137 228.88 141.84V141.84Z" fill="#1C5ED7"/>
<path opacity="0.5" d="M143.24 78.84L159.1 87.99H177.41L162.97 73.55L143.24 78.84Z" fill="#345FAC"/>
<path opacity="0.5" d="M143.24 78.84L159.1 87.99H177.41L162.97 73.55L143.24 78.84Z" fill="#345FAC"/>
<path d="M143.24 78.84L159.1 87.99H177.41L162.97 73.55L143.24 78.84Z" fill="#1C5ED7"/>
<path opacity="0.5" d="M206.94 117.53L177.4 87.99H159.09L179.42 99.72C181.716 101.044 183.392 103.226 184.08 105.785C184.768 108.345 184.412 111.073 183.09 113.37L125.62 212.98L206.94 131.67C208.815 129.795 209.868 127.252 209.868 124.6C209.868 121.948 208.815 119.405 206.94 117.53V117.53Z" fill="#345FAC"/>
<path opacity="0.5" d="M206.94 117.53L177.4 87.99H159.09L179.42 99.72C181.716 101.044 183.392 103.226 184.08 105.785C184.768 108.345 184.412 111.073 183.09 113.37L125.62 212.98L206.94 131.67C208.815 129.795 209.868 127.252 209.868 124.6C209.868 121.948 208.815 119.405 206.94 117.53V117.53Z" fill="#345FAC"/>
<path opacity="0.5" d="M206.94 117.53L177.4 87.99H159.09L179.42 99.72C181.716 101.044 183.392 103.226 184.08 105.785C184.768 108.345 184.412 111.073 183.09 113.37L125.62 212.98L206.94 131.67C208.815 129.795 209.868 127.252 209.868 124.6C209.868 121.948 208.815 119.405 206.94 117.53V117.53Z" fill="#345FAC"/>
<path d="M206.94 117.53L177.4 87.99H159.09L179.42 99.72C181.716 101.044 183.392 103.226 184.08 105.785C184.768 108.345 184.412 111.073 183.09 113.37L125.62 212.98L206.94 131.67C208.815 129.795 209.868 127.252 209.868 124.6C209.868 121.948 208.815 119.405 206.94 117.53V117.53Z" fill="#0442CA"/>
<path opacity="0.5" d="M125.61 83.57L142.09 87.99H159.1L143.24 78.84L125.61 83.57Z" fill="#345FAC"/>
<path opacity="0.5" d="M125.61 83.57L142.09 87.99H159.1L143.24 78.84L125.61 83.57Z" fill="#345FAC"/>
<path opacity="0.5" d="M125.61 83.57L142.09 87.99H159.1L143.24 78.84L125.61 83.57Z" fill="#345FAC"/>
<path d="M125.61 83.57L142.09 87.99H159.1L143.24 78.84L125.61 83.57Z" fill="#0442CA"/>
<path opacity="0.5" d="M179.42 99.72L159.09 87.99H142.09L148.33 89.66C149.599 90 150.788 90.5865 151.83 91.3862C152.872 92.1859 153.746 93.1829 154.402 94.3205C155.059 95.4581 155.485 96.7138 155.656 98.016C155.827 99.3182 155.74 100.641 155.4 101.91L125.63 212.99L183.09 113.37C184.412 111.073 184.768 108.345 184.08 105.785C183.392 103.226 181.716 101.044 179.42 99.72Z" fill="#345FAC"/>
<path opacity="0.5" d="M179.42 99.72L159.09 87.99H142.09L148.33 89.66C149.599 90 150.788 90.5865 151.83 91.3862C152.872 92.1859 153.746 93.1829 154.402 94.3205C155.059 95.4581 155.485 96.7138 155.656 98.016C155.827 99.3182 155.74 100.641 155.4 101.91L125.63 212.99L183.09 113.37C184.412 111.073 184.768 108.345 184.08 105.785C183.392 103.226 181.716 101.044 179.42 99.72Z" fill="#345FAC"/>
<path opacity="0.5" d="M179.42 99.72L159.09 87.99H142.09L148.33 89.66C149.599 90 150.788 90.5865 151.83 91.3862C152.872 92.1859 153.746 93.1829 154.402 94.3205C155.059 95.4581 155.485 96.7138 155.656 98.016C155.827 99.3182 155.74 100.641 155.4 101.91L125.63 212.99L183.09 113.37C184.412 111.073 184.768 108.345 184.08 105.785C183.392 103.226 181.716 101.044 179.42 99.72Z" fill="#345FAC"/>
<path opacity="0.5" d="M179.42 99.72L159.09 87.99H142.09L148.33 89.66C149.599 90 150.788 90.5865 151.83 91.3862C152.872 92.1859 153.746 93.1829 154.402 94.3205C155.059 95.4581 155.485 96.7138 155.656 98.016C155.827 99.3182 155.74 100.641 155.4 101.91L125.63 212.99L183.09 113.37C184.412 111.073 184.768 108.345 184.08 105.785C183.392 103.226 181.716 101.044 179.42 99.72Z" fill="#345FAC"/>
<path d="M179.42 99.72L159.09 87.99H142.09L148.33 89.66C149.599 90 150.788 90.5865 151.83 91.3862C152.872 92.1859 153.746 93.1829 154.402 94.3205C155.059 95.4581 155.485 96.7138 155.656 98.016C155.827 99.3182 155.74 100.641 155.4 101.91L125.63 212.99L183.09 113.37C184.412 111.073 184.768 108.345 184.08 105.785C183.392 103.226 181.716 101.044 179.42 99.72Z" fill="#002EBE"/>
<path opacity="0.5" d="M109.15 87.9899H142.09L125.61 83.5699L109.15 87.9899Z" fill="#345FAC"/>
<path opacity="0.5" d="M109.15 87.9899H142.09L125.61 83.5699L109.15 87.9899Z" fill="#345FAC"/>
<path opacity="0.5" d="M109.15 87.9899H142.09L125.61 83.5699L109.15 87.9899Z" fill="#345FAC"/>
<path opacity="0.5" d="M109.15 87.9899H142.09L125.61 83.5699L109.15 87.9899Z" fill="#345FAC"/>
<path d="M109.15 87.9899H142.09L125.61 83.5699L109.15 87.9899Z" fill="#002EBE"/>
<path opacity="0.5" d="M148.32 89.66L142.08 87.99H109.14L102.88 89.67C101.611 90.01 100.422 90.5965 99.3801 91.3962C98.3382 92.1959 97.464 93.1929 96.8074 94.3305C96.1509 95.4681 95.7249 96.7238 95.5538 98.026C95.3826 99.3282 95.4697 100.651 95.8099 101.92L125.61 212.99L155.38 101.91C156.068 99.3493 155.71 96.6205 154.386 94.3233C153.062 92.0261 150.88 90.3488 148.32 89.66V89.66Z" fill="#345FAC"/>
<path opacity="0.5" d="M148.32 89.66L142.08 87.99H109.14L102.88 89.67C101.611 90.01 100.422 90.5965 99.3801 91.3962C98.3382 92.1959 97.464 93.1929 96.8074 94.3305C96.1509 95.4681 95.7249 96.7238 95.5538 98.026C95.3826 99.3282 95.4697 100.651 95.8099 101.92L125.61 212.99L155.38 101.91C156.068 99.3493 155.71 96.6205 154.386 94.3233C153.062 92.0261 150.88 90.3488 148.32 89.66V89.66Z" fill="#345FAC"/>
<path opacity="0.5" d="M148.32 89.66L142.08 87.99H109.14L102.88 89.67C101.611 90.01 100.422 90.5965 99.3801 91.3962C98.3382 92.1959 97.464 93.1929 96.8074 94.3305C96.1509 95.4681 95.7249 96.7238 95.5538 98.026C95.3826 99.3282 95.4697 100.651 95.8099 101.92L125.61 212.99L155.38 101.91C156.068 99.3493 155.71 96.6205 154.386 94.3233C153.062 92.0261 150.88 90.3488 148.32 89.66V89.66Z" fill="#345FAC"/>
<path opacity="0.5" d="M148.32 89.66L142.08 87.99H109.14L102.88 89.67C101.611 90.01 100.422 90.5965 99.3801 91.3962C98.3382 92.1959 97.464 93.1929 96.8074 94.3305C96.1509 95.4681 95.7249 96.7238 95.5538 98.026C95.3826 99.3282 95.4697 100.651 95.8099 101.92L125.61 212.99L155.38 101.91C156.068 99.3493 155.71 96.6205 154.386 94.3233C153.062 92.0261 150.88 90.3488 148.32 89.66V89.66Z" fill="#345FAC"/>
<path opacity="0.5" d="M148.32 89.66L142.08 87.99H109.14L102.88 89.67C101.611 90.01 100.422 90.5965 99.3801 91.3962C98.3382 92.1959 97.464 93.1929 96.8074 94.3305C96.1509 95.4681 95.7249 96.7238 95.5538 98.026C95.3826 99.3282 95.4697 100.651 95.8099 101.92L125.61 212.99L155.38 101.91C156.068 99.3493 155.71 96.6205 154.386 94.3233C153.062 92.0261 150.88 90.3488 148.32 89.66V89.66Z" fill="#345FAC"/>
<path d="M148.32 89.66L142.08 87.99H109.14L102.88 89.67C101.611 90.01 100.422 90.5965 99.3801 91.3962C98.3382 92.1959 97.464 93.1929 96.8074 94.3305C96.1509 95.4681 95.7249 96.7238 95.5538 98.026C95.3826 99.3282 95.4697 100.651 95.8099 101.92L125.61 212.99L155.38 101.91C156.068 99.3493 155.71 96.6205 154.386 94.3233C153.062 92.0261 150.88 90.3488 148.32 89.66V89.66Z" fill="#0020B1"/>
<path d="M225.56 52.76C232.74 52.76 238.56 46.9397 238.56 39.76C238.56 32.5803 232.74 26.76 225.56 26.76C218.38 26.76 212.56 32.5803 212.56 39.76C212.56 46.9397 218.38 52.76 225.56 52.76Z" fill="#FFBC00"/>
<path d="M125.61 109.07C117.87 116.46 102.39 135.17 102.39 150.91C102.391 153.958 102.993 156.976 104.161 159.791C105.328 162.607 107.039 165.165 109.195 167.319C111.351 169.473 113.911 171.182 116.727 172.347C119.544 173.512 122.562 174.111 125.61 174.11C128.662 174.117 131.685 173.521 134.507 172.359C137.328 171.196 139.893 169.488 142.054 167.334C144.215 165.179 145.931 162.619 147.102 159.801C148.273 156.983 148.877 153.962 148.88 150.91C148.88 135.17 133.35 116.46 125.61 109.07Z" fill="white"/>
<path d="M67.14 239.87L51.88 296.74C51.8282 296.905 51.7217 297.047 51.5781 297.144C51.4344 297.24 51.2623 297.285 51.0899 297.27H41.3599C41.1884 297.274 41.0198 297.225 40.8768 297.13C40.7338 297.036 40.6233 296.899 40.56 296.74L34.56 274.36L26.42 296.83C26.3851 296.965 26.3037 297.083 26.1903 297.163C26.0768 297.244 25.9386 297.281 25.8 297.27H16.42C16.2574 297.283 16.0955 297.237 15.9648 297.139C15.8341 297.041 15.7435 296.9 15.7099 296.74L0.589915 239.74C0.563293 239.626 0.564679 239.506 0.593944 239.393C0.623208 239.279 0.67948 239.174 0.758006 239.086C0.836532 238.999 0.934984 238.932 1.04499 238.891C1.155 238.85 1.27338 238.836 1.38996 238.85H11.56C11.7022 238.872 11.8353 238.934 11.9448 239.027C12.0542 239.121 12.1356 239.243 12.18 239.38L21.9899 276.89L29.3399 254.69L25.27 239.83C25.2299 239.717 25.2177 239.595 25.2343 239.476C25.251 239.357 25.2959 239.244 25.3655 239.146C25.4352 239.048 25.5273 238.968 25.6342 238.913C25.7412 238.858 25.8597 238.829 25.9799 238.83H36.9799C37.3399 238.83 37.51 238.92 37.69 239.36L45.8299 275.45L55.56 239.36C55.6106 239.21 55.7055 239.079 55.8323 238.984C55.9592 238.89 56.1118 238.836 56.27 238.83H66.44C66.5671 238.82 66.6946 238.844 66.8094 238.899C66.9242 238.955 67.0221 239.04 67.0933 239.146C67.1645 239.251 67.2064 239.374 67.2145 239.502C67.2227 239.629 67.197 239.756 67.14 239.87V239.87Z" fill="white"/>
<path d="M80.94 296.48V239.69C80.9304 239.59 80.9414 239.489 80.9725 239.394C81.0036 239.298 81.0539 239.21 81.1206 239.135C81.1872 239.06 81.2686 239 81.3597 238.957C81.4508 238.915 81.5496 238.892 81.65 238.89H111.72C111.932 238.89 112.136 238.974 112.286 239.124C112.436 239.274 112.52 239.478 112.52 239.69V249.16C112.52 249.265 112.499 249.368 112.459 249.465C112.419 249.561 112.359 249.649 112.285 249.722C112.211 249.796 112.122 249.854 112.025 249.893C111.928 249.932 111.825 249.951 111.72 249.95H92.62V261.95H107.48C107.581 261.951 107.68 261.973 107.772 262.014C107.864 262.056 107.946 262.117 108.013 262.192C108.08 262.267 108.13 262.356 108.161 262.452C108.191 262.548 108.201 262.65 108.19 262.75V272.39C108.2 272.489 108.189 272.59 108.157 272.685C108.126 272.78 108.076 272.867 108.009 272.941C107.942 273.016 107.861 273.075 107.77 273.116C107.678 273.157 107.58 273.179 107.48 273.18H92.62V286.18H111.72C111.825 286.179 111.928 286.198 112.025 286.237C112.122 286.276 112.211 286.334 112.285 286.408C112.359 286.481 112.419 286.569 112.459 286.665C112.499 286.762 112.52 286.865 112.52 286.97V296.44C112.52 296.545 112.499 296.648 112.459 296.745C112.419 296.841 112.359 296.929 112.285 297.002C112.211 297.076 112.122 297.134 112.025 297.173C111.928 297.212 111.825 297.231 111.72 297.23H81.65C81.5537 297.229 81.4587 297.208 81.3704 297.17C81.2822 297.131 81.2026 297.075 81.1364 297.005C81.0702 296.935 81.0188 296.853 80.9851 296.762C80.9513 296.672 80.936 296.576 80.94 296.48V296.48Z" fill="white"/>
<path d="M139.06 239.69V286.13H158.16C158.265 286.129 158.37 286.148 158.468 286.188C158.565 286.228 158.654 286.287 158.729 286.361C158.803 286.436 158.862 286.525 158.902 286.622C158.942 286.72 158.961 286.825 158.96 286.93V296.48C158.96 296.585 158.939 296.688 158.899 296.785C158.859 296.881 158.799 296.969 158.725 297.042C158.651 297.116 158.562 297.174 158.465 297.213C158.368 297.252 158.265 297.271 158.16 297.27H128.16C128.06 297.269 127.961 297.247 127.87 297.206C127.779 297.165 127.698 297.106 127.631 297.031C127.564 296.957 127.514 296.87 127.482 296.775C127.451 296.68 127.44 296.579 127.45 296.48V239.69C127.44 239.59 127.451 239.489 127.482 239.394C127.513 239.298 127.564 239.21 127.631 239.135C127.697 239.06 127.779 239 127.87 238.957C127.961 238.915 128.06 238.892 128.16 238.89H138.24C138.347 238.887 138.453 238.906 138.552 238.945C138.652 238.984 138.742 239.043 138.819 239.117C138.895 239.192 138.956 239.281 138.997 239.379C139.039 239.478 139.06 239.583 139.06 239.69V239.69Z" fill="white"/>
<path d="M182.93 239.69V286.13H202.04C202.252 286.13 202.456 286.214 202.606 286.364C202.756 286.514 202.84 286.718 202.84 286.93V296.48C202.84 296.585 202.819 296.688 202.779 296.785C202.739 296.881 202.679 296.969 202.605 297.042C202.531 297.116 202.442 297.174 202.345 297.213C202.248 297.252 202.145 297.271 202.04 297.27H172.04C171.94 297.269 171.842 297.248 171.752 297.206C171.661 297.165 171.58 297.105 171.514 297.031C171.448 296.956 171.398 296.869 171.368 296.774C171.338 296.679 171.329 296.579 171.34 296.48V239.69C171.329 239.591 171.339 239.49 171.368 239.395C171.398 239.299 171.448 239.211 171.514 239.136C171.579 239.06 171.66 239 171.751 238.957C171.842 238.915 171.94 238.892 172.04 238.89H182.13C182.235 238.889 182.34 238.908 182.438 238.948C182.535 238.988 182.624 239.047 182.699 239.121C182.773 239.196 182.832 239.285 182.872 239.382C182.912 239.48 182.931 239.585 182.93 239.69V239.69Z" fill="white"/>
<path d="M250.6 278.79C250.665 283.069 249.499 287.276 247.24 290.91C243.97 295.77 238.84 298.16 231.76 298.16C224.24 298.16 215.49 294.53 212.76 286.31C212.716 286.179 212.719 286.036 212.768 285.907C212.818 285.777 212.91 285.669 213.03 285.6L221.17 278.6C221.254 278.527 221.352 278.473 221.459 278.443C221.565 278.412 221.677 278.405 221.787 278.422C221.896 278.439 222.001 278.48 222.093 278.542C222.185 278.604 222.263 278.685 222.32 278.78C222.49 279.22 222.85 279.93 223.32 280.78C224.65 283.52 227.83 286.27 231.37 286.27C234.11 286.27 237.83 284.76 237.83 280.52C237.83 276.45 232.25 274.15 228.83 272.82C224.651 271.272 220.764 269.03 217.33 266.19C213.7 262.82 211.93 259.11 211.93 254.69C211.93 243.63 222.1 238.06 231.74 238.06C239.35 238.06 245.01 242.06 248.74 249.91C248.821 250.082 248.838 250.276 248.789 250.46C248.739 250.643 248.626 250.802 248.47 250.91L240.6 256.4C240.25 256.57 240.07 256.57 239.71 256.13C236.71 251.8 234.05 249.76 230.51 249.76C228.66 249.76 224.32 250.47 224.32 253.76C224.32 257.76 231.67 259.76 235.2 261.46C241.88 264.63 250.6 269.68 250.6 278.79Z" fill="white"/>
<path d="M24.71 387.29C24.7086 387.203 24.7248 387.116 24.7574 387.036C24.7901 386.955 24.8387 386.882 24.9003 386.82C24.9618 386.759 25.0352 386.71 25.1158 386.677C25.1965 386.645 25.2829 386.629 25.37 386.63H33.8C33.8876 386.629 33.9744 386.645 34.0557 386.677C34.1369 386.71 34.2108 386.758 34.2732 386.82C34.3355 386.881 34.385 386.954 34.4188 387.035C34.4526 387.116 34.47 387.202 34.47 387.29V391.95C34.47 402.82 28.63 407.4 17.61 407.4C7.32999 407.4 0.609985 403.34 0.609985 391.95V372.5C0.609985 361.56 6.60999 357.2 17.61 357.2C28.03 357.2 34.47 361.2 34.47 372.5V374.06C34.47 374.147 34.4526 374.234 34.4188 374.315C34.385 374.396 34.3355 374.469 34.2732 374.53C34.2108 374.592 34.1369 374.64 34.0557 374.673C33.9744 374.705 33.8876 374.721 33.8 374.72H25.3C25.2125 374.721 25.1255 374.705 25.0443 374.673C24.9631 374.64 24.8891 374.592 24.8268 374.53C24.7644 374.469 24.7149 374.396 24.6812 374.315C24.6474 374.234 24.63 374.147 24.63 374.06V372.87C24.63 368.81 21.63 367.11 17.98 367.11H17.09C14.65 367.11 13.02 367.77 11.92 369.25C10.82 370.73 10.51 372.5 10.51 374.94V389.58C10.51 396.02 14.13 397.42 17.09 397.42H17.98C20.42 397.42 22.12 396.76 23.23 395.28C24.3133 393.584 24.8315 391.589 24.71 389.58V387.29Z" fill="white"/>
<path d="M68.6301 358.53C68.6287 358.442 68.6448 358.356 68.6774 358.274C68.71 358.193 68.7583 358.119 68.8198 358.057C68.8812 357.994 68.9545 357.945 69.0352 357.911C69.1159 357.877 69.2026 357.86 69.2901 357.86H77.72C77.808 357.86 77.8952 357.877 77.9765 357.911C78.0578 357.945 78.1316 357.994 78.1938 358.056C78.256 358.118 78.3054 358.192 78.339 358.274C78.3727 358.355 78.3901 358.442 78.3901 358.53V406C78.3901 406.088 78.3727 406.174 78.3389 406.255C78.3051 406.336 78.2555 406.409 78.1932 406.47C78.1308 406.532 78.057 406.58 77.9758 406.613C77.8945 406.645 77.8075 406.661 77.72 406.66H69.2901C69.203 406.661 69.1166 406.645 69.0359 406.613C68.9553 406.58 68.8819 406.531 68.8204 406.47C68.7588 406.408 68.7102 406.335 68.6775 406.254C68.6448 406.173 68.6287 406.087 68.6301 406V386.37H56.6301V406.04C56.6314 406.127 56.6153 406.213 56.5826 406.294C56.5499 406.375 56.5013 406.448 56.4397 406.51C56.3782 406.571 56.3049 406.62 56.2242 406.652C56.1435 406.685 56.0571 406.701 55.97 406.7H47.5401C47.4564 406.699 47.3738 406.681 47.2975 406.646C47.2213 406.612 47.1529 406.562 47.0966 406.5C47.0403 406.438 46.9974 406.366 46.9705 406.286C46.9436 406.207 46.9332 406.123 46.9401 406.04V358.53C46.9318 358.446 46.9409 358.361 46.9672 358.28C46.9935 358.2 47.0363 358.126 47.0927 358.063C47.1491 358 47.218 357.949 47.295 357.914C47.372 357.88 47.4555 357.861 47.5401 357.86H55.97C56.0575 357.86 56.1442 357.877 56.2249 357.911C56.3056 357.945 56.3789 357.994 56.4404 358.057C56.5018 358.119 56.5501 358.193 56.5827 358.274C56.6153 358.356 56.6314 358.442 56.6301 358.53V377.09H68.6301V358.53Z" fill="white"/>
<path d="M101.98 357.86H111.15C111.273 357.87 111.39 357.919 111.484 358C111.578 358.081 111.643 358.189 111.67 358.31L124.46 405.85C124.481 405.949 124.48 406.051 124.456 406.15C124.432 406.248 124.386 406.339 124.321 406.417C124.257 406.495 124.175 406.557 124.083 406.6C123.991 406.642 123.891 406.662 123.79 406.66H115.36C115.236 406.658 115.117 406.612 115.022 406.532C114.927 406.452 114.863 406.342 114.84 406.22L111.96 395.87H101.17L98.36 406.22C98.28 406.52 98.1301 406.66 97.8401 406.66H89.34C89.2389 406.662 89.1387 406.642 89.0467 406.6C88.9547 406.557 88.8735 406.495 88.809 406.417C88.7446 406.339 88.6986 406.248 88.6745 406.15C88.6504 406.051 88.6489 405.949 88.6701 405.85L101.46 358.31C101.486 358.189 101.551 358.079 101.645 357.998C101.738 357.917 101.856 357.868 101.98 357.86V357.86ZM109.67 386.7L106.49 375.54L103.49 386.7H109.67Z" fill="white"/>
<path d="M155.66 357.86H164.16C164.338 357.86 164.508 357.931 164.634 358.056C164.759 358.182 164.83 358.352 164.83 358.53V406C164.83 406.088 164.813 406.174 164.779 406.255C164.745 406.336 164.696 406.409 164.633 406.47C164.571 406.532 164.497 406.58 164.416 406.613C164.334 406.645 164.248 406.661 164.16 406.66H155.96C155.824 406.673 155.688 406.644 155.568 406.578C155.449 406.512 155.352 406.412 155.29 406.29L144.5 381.97V405.97C144.5 406.058 144.483 406.144 144.449 406.225C144.415 406.306 144.366 406.379 144.303 406.44C144.241 406.502 144.167 406.55 144.086 406.583C144.004 406.615 143.918 406.631 143.83 406.63H135.4C135.317 406.629 135.235 406.611 135.159 406.576C135.083 406.542 135.015 406.492 134.96 406.43C134.904 406.368 134.862 406.295 134.836 406.216C134.811 406.137 134.802 406.053 134.81 405.97V358.53C134.802 358.447 134.811 358.362 134.836 358.283C134.862 358.203 134.904 358.129 134.959 358.067C135.015 358.004 135.082 357.953 135.158 357.917C135.234 357.882 135.316 357.862 135.4 357.86H144.13C144.241 357.867 144.348 357.906 144.439 357.971C144.529 358.037 144.599 358.126 144.64 358.23L155 382.12V358.53C154.999 358.442 155.015 358.356 155.047 358.274C155.08 358.193 155.128 358.119 155.19 358.057C155.251 357.994 155.324 357.945 155.405 357.911C155.486 357.877 155.573 357.86 155.66 357.86V357.86Z" fill="white"/>
<path d="M193.37 388.25V380.37C193.37 380.282 193.387 380.196 193.421 380.115C193.455 380.034 193.504 379.961 193.567 379.9C193.629 379.838 193.703 379.79 193.784 379.757C193.866 379.725 193.952 379.709 194.04 379.71H210.97C211.057 379.709 211.143 379.725 211.224 379.757C211.305 379.79 211.378 379.839 211.44 379.9C211.501 379.962 211.55 380.035 211.583 380.116C211.615 380.196 211.631 380.283 211.63 380.37V391.98C211.63 402.85 205.79 407.43 194.78 407.43C184.5 407.43 177.78 403.37 177.78 391.98V372.5C177.78 361.78 183.78 357.2 194.78 357.2C205.13 357.2 211.63 361.2 211.63 372.5V374.06C211.631 374.147 211.615 374.233 211.583 374.314C211.55 374.395 211.501 374.468 211.44 374.53C211.378 374.591 211.305 374.64 211.224 374.672C211.143 374.705 211.057 374.721 210.97 374.72H202.47C202.383 374.721 202.296 374.705 202.214 374.673C202.133 374.64 202.059 374.592 201.997 374.53C201.934 374.469 201.885 374.396 201.851 374.315C201.817 374.234 201.8 374.147 201.8 374.06V373.06C201.8 368.55 198.92 367.06 195.15 367.06H194.26C191.82 367.06 190.19 367.72 189.08 369.2C187.97 370.68 187.68 372.45 187.68 374.89V389.53C187.68 395.97 191.15 397.37 194.26 397.37H195.15C199.66 397.37 201.8 394.27 201.8 389.53V388.87H194.04C193.871 388.87 193.707 388.807 193.583 388.692C193.459 388.577 193.383 388.419 193.37 388.25Z" fill="white"/>
<path d="M224.21 406V358.53C224.202 358.447 224.211 358.362 224.236 358.283C224.262 358.203 224.304 358.129 224.359 358.067C224.415 358.004 224.482 357.953 224.558 357.917C224.634 357.882 224.716 357.862 224.8 357.86H249.94C250.028 357.86 250.114 357.877 250.195 357.911C250.276 357.945 250.349 357.994 250.41 358.057C250.472 358.119 250.52 358.193 250.553 358.274C250.585 358.356 250.601 358.442 250.6 358.53V366.44C250.601 366.528 250.585 366.614 250.553 366.696C250.52 366.777 250.472 366.851 250.41 366.913C250.349 366.976 250.276 367.025 250.195 367.059C250.114 367.093 250.028 367.11 249.94 367.11H233.94V377.16H246.36C246.444 377.162 246.526 377.182 246.602 377.217C246.678 377.253 246.745 377.304 246.801 377.367C246.856 377.429 246.898 377.503 246.924 377.583C246.949 377.662 246.958 377.747 246.95 377.83V385.89C246.958 385.973 246.949 386.057 246.924 386.136C246.898 386.215 246.856 386.288 246.8 386.35C246.745 386.412 246.677 386.462 246.601 386.496C246.525 386.531 246.443 386.549 246.36 386.55H233.94V397.42H249.94C250.028 397.42 250.114 397.437 250.195 397.471C250.276 397.505 250.349 397.554 250.41 397.617C250.472 397.679 250.52 397.753 250.553 397.834C250.585 397.916 250.601 398.002 250.6 398.09V406C250.601 406.087 250.585 406.173 250.553 406.254C250.52 406.335 250.471 406.408 250.41 406.47C250.348 406.531 250.275 406.58 250.194 406.613C250.113 406.645 250.027 406.661 249.94 406.66H224.8C224.717 406.659 224.635 406.641 224.559 406.606C224.483 406.572 224.415 406.522 224.36 406.46C224.304 406.398 224.262 406.325 224.236 406.246C224.211 406.167 224.202 406.083 224.21 406V406Z" fill="white"/>
<path d="M121.22 316.26C122.45 317.61 123.02 319.53 123.02 322.26V333C123.02 335.82 122.45 337.78 121.22 339.09C119.63 340.72 117.22 341.54 113.7 341.54C110.18 341.54 107.7 340.72 106.15 339.09C104.96 337.78 104.31 335.82 104.31 333V322.27C104.31 319.53 104.92 317.57 106.15 316.27C107.7 314.6 110.15 313.86 113.7 313.86C117.25 313.86 119.67 314.59 121.22 316.26ZM117.58 323.61C117.58 320.02 115.66 319.28 113.91 319.28H113.42C110.8 319.28 109.78 320.96 109.78 323.61V331.78C109.78 335.38 111.7 336.15 113.42 336.15H113.91C116.52 336.15 117.54 334.4 117.58 331.78V323.61Z" fill="white"/>
<path d="M130.93 341.14C130.884 341.137 130.84 341.126 130.799 341.106C130.758 341.086 130.721 341.057 130.691 341.023C130.662 340.988 130.639 340.948 130.625 340.905C130.611 340.861 130.606 340.815 130.61 340.77V314.55C130.604 314.504 130.608 314.458 130.622 314.414C130.635 314.37 130.658 314.329 130.688 314.294C130.718 314.259 130.755 314.231 130.797 314.211C130.839 314.192 130.884 314.181 130.93 314.18H144.82C144.869 314.179 144.918 314.187 144.963 314.205C145.009 314.223 145.05 314.251 145.085 314.285C145.119 314.32 145.147 314.361 145.165 314.407C145.183 314.452 145.191 314.501 145.19 314.55V318.92C145.19 318.968 145.18 319.016 145.162 319.06C145.143 319.104 145.116 319.145 145.081 319.178C145.047 319.212 145.006 319.238 144.961 319.255C144.916 319.273 144.868 319.281 144.82 319.28H136V324.84H142.88C142.927 324.84 142.973 324.849 143.016 324.868C143.059 324.887 143.097 324.915 143.129 324.95C143.16 324.985 143.183 325.027 143.197 325.071C143.211 325.116 143.216 325.163 143.21 325.21V329.66C143.214 329.706 143.209 329.753 143.194 329.797C143.179 329.841 143.156 329.882 143.125 329.916C143.094 329.951 143.056 329.979 143.014 329.999C142.972 330.018 142.926 330.029 142.88 330.03H136.02V340.77C136.02 340.868 135.981 340.962 135.912 341.032C135.842 341.101 135.748 341.14 135.65 341.14H130.93Z" fill="white"/>
<path d="M250.22 324.84H159.16C158.95 324.84 158.78 325.01 158.78 325.22V329.65C158.78 329.86 158.95 330.03 159.16 330.03H250.22C250.43 330.03 250.6 329.86 250.6 329.65V325.22C250.6 325.01 250.43 324.84 250.22 324.84Z" fill="white"/>
<path d="M90.35 324.84H0.989985C0.780116 324.84 0.609985 325.01 0.609985 325.22V329.65C0.609985 329.86 0.780116 330.03 0.989985 330.03H90.35C90.5599 330.03 90.73 329.86 90.73 329.65V325.22C90.73 325.01 90.5599 324.84 90.35 324.84Z" fill="white"/>
</g>
<defs>
<clipPath id="clip0_193:1914">
<rect width="250.049" height="407.43" fill="white" transform="translate(0.570923)"/>
</clipPath>
</defs>
</svg>
