<svg width="344" height="490" viewBox="0 0 344 490" fill="none" xmlns="http://www.w3.org/2000/svg">
<g clip-path="url(#clip0_193:1919)">
<path d="M323.86 0H20C8.9543 0 0 8.9543 0 20V469.36C0 480.406 8.9543 489.36 20 489.36H323.86C334.906 489.36 343.86 480.406 343.86 469.36V20C343.86 8.9543 334.906 0 323.86 0Z" fill="#231F20"/>
<path d="M171.93 66.98C179.11 66.98 184.93 61.1597 184.93 53.98C184.93 46.8003 179.11 40.98 171.93 40.98C164.75 40.98 158.93 46.8003 158.93 53.98C158.93 61.1597 164.75 66.98 171.93 66.98Z" fill="#FFBC00"/>
<path d="M71.9499 93.77C79.1297 93.77 84.9499 87.9497 84.9499 80.77C84.9499 73.5903 79.1297 67.77 71.9499 67.77C64.7702 67.77 58.95 73.5903 58.95 80.77C58.95 87.9497 64.7702 93.77 71.9499 93.77Z" fill="#FFBC00"/>
<path d="M120.1 73.8101C127.28 73.8101 133.1 67.9898 133.1 60.8101C133.1 53.6304 127.28 47.8101 120.1 47.8101C112.92 47.8101 107.1 53.6304 107.1 60.8101C107.1 67.9898 112.92 73.8101 120.1 73.8101Z" fill="#FFBC00"/>
<path d="M223.7 73.8C230.88 73.8 236.7 67.9798 236.7 60.8C236.7 53.6203 230.88 47.8 223.7 47.8C216.52 47.8 210.7 53.6203 210.7 60.8C210.7 67.9798 216.52 73.8 223.7 73.8Z" fill="#FFBC00"/>
<path d="M53.7802 211.96L76.0201 128.96H56.9302C54.278 128.96 51.7344 130.014 49.859 131.889C47.9836 133.765 46.9302 136.308 46.9302 138.96V243.96C46.9302 246.612 47.9836 249.156 49.859 251.031C51.7344 252.907 54.278 253.96 56.9302 253.96H171.93L60.8801 224.2C59.6098 223.863 58.4184 223.279 57.3739 222.482C56.3294 221.684 55.4525 220.689 54.7931 219.552C54.1337 218.415 53.7048 217.159 53.531 215.857C53.3572 214.554 53.4419 213.23 53.7802 211.96Z" fill="#88B8F2"/>
<path d="M286.93 128.97H267.81L290.06 211.92C290.748 214.481 290.39 217.21 289.066 219.507C287.742 221.804 285.56 223.481 283 224.17L171.93 253.97H286.93C289.582 253.97 292.126 252.917 294.001 251.041C295.876 249.166 296.93 246.622 296.93 243.97V138.97C296.93 136.318 295.876 133.775 294.001 131.899C292.126 130.024 289.582 128.97 286.93 128.97Z" fill="#88B8F2"/>
<path d="M192.5 97.77L179 84.27C178.071 83.3403 176.968 82.6029 175.754 82.0996C174.54 81.5964 173.239 81.3372 171.925 81.3372C170.611 81.3372 169.31 81.5964 168.096 82.0996C166.882 82.6029 165.779 83.3403 164.85 84.27L151.34 97.79L171.9 109.65L192.5 97.77Z" fill="#88B8F2"/>
<path d="M111.6 108.39L93.21 103.46C91.9407 103.12 90.6169 103.033 89.3142 103.205C88.0115 103.377 86.7553 103.804 85.6177 104.462C84.48 105.119 83.4832 105.994 82.684 107.037C81.8848 108.08 81.2989 109.271 80.96 110.54L76.02 128.97H99.73L111.6 108.39Z" fill="#88B8F2"/>
<path opacity="0.5" d="M68.6499 182.85L99.7299 128.97H76.0199L53.7799 211.97C53.0957 214.531 53.4559 217.258 54.7816 219.553C56.1073 221.849 58.2899 223.523 60.8499 224.21L171.93 253.98L72.3099 196.52C71.1714 195.863 70.1734 194.989 69.3732 193.946C68.5729 192.904 67.9861 191.713 67.6461 190.444C67.3062 189.174 67.2199 187.85 67.3921 186.547C67.5643 185.244 67.9918 183.988 68.6499 182.85Z" fill="#345FAC"/>
<path d="M68.6499 182.85L99.7299 128.97H76.0199L53.7799 211.97C53.0957 214.531 53.4559 217.258 54.7816 219.553C56.1073 221.849 58.2899 223.523 60.8499 224.21L171.93 253.98L72.3099 196.52C71.1714 195.863 70.1734 194.989 69.3732 193.946C68.5729 192.904 67.9861 191.713 67.6461 190.444C67.3062 189.174 67.2199 187.85 67.3921 186.547C67.5643 185.244 67.9918 183.988 68.6499 182.85Z" fill="#4484E4"/>
<path d="M151.34 97.7901L134.77 88.2303C133.632 87.5742 132.376 87.1486 131.074 86.9779C129.772 86.8072 128.448 86.8946 127.18 87.2355C125.911 87.5763 124.722 88.1636 123.681 88.964C122.64 89.7644 121.766 90.7622 121.11 91.9002L111.6 108.39L134.6 114.55L151.34 97.7901Z" fill="#88B8F2"/>
<path opacity="0.5" d="M154.28 119.83L171.91 109.65L151.34 97.78L134.58 114.55L154.28 119.83Z" fill="#345FAC"/>
<path d="M154.28 119.83L171.91 109.65L151.34 97.78L134.58 114.55L154.28 119.83Z" fill="#4484E4"/>
<path opacity="0.5" d="M120.15 128.97L134.58 114.55L111.6 108.39L99.73 128.97H120.15Z" fill="#345FAC"/>
<path d="M120.15 128.97L134.58 114.55L111.6 108.39L99.73 128.97H120.15Z" fill="#4484E4"/>
<path opacity="0.5" d="M90.61 158.51L120.15 128.97H99.73L68.6501 182.85C67.324 185.147 66.9646 187.877 67.651 190.438C68.3374 193 70.0134 195.184 72.3101 196.51L171.93 253.97L90.61 172.66C89.6802 171.731 88.9427 170.629 88.4395 169.415C87.9362 168.201 87.6772 166.899 87.6772 165.585C87.6772 164.271 87.9362 162.97 88.4395 161.756C88.9427 160.542 89.6802 159.439 90.61 158.51V158.51Z" fill="#345FAC"/>
<path opacity="0.5" d="M90.61 158.51L120.15 128.97H99.73L68.6501 182.85C67.324 185.147 66.9646 187.877 67.651 190.438C68.3374 193 70.0134 195.184 72.3101 196.51L171.93 253.97L90.61 172.66C89.6802 171.731 88.9427 170.629 88.4395 169.415C87.9362 168.201 87.6772 166.899 87.6772 165.585C87.6772 164.271 87.9362 162.97 88.4395 161.756C88.9427 160.542 89.6802 159.439 90.61 158.51V158.51Z" fill="#345FAC"/>
<path d="M90.61 158.51L120.15 128.97H99.73L68.6501 182.85C67.324 185.147 66.9646 187.877 67.651 190.438C68.3374 193 70.0134 195.184 72.3101 196.51L171.93 253.97L90.61 172.66C89.6802 171.731 88.9427 170.629 88.4395 169.415C87.9362 168.201 87.6772 166.899 87.6772 165.585C87.6772 164.271 87.9362 162.97 88.4395 161.756C88.9427 160.542 89.6802 159.439 90.61 158.51V158.51Z" fill="#1C5ED7"/>
<path opacity="0.5" d="M134.58 114.55L120.15 128.97H138.44L154.28 119.83L134.58 114.55Z" fill="#345FAC"/>
<path opacity="0.5" d="M134.58 114.55L120.15 128.97H138.44L154.28 119.83L134.58 114.55Z" fill="#345FAC"/>
<path d="M134.58 114.55L120.15 128.97H138.44L154.28 119.83L134.58 114.55Z" fill="#1C5ED7"/>
<path opacity="0.5" d="M118.09 140.72L138.44 128.97H120.15L90.6101 158.51C89.6803 159.439 88.9428 160.542 88.4396 161.756C87.9363 162.97 87.6772 164.271 87.6772 165.585C87.6772 166.899 87.9363 168.201 88.4396 169.415C88.9428 170.629 89.6803 171.731 90.6101 172.66L171.93 253.97L114.43 154.38C113.104 152.083 112.745 149.354 113.431 146.792C114.118 144.231 115.793 142.046 118.09 140.72V140.72Z" fill="#345FAC"/>
<path opacity="0.5" d="M118.09 140.72L138.44 128.97H120.15L90.6101 158.51C89.6803 159.439 88.9428 160.542 88.4396 161.756C87.9363 162.97 87.6772 164.271 87.6772 165.585C87.6772 166.899 87.9363 168.201 88.4396 169.415C88.9428 170.629 89.6803 171.731 90.6101 172.66L171.93 253.97L114.43 154.38C113.104 152.083 112.745 149.354 113.431 146.792C114.118 144.231 115.793 142.046 118.09 140.72V140.72Z" fill="#345FAC"/>
<path opacity="0.5" d="M118.09 140.72L138.44 128.97H120.15L90.6101 158.51C89.6803 159.439 88.9428 160.542 88.4396 161.756C87.9363 162.97 87.6772 164.271 87.6772 165.585C87.6772 166.899 87.9363 168.201 88.4396 169.415C88.9428 170.629 89.6803 171.731 90.6101 172.66L171.93 253.97L114.43 154.38C113.104 152.083 112.745 149.354 113.431 146.792C114.118 144.231 115.793 142.046 118.09 140.72V140.72Z" fill="#345FAC"/>
<path d="M118.09 140.72L138.44 128.97H120.15L90.6101 158.51C89.6803 159.439 88.9428 160.542 88.4396 161.756C87.9363 162.97 87.6772 164.271 87.6772 165.585C87.6772 166.899 87.9363 168.201 88.4396 169.415C88.9428 170.629 89.6803 171.731 90.6101 172.66L171.93 253.97L114.43 154.38C113.104 152.083 112.745 149.354 113.431 146.792C114.118 144.231 115.793 142.046 118.09 140.72V140.72Z" fill="#0442CA"/>
<path d="M232.21 108.38L222.69 91.88C221.364 89.5833 219.18 87.9075 216.618 87.2211C214.056 86.5347 211.327 86.8941 209.03 88.2201L192.5 97.7699L209.26 114.53L232.21 108.38Z" fill="#88B8F2"/>
<path opacity="0.5" d="M189.54 119.82L209.27 114.53L192.5 97.76L171.91 109.65L189.54 119.82Z" fill="#345FAC"/>
<path d="M189.54 119.82L209.27 114.53L192.5 97.76L171.91 109.65L189.54 119.82Z" fill="#4484E4"/>
<path opacity="0.5" d="M189.54 119.82L171.91 109.65L154.28 119.83L171.91 124.55L189.54 119.82Z" fill="#345FAC"/>
<path opacity="0.5" d="M189.54 119.82L171.91 109.65L154.28 119.83L171.91 124.55L189.54 119.82Z" fill="#345FAC"/>
<path d="M189.54 119.82L171.91 109.65L154.28 119.83L171.91 124.55L189.54 119.82Z" fill="#1C5ED7"/>
<path opacity="0.5" d="M154.28 119.83L138.44 128.97H155.45L171.91 124.55L154.28 119.83Z" fill="#345FAC"/>
<path opacity="0.5" d="M154.28 119.83L138.44 128.97H155.45L171.91 124.55L154.28 119.83Z" fill="#345FAC"/>
<path opacity="0.5" d="M154.28 119.83L138.44 128.97H155.45L171.91 124.55L154.28 119.83Z" fill="#345FAC"/>
<path d="M154.28 119.83L138.44 128.97H155.45L171.91 124.55L154.28 119.83Z" fill="#0442CA"/>
<path opacity="0.5" d="M149.19 130.65L155.45 128.97H138.45L118.1 140.72C115.803 142.046 114.127 144.231 113.441 146.792C112.754 149.354 113.114 152.083 114.44 154.38L171.94 253.97L142.13 142.9C141.442 140.34 141.8 137.611 143.124 135.313C144.447 133.016 146.629 131.339 149.19 130.65V130.65Z" fill="#345FAC"/>
<path opacity="0.5" d="M149.19 130.65L155.45 128.97H138.45L118.1 140.72C115.803 142.046 114.127 144.231 113.441 146.792C112.754 149.354 113.114 152.083 114.44 154.38L171.94 253.97L142.13 142.9C141.442 140.34 141.8 137.611 143.124 135.313C144.447 133.016 146.629 131.339 149.19 130.65V130.65Z" fill="#345FAC"/>
<path opacity="0.5" d="M149.19 130.65L155.45 128.97H138.45L118.1 140.72C115.803 142.046 114.127 144.231 113.441 146.792C112.754 149.354 113.114 152.083 114.44 154.38L171.94 253.97L142.13 142.9C141.442 140.34 141.8 137.611 143.124 135.313C144.447 133.016 146.629 131.339 149.19 130.65V130.65Z" fill="#345FAC"/>
<path opacity="0.5" d="M149.19 130.65L155.45 128.97H138.45L118.1 140.72C115.803 142.046 114.127 144.231 113.441 146.792C112.754 149.354 113.114 152.083 114.44 154.38L171.94 253.97L142.13 142.9C141.442 140.34 141.8 137.611 143.124 135.313C144.447 133.016 146.629 131.339 149.19 130.65V130.65Z" fill="#345FAC"/>
<path d="M149.19 130.65L155.45 128.97H138.45L118.1 140.72C115.803 142.046 114.127 144.231 113.441 146.792C112.754 149.354 113.114 152.083 114.44 154.38L171.94 253.97L142.13 142.9C141.442 140.34 141.8 137.611 143.124 135.313C144.447 133.016 146.629 131.339 149.19 130.65V130.65Z" fill="#002EBE"/>
<path d="M267.81 128.97L262.81 110.51C262.47 109.241 261.883 108.052 261.084 107.01C260.284 105.968 259.287 105.094 258.149 104.438C257.012 103.781 255.756 103.355 254.454 103.184C253.152 103.013 251.829 103.1 250.56 103.44L232.17 108.38L244.06 128.97H267.81Z" fill="#88B8F2"/>
<path opacity="0.5" d="M290.06 211.92L267.81 128.97H244.1L275.18 182.82C276.506 185.117 276.865 187.846 276.179 190.408C275.493 192.97 273.817 195.154 271.52 196.48L171.93 253.97L283 224.17C285.56 223.481 287.742 221.804 289.066 219.507C290.39 217.21 290.748 214.481 290.06 211.92V211.92Z" fill="#345FAC"/>
<path d="M290.06 211.92L267.81 128.97H244.1L275.18 182.82C276.506 185.117 276.865 187.846 276.179 190.408C275.493 192.97 273.817 195.154 271.52 196.48L171.93 253.97L283 224.17C285.56 223.481 287.742 221.804 289.066 219.507C290.39 217.21 290.748 214.481 290.06 211.92V211.92Z" fill="#4484E4"/>
<path opacity="0.5" d="M223.71 128.97H244.1L232.21 108.37L209.27 114.53L223.71 128.97Z" fill="#345FAC"/>
<path d="M223.71 128.97H244.1L232.21 108.37L209.27 114.53L223.71 128.97Z" fill="#4484E4"/>
<path opacity="0.5" d="M275.18 182.82L244.1 128.97H223.7L253.24 158.51C254.17 159.439 254.907 160.542 255.411 161.756C255.914 162.97 256.173 164.271 256.173 165.585C256.173 166.899 255.914 168.201 255.411 169.415C254.907 170.629 254.17 171.731 253.24 172.66L171.93 253.97L271.52 196.48C273.817 195.154 275.493 192.97 276.179 190.408C276.865 187.846 276.506 185.117 275.18 182.82V182.82Z" fill="#345FAC"/>
<path opacity="0.5" d="M275.18 182.82L244.1 128.97H223.7L253.24 158.51C254.17 159.439 254.907 160.542 255.411 161.756C255.914 162.97 256.173 164.271 256.173 165.585C256.173 166.899 255.914 168.201 255.411 169.415C254.907 170.629 254.17 171.731 253.24 172.66L171.93 253.97L271.52 196.48C273.817 195.154 275.493 192.97 276.179 190.408C276.865 187.846 276.506 185.117 275.18 182.82V182.82Z" fill="#345FAC"/>
<path d="M275.18 182.82L244.1 128.97H223.7L253.24 158.51C254.17 159.439 254.907 160.542 255.411 161.756C255.914 162.97 256.173 164.271 256.173 165.585C256.173 166.899 255.914 168.201 255.411 169.415C254.907 170.629 254.17 171.731 253.24 172.66L171.93 253.97L271.52 196.48C273.817 195.154 275.493 192.97 276.179 190.408C276.865 187.846 276.506 185.117 275.18 182.82V182.82Z" fill="#1C5ED7"/>
<path opacity="0.5" d="M189.54 119.82L205.4 128.97H223.71L209.27 114.53L189.54 119.82Z" fill="#345FAC"/>
<path opacity="0.5" d="M189.54 119.82L205.4 128.97H223.71L209.27 114.53L189.54 119.82Z" fill="#345FAC"/>
<path d="M189.54 119.82L205.4 128.97H223.71L209.27 114.53L189.54 119.82Z" fill="#1C5ED7"/>
<path opacity="0.5" d="M253.24 158.51L223.7 128.97H205.4L225.73 140.7C228.027 142.026 229.703 144.21 230.389 146.772C231.075 149.334 230.716 152.063 229.39 154.36L171.93 253.97L253.24 172.66C254.17 171.731 254.907 170.629 255.411 169.415C255.914 168.201 256.173 166.899 256.173 165.585C256.173 164.271 255.914 162.97 255.411 161.756C254.907 160.542 254.17 159.439 253.24 158.51Z" fill="#345FAC"/>
<path opacity="0.5" d="M253.24 158.51L223.7 128.97H205.4L225.73 140.7C228.027 142.026 229.703 144.21 230.389 146.772C231.075 149.334 230.716 152.063 229.39 154.36L171.93 253.97L253.24 172.66C254.17 171.731 254.907 170.629 255.411 169.415C255.914 168.201 256.173 166.899 256.173 165.585C256.173 164.271 255.914 162.97 255.411 161.756C254.907 160.542 254.17 159.439 253.24 158.51Z" fill="#345FAC"/>
<path opacity="0.5" d="M253.24 158.51L223.7 128.97H205.4L225.73 140.7C228.027 142.026 229.703 144.21 230.389 146.772C231.075 149.334 230.716 152.063 229.39 154.36L171.93 253.97L253.24 172.66C254.17 171.731 254.907 170.629 255.411 169.415C255.914 168.201 256.173 166.899 256.173 165.585C256.173 164.271 255.914 162.97 255.411 161.756C254.907 160.542 254.17 159.439 253.24 158.51Z" fill="#345FAC"/>
<path d="M253.24 158.51L223.7 128.97H205.4L225.73 140.7C228.027 142.026 229.703 144.21 230.389 146.772C231.075 149.334 230.716 152.063 229.39 154.36L171.93 253.97L253.24 172.66C254.17 171.731 254.907 170.629 255.411 169.415C255.914 168.201 256.173 166.899 256.173 165.585C256.173 164.271 255.914 162.97 255.411 161.756C254.907 160.542 254.17 159.439 253.24 158.51Z" fill="#0442CA"/>
<path opacity="0.5" d="M171.91 124.55L188.39 128.97H205.4L189.54 119.82L171.91 124.55Z" fill="#345FAC"/>
<path opacity="0.5" d="M171.91 124.55L188.39 128.97H205.4L189.54 119.82L171.91 124.55Z" fill="#345FAC"/>
<path opacity="0.5" d="M171.91 124.55L188.39 128.97H205.4L189.54 119.82L171.91 124.55Z" fill="#345FAC"/>
<path d="M171.91 124.55L188.39 128.97H205.4L189.54 119.82L171.91 124.55Z" fill="#0442CA"/>
<path opacity="0.5" d="M225.73 140.7L205.4 128.97H188.4L194.64 130.65C197.2 131.337 199.383 133.012 200.708 135.307C202.034 137.602 202.394 140.33 201.71 142.89L171.94 253.97L229.4 154.36C230.056 153.222 230.482 151.966 230.652 150.664C230.823 149.362 230.735 148.038 230.395 146.77C230.054 145.501 229.466 144.312 228.666 143.271C227.866 142.23 226.868 141.356 225.73 140.7V140.7Z" fill="#345FAC"/>
<path opacity="0.5" d="M225.73 140.7L205.4 128.97H188.4L194.64 130.65C197.2 131.337 199.383 133.012 200.708 135.307C202.034 137.602 202.394 140.33 201.71 142.89L171.94 253.97L229.4 154.36C230.056 153.222 230.482 151.966 230.652 150.664C230.823 149.362 230.735 148.038 230.395 146.77C230.054 145.501 229.466 144.312 228.666 143.271C227.866 142.23 226.868 141.356 225.73 140.7V140.7Z" fill="#345FAC"/>
<path opacity="0.5" d="M225.73 140.7L205.4 128.97H188.4L194.64 130.65C197.2 131.337 199.383 133.012 200.708 135.307C202.034 137.602 202.394 140.33 201.71 142.89L171.94 253.97L229.4 154.36C230.056 153.222 230.482 151.966 230.652 150.664C230.823 149.362 230.735 148.038 230.395 146.77C230.054 145.501 229.466 144.312 228.666 143.271C227.866 142.23 226.868 141.356 225.73 140.7V140.7Z" fill="#345FAC"/>
<path opacity="0.5" d="M225.73 140.7L205.4 128.97H188.4L194.64 130.65C197.2 131.337 199.383 133.012 200.708 135.307C202.034 137.602 202.394 140.33 201.71 142.89L171.94 253.97L229.4 154.36C230.056 153.222 230.482 151.966 230.652 150.664C230.823 149.362 230.735 148.038 230.395 146.77C230.054 145.501 229.466 144.312 228.666 143.271C227.866 142.23 226.868 141.356 225.73 140.7V140.7Z" fill="#345FAC"/>
<path d="M225.73 140.7L205.4 128.97H188.4L194.64 130.65C197.2 131.337 199.383 133.012 200.708 135.307C202.034 137.602 202.394 140.33 201.71 142.89L171.94 253.97L229.4 154.36C230.056 153.222 230.482 151.966 230.652 150.664C230.823 149.362 230.735 148.038 230.395 146.77C230.054 145.501 229.466 144.312 228.666 143.271C227.866 142.23 226.868 141.356 225.73 140.7V140.7Z" fill="#002EBE"/>
<path opacity="0.5" d="M155.45 128.97H188.39L171.91 124.55L155.45 128.97Z" fill="#345FAC"/>
<path opacity="0.5" d="M155.45 128.97H188.39L171.91 124.55L155.45 128.97Z" fill="#345FAC"/>
<path opacity="0.5" d="M155.45 128.97H188.39L171.91 124.55L155.45 128.97Z" fill="#345FAC"/>
<path opacity="0.5" d="M155.45 128.97H188.39L171.91 124.55L155.45 128.97Z" fill="#345FAC"/>
<path d="M155.45 128.97H188.39L171.91 124.55L155.45 128.97Z" fill="#002EBE"/>
<path opacity="0.5" d="M194.63 130.65L188.39 128.97H155.45L149.19 130.65C147.921 130.99 146.732 131.577 145.69 132.376C144.648 133.176 143.774 134.173 143.118 135.311C142.461 136.448 142.035 137.704 141.864 139.006C141.693 140.308 141.78 141.632 142.12 142.9L171.93 253.97L201.7 142.89C202.384 140.33 202.024 137.602 200.698 135.307C199.373 133.012 197.19 131.337 194.63 130.65Z" fill="#345FAC"/>
<path opacity="0.5" d="M194.63 130.65L188.39 128.97H155.45L149.19 130.65C147.921 130.99 146.732 131.577 145.69 132.376C144.648 133.176 143.774 134.173 143.118 135.311C142.461 136.448 142.035 137.704 141.864 139.006C141.693 140.308 141.78 141.632 142.12 142.9L171.93 253.97L201.7 142.89C202.384 140.33 202.024 137.602 200.698 135.307C199.373 133.012 197.19 131.337 194.63 130.65Z" fill="#345FAC"/>
<path opacity="0.5" d="M194.63 130.65L188.39 128.97H155.45L149.19 130.65C147.921 130.99 146.732 131.577 145.69 132.376C144.648 133.176 143.774 134.173 143.118 135.311C142.461 136.448 142.035 137.704 141.864 139.006C141.693 140.308 141.78 141.632 142.12 142.9L171.93 253.97L201.7 142.89C202.384 140.33 202.024 137.602 200.698 135.307C199.373 133.012 197.19 131.337 194.63 130.65Z" fill="#345FAC"/>
<path opacity="0.5" d="M194.63 130.65L188.39 128.97H155.45L149.19 130.65C147.921 130.99 146.732 131.577 145.69 132.376C144.648 133.176 143.774 134.173 143.118 135.311C142.461 136.448 142.035 137.704 141.864 139.006C141.693 140.308 141.78 141.632 142.12 142.9L171.93 253.97L201.7 142.89C202.384 140.33 202.024 137.602 200.698 135.307C199.373 133.012 197.19 131.337 194.63 130.65Z" fill="#345FAC"/>
<path opacity="0.5" d="M194.63 130.65L188.39 128.97H155.45L149.19 130.65C147.921 130.99 146.732 131.577 145.69 132.376C144.648 133.176 143.774 134.173 143.118 135.311C142.461 136.448 142.035 137.704 141.864 139.006C141.693 140.308 141.78 141.632 142.12 142.9L171.93 253.97L201.7 142.89C202.384 140.33 202.024 137.602 200.698 135.307C199.373 133.012 197.19 131.337 194.63 130.65Z" fill="#345FAC"/>
<path d="M194.63 130.65L188.39 128.97H155.45L149.19 130.65C147.921 130.99 146.732 131.577 145.69 132.376C144.648 133.176 143.774 134.173 143.118 135.311C142.461 136.448 142.035 137.704 141.864 139.006C141.693 140.308 141.78 141.632 142.12 142.9L171.93 253.97L201.7 142.89C202.384 140.33 202.024 137.602 200.698 135.307C199.373 133.012 197.19 131.337 194.63 130.65Z" fill="#0020B1"/>
<path d="M271.86 93.74C279.04 93.74 284.86 87.9197 284.86 80.74C284.86 73.5603 279.04 67.74 271.86 67.74C264.68 67.74 258.86 73.5603 258.86 80.74C258.86 87.9197 264.68 93.74 271.86 93.74Z" fill="#FFBC00"/>
<path d="M171.88 150.05C164.14 157.44 148.66 176.15 148.66 191.89C148.656 194.941 149.254 197.964 150.419 200.784C151.584 203.604 153.294 206.166 155.451 208.325C157.608 210.484 160.169 212.196 162.988 213.363C165.807 214.531 168.829 215.131 171.88 215.13C178.037 215.133 183.942 212.69 188.299 208.34C192.655 203.989 195.105 198.087 195.11 191.93C195.14 176.13 179.66 157.44 171.88 150.05Z" fill="white"/>
<path d="M113.46 280.85L98.2501 337.72C98.1967 337.887 98.0888 338.031 97.9437 338.129C97.7986 338.227 97.6246 338.273 97.45 338.26H87.72C87.548 338.26 87.3797 338.209 87.2371 338.113C87.0945 338.017 86.9841 337.88 86.9201 337.72L80.9201 315.35L72.7801 337.81C72.7472 337.947 72.6667 338.067 72.553 338.15C72.4394 338.232 72.3001 338.271 72.1601 338.26H62.7901C62.6261 338.273 62.463 338.225 62.3321 338.126C62.2012 338.026 62.1114 337.882 62.08 337.72L46.95 280.72C46.9228 280.606 46.924 280.487 46.9532 280.374C46.9824 280.26 47.0389 280.156 47.1177 280.069C47.1966 279.982 47.2954 279.916 47.4056 279.876C47.5158 279.836 47.634 279.824 47.7501 279.84H57.8801C58.0235 279.859 58.1584 279.919 58.2684 280.014C58.3784 280.108 58.4589 280.231 58.5001 280.37L68.32 317.87L75.6601 295.67L71.59 280.81C71.5475 280.697 71.5334 280.575 71.549 280.455C71.5646 280.335 71.6093 280.22 71.6794 280.122C71.7495 280.023 71.8428 279.943 71.951 279.889C72.0592 279.834 72.1791 279.807 72.3001 279.81H83.3001C83.6501 279.81 83.8301 279.89 84.0001 280.34L92.1401 316.42L101.87 280.34C101.919 280.189 102.014 280.058 102.141 279.963C102.268 279.868 102.421 279.815 102.58 279.81H112.75C112.879 279.795 113.01 279.815 113.128 279.869C113.246 279.922 113.347 280.008 113.42 280.115C113.494 280.222 113.536 280.348 113.543 280.477C113.55 280.607 113.521 280.736 113.46 280.85V280.85Z" fill="white"/>
<path d="M127.26 337.46V280.67C127.25 280.571 127.261 280.47 127.293 280.375C127.324 280.281 127.374 280.193 127.441 280.119C127.508 280.045 127.589 279.985 127.68 279.944C127.771 279.903 127.87 279.881 127.97 279.88H158.05C158.26 279.88 158.46 279.963 158.609 280.112C158.757 280.26 158.84 280.461 158.84 280.67V290.13C158.84 290.34 158.757 290.541 158.609 290.689C158.46 290.837 158.26 290.92 158.05 290.92H138.94V302.92H153.8C153.9 302.922 153.999 302.945 154.09 302.988C154.181 303.03 154.263 303.09 154.329 303.165C154.396 303.24 154.446 303.328 154.478 303.424C154.509 303.519 154.52 303.62 154.51 303.72V313.36C154.52 313.46 154.509 313.561 154.478 313.656C154.446 313.752 154.396 313.84 154.329 313.915C154.263 313.99 154.181 314.051 154.09 314.093C153.999 314.135 153.9 314.158 153.8 314.16H138.94V327.16H158.05C158.26 327.16 158.46 327.243 158.609 327.392C158.757 327.54 158.84 327.741 158.84 327.95V337.42C158.841 337.525 158.822 337.629 158.783 337.726C158.744 337.823 158.686 337.911 158.612 337.985C158.539 338.06 158.451 338.119 158.355 338.159C158.258 338.199 158.155 338.22 158.05 338.22H127.97C127.873 338.218 127.778 338.196 127.69 338.156C127.602 338.116 127.522 338.059 127.456 337.989C127.39 337.918 127.339 337.835 127.305 337.744C127.271 337.653 127.256 337.557 127.26 337.46V337.46Z" fill="white"/>
<path d="M185.38 280.67V327.13H204.49C204.595 327.13 204.698 327.151 204.795 327.191C204.891 327.232 204.979 327.291 205.052 327.365C205.126 327.439 205.184 327.528 205.223 327.625C205.262 327.722 205.281 327.826 205.28 327.93V337.48C205.281 337.585 205.262 337.688 205.223 337.785C205.184 337.882 205.126 337.971 205.052 338.045C204.979 338.12 204.891 338.179 204.795 338.219C204.698 338.259 204.595 338.28 204.49 338.28H174.49C174.39 338.278 174.291 338.255 174.2 338.213C174.109 338.171 174.027 338.11 173.961 338.035C173.894 337.96 173.844 337.872 173.812 337.776C173.781 337.681 173.77 337.58 173.78 337.48V280.69C173.77 280.591 173.781 280.49 173.813 280.396C173.844 280.301 173.894 280.213 173.961 280.139C174.028 280.065 174.109 280.005 174.2 279.964C174.291 279.923 174.39 279.901 174.49 279.9H184.58C184.788 279.898 184.988 279.977 185.138 280.121C185.288 280.265 185.375 280.462 185.38 280.67V280.67Z" fill="white"/>
<path d="M229.26 280.67V327.13H248.36C248.465 327.129 248.57 327.149 248.668 327.188C248.765 327.228 248.854 327.287 248.929 327.361C249.003 327.436 249.062 327.525 249.102 327.622C249.141 327.72 249.161 327.825 249.16 327.93V337.48C249.16 337.585 249.139 337.689 249.099 337.786C249.059 337.884 249 337.972 248.926 338.046C248.851 338.12 248.763 338.179 248.666 338.219C248.569 338.26 248.465 338.28 248.36 338.28H218.36C218.26 338.278 218.161 338.255 218.07 338.213C217.979 338.171 217.897 338.11 217.831 338.035C217.764 337.96 217.713 337.872 217.682 337.776C217.651 337.681 217.64 337.58 217.65 337.48V280.69C217.64 280.591 217.651 280.491 217.682 280.396C217.714 280.301 217.764 280.213 217.831 280.139C217.898 280.065 217.979 280.005 218.07 279.964C218.161 279.923 218.26 279.901 218.36 279.9H228.44C228.544 279.896 228.649 279.913 228.747 279.95C228.845 279.986 228.935 280.042 229.011 280.114C229.087 280.185 229.148 280.272 229.191 280.367C229.234 280.463 229.257 280.566 229.26 280.67V280.67Z" fill="white"/>
<path d="M296.93 319.77C296.99 324.049 295.821 328.256 293.56 331.89C290.29 336.75 285.16 339.14 278.09 339.14C270.57 339.14 261.81 335.51 259.09 327.29C259.045 327.16 259.047 327.018 259.094 326.889C259.141 326.76 259.232 326.651 259.35 326.58L267.49 319.58C267.574 319.509 267.673 319.457 267.779 319.427C267.886 319.397 267.997 319.39 268.106 319.407C268.215 319.425 268.319 319.465 268.411 319.526C268.503 319.586 268.581 319.666 268.64 319.76C268.82 320.2 269.17 320.91 269.64 321.76C270.97 324.5 274.15 327.25 277.64 327.25C280.39 327.25 284.1 325.74 284.1 321.5C284.1 317.43 278.53 315.13 275.1 313.8C270.922 312.25 267.035 310.009 263.6 307.17C259.97 303.81 258.2 300.09 258.2 295.67C258.2 284.61 268.38 279.04 278.02 279.04C285.62 279.04 291.28 283.04 295.02 290.89C295.103 291.061 295.121 291.257 295.072 291.441C295.022 291.624 294.908 291.784 294.75 291.89L286.88 297.38C286.53 297.56 286.35 297.56 286 297.11C283 292.78 280.34 290.74 276.8 290.74C274.94 290.74 270.61 291.45 270.61 294.74C270.61 298.74 277.95 300.74 281.49 302.43C288.17 305.62 296.93 310.66 296.93 319.77Z" fill="white"/>
<path d="M71.0302 428.27C71.0302 428.095 71.0996 427.927 71.2234 427.803C71.3472 427.68 71.5151 427.61 71.6902 427.61H80.1201C80.2076 427.609 80.2945 427.625 80.3757 427.657C80.457 427.69 80.5309 427.738 80.5933 427.8C80.6556 427.861 80.7051 427.934 80.7389 428.015C80.7727 428.096 80.7902 428.182 80.7902 428.27V432.93C80.7902 443.8 74.9502 448.38 63.9302 448.38C53.6502 448.38 46.9302 444.32 46.9302 432.93V413.49C46.9302 402.49 52.9302 398.18 63.9302 398.18C74.3602 398.18 80.7902 402.18 80.7902 413.49V415.04C80.7902 415.128 80.7727 415.214 80.7389 415.295C80.7051 415.376 80.6556 415.449 80.5933 415.51C80.5309 415.572 80.457 415.62 80.3757 415.653C80.2945 415.685 80.2076 415.702 80.1201 415.7H71.6201C71.5331 415.702 71.4467 415.685 71.366 415.653C71.2853 415.62 71.2119 415.571 71.1504 415.51C71.0888 415.448 71.0403 415.375 71.0076 415.294C70.9749 415.214 70.9587 415.127 70.9601 415.04V413.86C70.9601 409.79 67.9602 408.09 64.3002 408.09H63.4102C60.9702 408.09 59.3501 408.75 58.2401 410.23C57.1301 411.71 56.8301 413.49 56.8301 415.93V430.57C56.8301 437 60.4602 438.4 63.4102 438.4H64.3002C66.7402 438.4 68.4402 437.74 69.5502 436.26C70.6321 434.567 71.1502 432.575 71.0302 430.57V428.27Z" fill="white"/>
<path d="M114.95 399.51C114.95 399.423 114.967 399.336 115.001 399.255C115.035 399.174 115.085 399.101 115.147 399.04C115.209 398.978 115.283 398.93 115.364 398.898C115.446 398.865 115.533 398.849 115.62 398.85H124.05C124.137 398.849 124.224 398.865 124.304 398.898C124.385 398.93 124.458 398.979 124.52 399.041C124.581 399.102 124.63 399.175 124.663 399.256C124.695 399.337 124.711 399.423 124.71 399.51V446.98C124.711 447.067 124.695 447.154 124.663 447.234C124.63 447.315 124.581 447.388 124.52 447.45C124.458 447.511 124.385 447.56 124.304 447.593C124.224 447.625 124.137 447.642 124.05 447.64H115.62C115.533 447.642 115.446 447.625 115.364 447.593C115.283 447.56 115.209 447.512 115.147 447.451C115.085 447.389 115.035 447.316 115.001 447.235C114.967 447.154 114.95 447.068 114.95 446.98V427.31H102.95V446.98C102.951 447.067 102.935 447.154 102.903 447.234C102.87 447.315 102.821 447.388 102.76 447.45C102.698 447.511 102.625 447.56 102.544 447.593C102.464 447.625 102.377 447.642 102.29 447.64H93.8801C93.7968 447.639 93.7147 447.621 93.6389 447.587C93.5631 447.552 93.4953 447.502 93.4398 447.44C93.3843 447.378 93.3423 447.305 93.3165 447.226C93.2907 447.147 93.2818 447.063 93.2901 446.98V399.51C93.2818 399.427 93.2907 399.344 93.3165 399.264C93.3423 399.185 93.3843 399.112 93.4398 399.05C93.4953 398.988 93.5631 398.938 93.6389 398.904C93.7147 398.869 93.7968 398.851 93.8801 398.85H102.31C102.397 398.849 102.484 398.865 102.564 398.898C102.645 398.93 102.718 398.979 102.78 399.041C102.841 399.102 102.89 399.175 102.923 399.256C102.955 399.337 102.971 399.423 102.97 399.51V418.07H114.97L114.95 399.51Z" fill="white"/>
<path d="M148.3 398.85H157.47C157.593 398.856 157.711 398.902 157.805 398.982C157.899 399.061 157.964 399.17 157.99 399.29L170.78 446.83C170.801 446.929 170.8 447.031 170.776 447.13C170.751 447.228 170.706 447.319 170.641 447.397C170.577 447.475 170.495 447.538 170.403 447.58C170.311 447.622 170.211 447.642 170.11 447.64H161.69C161.565 447.64 161.445 447.595 161.35 447.515C161.255 447.434 161.191 447.323 161.17 447.2L158.28 436.85H147.49L144.68 447.2C144.675 447.263 144.657 447.325 144.629 447.381C144.6 447.437 144.56 447.487 144.512 447.528C144.463 447.569 144.407 447.6 144.347 447.619C144.287 447.639 144.223 447.646 144.16 447.64H135.66C135.559 447.642 135.459 447.622 135.367 447.58C135.275 447.538 135.193 447.475 135.129 447.397C135.064 447.319 135.018 447.228 134.994 447.13C134.97 447.031 134.969 446.929 134.99 446.83L147.79 399.29C147.814 399.171 147.877 399.063 147.97 398.983C148.062 398.903 148.178 398.857 148.3 398.85V398.85ZM155.99 427.68L152.81 416.52L149.86 427.68H155.99Z" fill="white"/>
<path d="M201.98 398.85H210.49C210.577 398.849 210.663 398.865 210.744 398.898C210.825 398.93 210.898 398.979 210.96 399.041C211.021 399.102 211.07 399.175 211.103 399.256C211.135 399.337 211.151 399.423 211.15 399.51V446.98C211.151 447.067 211.135 447.154 211.103 447.234C211.07 447.315 211.021 447.388 210.96 447.45C210.898 447.511 210.825 447.56 210.744 447.593C210.663 447.625 210.577 447.641 210.49 447.64H202.28C202.144 447.651 202.008 447.622 201.889 447.557C201.77 447.491 201.673 447.391 201.61 447.27L190.82 422.95V446.95C190.82 447.038 190.803 447.124 190.769 447.205C190.735 447.286 190.685 447.359 190.623 447.42C190.561 447.482 190.487 447.53 190.406 447.563C190.324 447.595 190.237 447.611 190.15 447.61H181.72C181.637 447.609 181.555 447.591 181.479 447.556C181.403 447.522 181.335 447.472 181.28 447.41C181.224 447.348 181.182 447.275 181.156 447.196C181.131 447.117 181.122 447.033 181.13 446.95V399.48C181.122 399.397 181.131 399.314 181.156 399.234C181.182 399.155 181.224 399.082 181.28 399.02C181.335 398.958 181.403 398.908 181.479 398.874C181.555 398.839 181.637 398.821 181.72 398.82H190.45C190.563 398.825 190.672 398.863 190.764 398.929C190.857 398.994 190.928 399.085 190.97 399.19L201.32 423.07V399.48C201.325 399.31 201.397 399.148 201.521 399.03C201.644 398.912 201.809 398.847 201.98 398.85V398.85Z" fill="white"/>
<path d="M239.7 429.23V421.32C239.699 421.233 239.715 421.147 239.748 421.066C239.78 420.985 239.829 420.912 239.89 420.85C239.952 420.789 240.025 420.74 240.106 420.708C240.187 420.675 240.273 420.659 240.36 420.66H257.29C257.378 420.659 257.465 420.675 257.546 420.708C257.627 420.74 257.701 420.788 257.763 420.85C257.826 420.911 257.875 420.984 257.909 421.065C257.943 421.146 257.96 421.233 257.96 421.32V432.93C257.96 443.8 252.12 448.38 241.1 448.38C230.82 448.38 224.1 444.32 224.1 432.93V413.49C224.1 402.76 230.1 398.18 241.1 398.18C251.45 398.18 257.96 402.18 257.96 413.49V415.04C257.96 415.128 257.943 415.214 257.909 415.295C257.875 415.376 257.826 415.449 257.763 415.51C257.701 415.572 257.627 415.62 257.546 415.653C257.465 415.685 257.378 415.702 257.29 415.7H248.79C248.703 415.702 248.616 415.685 248.534 415.653C248.453 415.62 248.379 415.572 248.317 415.51C248.255 415.449 248.205 415.376 248.171 415.295C248.138 415.214 248.12 415.128 248.12 415.04V414.04C248.12 409.53 245.24 408.04 241.47 408.04H240.58C238.14 408.04 236.52 408.7 235.41 410.18C234.3 411.66 234 413.44 234 415.88V430.52C234 436.95 237.48 438.35 240.58 438.35H241.47C245.98 438.35 248.12 435.25 248.12 430.52V429.85H240.36C240.192 429.85 240.03 429.786 239.907 429.671C239.784 429.556 239.71 429.398 239.7 429.23V429.23Z" fill="white"/>
<path d="M270.53 446.98V399.51C270.522 399.427 270.531 399.344 270.557 399.264C270.582 399.185 270.624 399.112 270.68 399.05C270.735 398.988 270.803 398.938 270.879 398.904C270.955 398.869 271.037 398.851 271.12 398.85H296.26C296.348 398.849 296.434 398.865 296.516 398.898C296.597 398.93 296.671 398.978 296.733 399.04C296.796 399.101 296.845 399.174 296.879 399.255C296.913 399.336 296.93 399.423 296.93 399.51V407.42C296.93 407.508 296.913 407.595 296.879 407.677C296.845 407.758 296.796 407.832 296.734 407.894C296.672 407.956 296.598 408.005 296.517 408.039C296.435 408.073 296.348 408.09 296.26 408.09H280.26V418.13H292.68C292.764 418.133 292.846 418.152 292.922 418.188C292.998 418.223 293.066 418.274 293.121 418.337C293.176 418.4 293.218 418.473 293.244 418.553C293.269 418.633 293.278 418.717 293.27 418.8V426.86C293.278 426.943 293.269 427.027 293.244 427.106C293.218 427.185 293.176 427.258 293.12 427.32C293.065 427.382 292.997 427.432 292.921 427.466C292.845 427.501 292.763 427.519 292.68 427.52H280.26V438.39H296.26C296.438 438.39 296.608 438.461 296.734 438.587C296.859 438.712 296.93 438.882 296.93 439.06V446.97C296.93 447.058 296.913 447.144 296.879 447.225C296.845 447.306 296.796 447.379 296.733 447.441C296.671 447.502 296.597 447.55 296.516 447.583C296.434 447.615 296.348 447.632 296.26 447.63H271.12C271.038 447.629 270.957 447.611 270.881 447.577C270.806 447.543 270.739 447.494 270.684 447.433C270.628 447.372 270.586 447.301 270.56 447.223C270.533 447.145 270.523 447.062 270.53 446.98V446.98Z" fill="white"/>
<path d="M167.54 357.24C168.77 358.59 169.34 360.51 169.34 363.24V373.98C169.34 376.8 168.77 378.76 167.54 380.07C165.95 381.7 163.54 382.52 160.03 382.52C156.52 382.52 154.03 381.7 152.47 380.07C151.29 378.76 150.63 376.8 150.63 373.98V363.24C150.63 360.5 151.25 358.54 152.47 357.24C154.02 355.57 156.47 354.83 160.03 354.83C163.59 354.83 165.99 355.57 167.54 357.24ZM163.91 364.6C163.91 361 161.99 360.27 160.23 360.27H159.74C157.13 360.27 156.11 361.94 156.11 364.6V372.77C156.11 376.36 158.03 377.14 159.74 377.14H160.23C162.85 377.14 163.87 375.38 163.91 372.77V364.6Z" fill="white"/>
<path d="M177.26 382.13C177.213 382.13 177.167 382.121 177.124 382.102C177.081 382.083 177.042 382.055 177.011 382.02C176.98 381.985 176.957 381.943 176.943 381.899C176.929 381.854 176.924 381.807 176.93 381.76V355.53C176.924 355.483 176.929 355.436 176.943 355.392C176.957 355.347 176.98 355.306 177.011 355.271C177.042 355.236 177.081 355.208 177.124 355.188C177.167 355.169 177.213 355.16 177.26 355.16H191.15C191.198 355.16 191.246 355.17 191.29 355.188C191.334 355.207 191.375 355.235 191.408 355.269C191.442 355.304 191.468 355.345 191.485 355.389C191.503 355.434 191.511 355.482 191.51 355.53V359.9C191.51 359.997 191.472 360.089 191.405 360.158C191.338 360.227 191.246 360.267 191.15 360.27H182.32V365.82H189.18C189.227 365.82 189.273 365.829 189.316 365.848C189.359 365.867 189.397 365.895 189.429 365.93C189.46 365.965 189.483 366.007 189.497 366.052C189.511 366.096 189.516 366.144 189.51 366.19V370.64C189.516 370.687 189.511 370.734 189.497 370.779C189.483 370.824 189.46 370.865 189.429 370.9C189.397 370.935 189.359 370.963 189.316 370.982C189.273 371.001 189.227 371.01 189.18 371.01H182.32V381.75C182.321 381.799 182.313 381.848 182.295 381.893C182.277 381.939 182.249 381.98 182.215 382.015C182.18 382.05 182.139 382.077 182.093 382.095C182.048 382.113 181.999 382.122 181.95 382.12L177.26 382.13Z" fill="white"/>
<path d="M296.55 365.82H205.49C205.28 365.82 205.11 365.99 205.11 366.2V370.63C205.11 370.84 205.28 371.01 205.49 371.01H296.55C296.76 371.01 296.93 370.84 296.93 370.63V366.2C296.93 365.99 296.76 365.82 296.55 365.82Z" fill="white"/>
<path d="M136.67 365.82H47.3102C47.1003 365.82 46.9302 365.99 46.9302 366.2V370.63C46.9302 370.84 47.1003 371.01 47.3102 371.01H136.67C136.88 371.01 137.05 370.84 137.05 370.63V366.2C137.05 365.99 136.88 365.82 136.67 365.82Z" fill="white"/>
</g>
<defs>
<clipPath id="clip0_193:1919">
<rect width="343.86" height="489.36" fill="white"/>
</clipPath>
</defs>
</svg>
