<svg width="251" height="408" viewBox="0 0 251 408" fill="none" xmlns="http://www.w3.org/2000/svg">
<g clip-path="url(#clip0_193:1915)">
<path d="M125.7 26C132.88 26 138.7 20.1797 138.7 13C138.7 5.8203 132.88 0 125.7 0C118.52 0 112.7 5.8203 112.7 13C112.7 20.1797 118.52 26 125.7 26Z" fill="#FFBC00"/>
<path d="M25.7199 52.79C32.8996 52.79 38.7199 46.9697 38.7199 39.79C38.7199 32.6103 32.8996 26.79 25.7199 26.79C18.5402 26.79 12.72 32.6103 12.72 39.79C12.72 46.9697 18.5402 52.79 25.7199 52.79Z" fill="#FFBC00"/>
<path d="M73.87 32.83C81.0497 32.83 86.87 27.0097 86.87 19.83C86.87 12.6503 81.0497 6.82996 73.87 6.82996C66.6903 6.82996 60.87 12.6503 60.87 19.83C60.87 27.0097 66.6903 32.83 73.87 32.83Z" fill="#FFBC00"/>
<path d="M177.48 32.8199C184.66 32.8199 190.48 26.9996 190.48 19.8199C190.48 12.6402 184.66 6.81995 177.48 6.81995C170.3 6.81995 164.48 12.6402 164.48 19.8199C164.48 26.9996 170.3 32.8199 177.48 32.8199Z" fill="#FFBC00"/>
<path d="M7.54999 170.97L29.79 87.97H10.7C8.04785 87.97 5.50433 89.0235 3.62897 90.8989C1.7536 92.7743 0.700012 95.3178 0.700012 97.97V202.97C0.700012 205.622 1.7536 208.166 3.62897 210.041C5.50433 211.916 8.04785 212.97 10.7 212.97H125.7L14.62 183.2C12.0623 182.513 9.88146 180.84 8.55603 178.547C7.2306 176.254 6.86879 173.529 7.54999 170.97Z" fill="#88B8F2"/>
<path d="M240.7 87.9899H221.58L243.88 170.94C244.22 172.209 244.307 173.532 244.136 174.834C243.965 176.136 243.539 177.392 242.882 178.529C242.226 179.667 241.352 180.664 240.31 181.464C239.268 182.263 238.079 182.85 236.81 183.19L125.74 212.99H240.74C243.392 212.99 245.936 211.936 247.811 210.061C249.686 208.186 250.74 205.642 250.74 202.99V97.99C250.74 96.6734 250.48 95.3697 249.975 94.1539C249.47 92.938 248.73 91.8338 247.797 90.9047C246.864 89.9756 245.757 89.2398 244.539 88.7396C243.321 88.2395 242.017 87.9847 240.7 87.9899V87.9899Z" fill="#88B8F2"/>
<path d="M146.27 56.79L132.77 43.29C130.895 41.4153 128.352 40.3622 125.7 40.3622C123.048 40.3622 120.505 41.4153 118.63 43.29L105.11 56.81L125.68 68.67L146.27 56.79Z" fill="#88B8F2"/>
<path d="M65.37 67.37L46.98 62.44C45.7114 62.0997 44.3883 62.0126 43.0861 62.1838C41.7838 62.3549 40.5281 62.7809 39.3905 63.4375C38.2529 64.094 37.2559 64.9682 36.4562 66.0101C35.6566 67.0521 35.07 68.2413 34.73 69.51L29.79 87.95H53.5L65.37 67.37Z" fill="#88B8F2"/>
<path opacity="0.5" d="M22.42 141.87L53.5 87.99H29.79L7.55 170.99C7.20971 172.259 7.12268 173.582 7.29383 174.884C7.46499 176.186 7.89102 177.442 8.54756 178.579C9.20409 179.717 10.0783 180.714 11.1202 181.514C12.1621 182.313 13.3514 182.9 14.62 183.24L125.7 213.01L26.09 155.55C24.9493 154.894 23.9492 154.02 23.1471 152.977C22.345 151.934 21.7566 150.743 21.4157 149.472C21.0747 148.201 20.9879 146.875 21.1603 145.571C21.3326 144.266 21.7607 143.009 22.42 141.87V141.87Z" fill="#345FAC"/>
<path d="M22.42 141.87L53.5 87.99H29.79L7.55 170.99C7.20971 172.259 7.12268 173.582 7.29383 174.884C7.46499 176.186 7.89102 177.442 8.54756 178.579C9.20409 179.717 10.0783 180.714 11.1202 181.514C12.1621 182.313 13.3514 182.9 14.62 183.24L125.7 213.01L26.09 155.55C24.9493 154.894 23.9492 154.02 23.1471 152.977C22.345 151.934 21.7566 150.743 21.4157 149.472C21.0747 148.201 20.9879 146.875 21.1603 145.571C21.3326 144.266 21.7607 143.009 22.42 141.87V141.87Z" fill="#4484E4"/>
<path d="M105.11 56.81L88.55 47.25C87.4117 46.5923 86.1549 46.1654 84.8515 45.9939C83.5481 45.8224 82.2237 45.9096 80.954 46.2505C79.6844 46.5913 78.4943 47.1792 77.4521 47.9805C76.4098 48.7817 75.5358 49.7806 74.88 50.92L65.37 67.37L88.37 73.53L105.11 56.81Z" fill="#88B8F2"/>
<path opacity="0.5" d="M108.05 78.85L125.68 68.67L105.11 56.8L88.35 73.57L108.05 78.85Z" fill="#345FAC"/>
<path d="M108.05 78.85L125.68 68.67L105.11 56.8L88.35 73.57L108.05 78.85Z" fill="#4484E4"/>
<path opacity="0.5" d="M73.93 87.99L88.35 73.57L65.38 67.41L53.51 87.99H73.93Z" fill="#345FAC"/>
<path d="M73.93 87.99L88.35 73.57L65.38 67.41L53.51 87.99H73.93Z" fill="#4484E4"/>
<path opacity="0.5" d="M44.38 117.53L73.88 87.99H53.46L22.38 141.87C21.7238 143.008 21.2982 144.264 21.1276 145.566C20.9569 146.869 21.0445 148.192 21.3853 149.46C21.7261 150.729 22.3135 151.918 23.1138 152.959C23.9142 154.001 24.9119 154.874 26.05 155.53L125.66 212.99L44.34 131.68C43.4129 130.749 42.6784 129.644 42.1786 128.428C41.6788 127.213 41.4234 125.911 41.4271 124.597C41.4308 123.283 41.6935 121.982 42.2002 120.769C42.7069 119.557 43.4476 118.456 44.38 117.53V117.53Z" fill="#345FAC"/>
<path opacity="0.5" d="M44.38 117.53L73.88 87.99H53.46L22.38 141.87C21.7238 143.008 21.2982 144.264 21.1276 145.566C20.9569 146.869 21.0445 148.192 21.3853 149.46C21.7261 150.729 22.3135 151.918 23.1138 152.959C23.9142 154.001 24.9119 154.874 26.05 155.53L125.66 212.99L44.34 131.68C43.4129 130.749 42.6784 129.644 42.1786 128.428C41.6788 127.213 41.4234 125.911 41.4271 124.597C41.4308 123.283 41.6935 121.982 42.2002 120.769C42.7069 119.557 43.4476 118.456 44.38 117.53V117.53Z" fill="#345FAC"/>
<path d="M44.38 117.53L73.88 87.99H53.46L22.38 141.87C21.7238 143.008 21.2982 144.264 21.1276 145.566C20.9569 146.869 21.0445 148.192 21.3853 149.46C21.7261 150.729 22.3135 151.918 23.1138 152.959C23.9142 154.001 24.9119 154.874 26.05 155.53L125.66 212.99L44.34 131.68C43.4129 130.749 42.6784 129.644 42.1786 128.428C41.6788 127.213 41.4234 125.911 41.4271 124.597C41.4308 123.283 41.6935 121.982 42.2002 120.769C42.7069 119.557 43.4476 118.456 44.38 117.53V117.53Z" fill="#1C5ED7"/>
<path opacity="0.5" d="M88.35 73.5699L73.93 87.9899H92.21L108.05 78.8499L88.35 73.5699Z" fill="#345FAC"/>
<path opacity="0.5" d="M88.35 73.5699L73.93 87.9899H92.21L108.05 78.8499L88.35 73.5699Z" fill="#345FAC"/>
<path d="M88.35 73.5699L73.93 87.9899H92.21L108.05 78.8499L88.35 73.5699Z" fill="#1C5ED7"/>
<path opacity="0.5" d="M71.88 99.74L92.22 87.99H73.88L44.38 117.53C43.4502 118.459 42.7127 119.562 42.2094 120.776C41.7062 121.99 41.4471 123.291 41.4471 124.605C41.4471 125.919 41.7062 127.22 42.2094 128.434C42.7127 129.648 43.4502 130.751 44.38 131.68L125.7 212.99L68.2 113.37C66.8852 111.073 66.5342 108.349 67.2239 105.795C67.9137 103.24 69.588 101.063 71.88 99.74Z" fill="#345FAC"/>
<path opacity="0.5" d="M71.88 99.74L92.22 87.99H73.88L44.38 117.53C43.4502 118.459 42.7127 119.562 42.2094 120.776C41.7062 121.99 41.4471 123.291 41.4471 124.605C41.4471 125.919 41.7062 127.22 42.2094 128.434C42.7127 129.648 43.4502 130.751 44.38 131.68L125.7 212.99L68.2 113.37C66.8852 111.073 66.5342 108.349 67.2239 105.795C67.9137 103.24 69.588 101.063 71.88 99.74Z" fill="#345FAC"/>
<path opacity="0.5" d="M71.88 99.74L92.22 87.99H73.88L44.38 117.53C43.4502 118.459 42.7127 119.562 42.2094 120.776C41.7062 121.99 41.4471 123.291 41.4471 124.605C41.4471 125.919 41.7062 127.22 42.2094 128.434C42.7127 129.648 43.4502 130.751 44.38 131.68L125.7 212.99L68.2 113.37C66.8852 111.073 66.5342 108.349 67.2239 105.795C67.9137 103.24 69.588 101.063 71.88 99.74Z" fill="#345FAC"/>
<path d="M71.88 99.74L92.22 87.99H73.88L44.38 117.53C43.4502 118.459 42.7127 119.562 42.2094 120.776C41.7062 121.99 41.4471 123.291 41.4471 124.605C41.4471 125.919 41.7062 127.22 42.2094 128.434C42.7127 129.648 43.4502 130.751 44.38 131.68L125.7 212.99L68.2 113.37C66.8852 111.073 66.5342 108.349 67.2239 105.795C67.9137 103.24 69.588 101.063 71.88 99.74Z" fill="#0442CA"/>
<path d="M185.98 67.37L176.46 50.88C175.134 48.5832 172.95 46.9074 170.388 46.221C167.826 45.5346 165.097 45.894 162.8 47.22L146.27 56.77L163.04 73.53L185.98 67.37Z" fill="#88B8F2"/>
<path opacity="0.5" d="M143.32 78.84L163.04 73.55L146.27 56.78L125.68 68.67L143.32 78.84Z" fill="#345FAC"/>
<path d="M143.32 78.84L163.04 73.55L146.27 56.78L125.68 68.67L143.32 78.84Z" fill="#4484E4"/>
<path opacity="0.5" d="M143.32 78.84L125.68 68.67L108.05 78.85L125.68 83.57L143.32 78.84Z" fill="#345FAC"/>
<path opacity="0.5" d="M143.32 78.84L125.68 68.67L108.05 78.85L125.68 83.57L143.32 78.84Z" fill="#345FAC"/>
<path d="M143.32 78.84L125.68 68.67L108.05 78.85L125.68 83.57L143.32 78.84Z" fill="#1C5ED7"/>
<path opacity="0.5" d="M108.05 78.85L92.21 87.99H109.23L125.68 83.57L108.05 78.85Z" fill="#345FAC"/>
<path opacity="0.5" d="M108.05 78.85L92.21 87.99H109.23L125.68 83.57L108.05 78.85Z" fill="#345FAC"/>
<path opacity="0.5" d="M108.05 78.85L92.21 87.99H109.23L125.68 83.57L108.05 78.85Z" fill="#345FAC"/>
<path d="M108.05 78.85L92.21 87.99H109.23L125.68 83.57L108.05 78.85Z" fill="#0442CA"/>
<path opacity="0.5" d="M102.96 89.67L109.22 87.99H92.22L71.88 99.74C69.588 101.063 67.9137 103.24 67.224 105.795C66.5342 108.349 66.8852 111.073 68.2 113.37L125.7 212.96L95.88 101.92C95.5399 100.651 95.4533 99.3269 95.6251 98.0242C95.7969 96.7215 96.2237 95.4654 96.8812 94.3277C97.5388 93.19 98.4141 92.1931 99.4571 91.3939C100.5 90.5947 101.69 90.0089 102.96 89.67V89.67Z" fill="#345FAC"/>
<path opacity="0.5" d="M102.96 89.67L109.22 87.99H92.22L71.88 99.74C69.588 101.063 67.9137 103.24 67.224 105.795C66.5342 108.349 66.8852 111.073 68.2 113.37L125.7 212.96L95.88 101.92C95.5399 100.651 95.4533 99.3269 95.6251 98.0242C95.7969 96.7215 96.2237 95.4654 96.8812 94.3277C97.5388 93.19 98.4141 92.1931 99.4571 91.3939C100.5 90.5947 101.69 90.0089 102.96 89.67V89.67Z" fill="#345FAC"/>
<path opacity="0.5" d="M102.96 89.67L109.22 87.99H92.22L71.88 99.74C69.588 101.063 67.9137 103.24 67.224 105.795C66.5342 108.349 66.8852 111.073 68.2 113.37L125.7 212.96L95.88 101.92C95.5399 100.651 95.4533 99.3269 95.6251 98.0242C95.7969 96.7215 96.2237 95.4654 96.8812 94.3277C97.5388 93.19 98.4141 92.1931 99.4571 91.3939C100.5 90.5947 101.69 90.0089 102.96 89.67V89.67Z" fill="#345FAC"/>
<path opacity="0.5" d="M102.96 89.67L109.22 87.99H92.22L71.88 99.74C69.588 101.063 67.9137 103.24 67.224 105.795C66.5342 108.349 66.8852 111.073 68.2 113.37L125.7 212.96L95.88 101.92C95.5399 100.651 95.4533 99.3269 95.6251 98.0242C95.7969 96.7215 96.2237 95.4654 96.8812 94.3277C97.5388 93.19 98.4141 92.1931 99.4571 91.3939C100.5 90.5947 101.69 90.0089 102.96 89.67V89.67Z" fill="#345FAC"/>
<path d="M102.96 89.67L109.22 87.99H92.22L71.88 99.74C69.588 101.063 67.9137 103.24 67.224 105.795C66.5342 108.349 66.8852 111.073 68.2 113.37L125.7 212.96L95.88 101.92C95.5399 100.651 95.4533 99.3269 95.6251 98.0242C95.7969 96.7215 96.2237 95.4654 96.8812 94.3277C97.5388 93.19 98.4141 92.1931 99.4571 91.3939C100.5 90.5947 101.69 90.0089 102.96 89.67V89.67Z" fill="#002EBE"/>
<path d="M221.58 87.99L216.58 69.53C216.24 68.2613 215.653 67.0721 214.854 66.0302C214.054 64.9882 213.057 64.114 211.919 63.4575C210.782 62.801 209.526 62.375 208.224 62.2038C206.922 62.0326 205.599 62.1197 204.33 62.46L185.98 67.37L197.88 87.99H221.58Z" fill="#88B8F2"/>
<path opacity="0.5" d="M243.88 170.94L221.58 87.99H197.88L228.97 141.84C230.296 144.137 230.655 146.866 229.969 149.428C229.283 151.99 227.607 154.174 225.31 155.5L125.71 212.99L236.78 183.19C238.051 182.853 239.244 182.269 240.289 181.471C241.334 180.672 242.212 179.676 242.871 178.538C243.531 177.4 243.959 176.143 244.132 174.839C244.306 173.536 244.22 172.211 243.88 170.94Z" fill="#345FAC"/>
<path d="M243.88 170.94L221.58 87.99H197.88L228.97 141.84C230.296 144.137 230.655 146.866 229.969 149.428C229.283 151.99 227.607 154.174 225.31 155.5L125.71 212.99L236.78 183.19C238.051 182.853 239.244 182.269 240.289 181.471C241.334 180.672 242.212 179.676 242.871 178.538C243.531 177.4 243.959 176.143 244.132 174.839C244.306 173.536 244.22 172.211 243.88 170.94Z" fill="#4484E4"/>
<path opacity="0.5" d="M177.48 87.99H197.88L185.99 67.39L163.04 73.55L177.48 87.99Z" fill="#345FAC"/>
<path d="M177.48 87.99H197.88L185.99 67.39L163.04 73.55L177.48 87.99Z" fill="#4484E4"/>
<path opacity="0.5" d="M228.96 141.84L197.88 87.99H177.48L207.02 117.53C207.95 118.459 208.687 119.562 209.191 120.776C209.694 121.99 209.953 123.291 209.953 124.605C209.953 125.919 209.694 127.22 209.191 128.434C208.687 129.648 207.95 130.751 207.02 131.68L125.7 212.99L225.3 155.5C227.597 154.174 229.273 151.99 229.959 149.428C230.645 146.866 230.286 144.137 228.96 141.84V141.84Z" fill="#345FAC"/>
<path opacity="0.5" d="M228.96 141.84L197.88 87.99H177.48L207.02 117.53C207.95 118.459 208.687 119.562 209.191 120.776C209.694 121.99 209.953 123.291 209.953 124.605C209.953 125.919 209.694 127.22 209.191 128.434C208.687 129.648 207.95 130.751 207.02 131.68L125.7 212.99L225.3 155.5C227.597 154.174 229.273 151.99 229.959 149.428C230.645 146.866 230.286 144.137 228.96 141.84V141.84Z" fill="#345FAC"/>
<path d="M228.96 141.84L197.88 87.99H177.48L207.02 117.53C207.95 118.459 208.687 119.562 209.191 120.776C209.694 121.99 209.953 123.291 209.953 124.605C209.953 125.919 209.694 127.22 209.191 128.434C208.687 129.648 207.95 130.751 207.02 131.68L125.7 212.99L225.3 155.5C227.597 154.174 229.273 151.99 229.959 149.428C230.645 146.866 230.286 144.137 228.96 141.84V141.84Z" fill="#1C5ED7"/>
<path opacity="0.5" d="M143.32 78.84L159.17 87.99H177.48L163.04 73.55L143.32 78.84Z" fill="#345FAC"/>
<path opacity="0.5" d="M143.32 78.84L159.17 87.99H177.48L163.04 73.55L143.32 78.84Z" fill="#345FAC"/>
<path d="M143.32 78.84L159.17 87.99H177.48L163.04 73.55L143.32 78.84Z" fill="#1C5ED7"/>
<path opacity="0.5" d="M207.02 117.53L177.48 87.99H159.17L179.5 99.72C181.794 101.046 183.468 103.228 184.154 105.788C184.84 108.347 184.483 111.074 183.16 113.37L125.7 212.98L207.02 131.67C208.895 129.795 209.948 127.252 209.948 124.6C209.948 121.948 208.895 119.405 207.02 117.53V117.53Z" fill="#345FAC"/>
<path opacity="0.5" d="M207.02 117.53L177.48 87.99H159.17L179.5 99.72C181.794 101.046 183.468 103.228 184.154 105.788C184.84 108.347 184.483 111.074 183.16 113.37L125.7 212.98L207.02 131.67C208.895 129.795 209.948 127.252 209.948 124.6C209.948 121.948 208.895 119.405 207.02 117.53V117.53Z" fill="#345FAC"/>
<path opacity="0.5" d="M207.02 117.53L177.48 87.99H159.17L179.5 99.72C181.794 101.046 183.468 103.228 184.154 105.788C184.84 108.347 184.483 111.074 183.16 113.37L125.7 212.98L207.02 131.67C208.895 129.795 209.948 127.252 209.948 124.6C209.948 121.948 208.895 119.405 207.02 117.53V117.53Z" fill="#345FAC"/>
<path d="M207.02 117.53L177.48 87.99H159.17L179.5 99.72C181.794 101.046 183.468 103.228 184.154 105.788C184.84 108.347 184.483 111.074 183.16 113.37L125.7 212.98L207.02 131.67C208.895 129.795 209.948 127.252 209.948 124.6C209.948 121.948 208.895 119.405 207.02 117.53V117.53Z" fill="#0442CA"/>
<path opacity="0.5" d="M125.68 83.57L142.16 87.99H159.17L143.32 78.84L125.68 83.57Z" fill="#345FAC"/>
<path opacity="0.5" d="M125.68 83.57L142.16 87.99H159.17L143.32 78.84L125.68 83.57Z" fill="#345FAC"/>
<path opacity="0.5" d="M125.68 83.57L142.16 87.99H159.17L143.32 78.84L125.68 83.57Z" fill="#345FAC"/>
<path d="M125.68 83.57L142.16 87.99H159.17L143.32 78.84L125.68 83.57Z" fill="#0442CA"/>
<path opacity="0.5" d="M179.5 99.72L159.17 87.99H142.17L148.41 89.66C149.679 90 150.868 90.5865 151.91 91.3862C152.952 92.1859 153.826 93.1829 154.482 94.3205C155.139 95.4581 155.565 96.7138 155.736 98.016C155.907 99.3182 155.82 100.641 155.48 101.91L125.71 212.99L183.16 113.37C184.483 111.074 184.84 108.347 184.154 105.788C183.468 103.228 181.794 101.046 179.5 99.72V99.72Z" fill="#345FAC"/>
<path opacity="0.5" d="M179.5 99.72L159.17 87.99H142.17L148.41 89.66C149.679 90 150.868 90.5865 151.91 91.3862C152.952 92.1859 153.826 93.1829 154.482 94.3205C155.139 95.4581 155.565 96.7138 155.736 98.016C155.907 99.3182 155.82 100.641 155.48 101.91L125.71 212.99L183.16 113.37C184.483 111.074 184.84 108.347 184.154 105.788C183.468 103.228 181.794 101.046 179.5 99.72V99.72Z" fill="#345FAC"/>
<path opacity="0.5" d="M179.5 99.72L159.17 87.99H142.17L148.41 89.66C149.679 90 150.868 90.5865 151.91 91.3862C152.952 92.1859 153.826 93.1829 154.482 94.3205C155.139 95.4581 155.565 96.7138 155.736 98.016C155.907 99.3182 155.82 100.641 155.48 101.91L125.71 212.99L183.16 113.37C184.483 111.074 184.84 108.347 184.154 105.788C183.468 103.228 181.794 101.046 179.5 99.72V99.72Z" fill="#345FAC"/>
<path opacity="0.5" d="M179.5 99.72L159.17 87.99H142.17L148.41 89.66C149.679 90 150.868 90.5865 151.91 91.3862C152.952 92.1859 153.826 93.1829 154.482 94.3205C155.139 95.4581 155.565 96.7138 155.736 98.016C155.907 99.3182 155.82 100.641 155.48 101.91L125.71 212.99L183.16 113.37C184.483 111.074 184.84 108.347 184.154 105.788C183.468 103.228 181.794 101.046 179.5 99.72V99.72Z" fill="#345FAC"/>
<path d="M179.5 99.72L159.17 87.99H142.17L148.41 89.66C149.679 90 150.868 90.5865 151.91 91.3862C152.952 92.1859 153.826 93.1829 154.482 94.3205C155.139 95.4581 155.565 96.7138 155.736 98.016C155.907 99.3182 155.82 100.641 155.48 101.91L125.71 212.99L183.16 113.37C184.483 111.074 184.84 108.347 184.154 105.788C183.468 103.228 181.794 101.046 179.5 99.72V99.72Z" fill="#002EBE"/>
<path opacity="0.5" d="M109.23 87.9899H142.16L125.68 83.5699L109.23 87.9899Z" fill="#345FAC"/>
<path opacity="0.5" d="M109.23 87.9899H142.16L125.68 83.5699L109.23 87.9899Z" fill="#345FAC"/>
<path opacity="0.5" d="M109.23 87.9899H142.16L125.68 83.5699L109.23 87.9899Z" fill="#345FAC"/>
<path opacity="0.5" d="M109.23 87.9899H142.16L125.68 83.5699L109.23 87.9899Z" fill="#345FAC"/>
<path d="M109.23 87.9899H142.16L125.68 83.5699L109.23 87.9899Z" fill="#002EBE"/>
<path opacity="0.5" d="M148.4 89.66L142.16 87.99H109.22L102.96 89.67C101.69 90.0089 100.5 90.5947 99.4571 91.3939C98.4141 92.1931 97.5388 93.19 96.8812 94.3277C96.2237 95.4654 95.7969 96.7215 95.6251 98.0242C95.4533 99.3269 95.5399 100.651 95.88 101.92L125.68 212.99L155.45 101.91C156.138 99.3507 155.782 96.623 154.46 94.3261C153.138 92.0292 150.958 90.3509 148.4 89.66V89.66Z" fill="#345FAC"/>
<path opacity="0.5" d="M148.4 89.66L142.16 87.99H109.22L102.96 89.67C101.69 90.0089 100.5 90.5947 99.4571 91.3939C98.4141 92.1931 97.5388 93.19 96.8812 94.3277C96.2237 95.4654 95.7969 96.7215 95.6251 98.0242C95.4533 99.3269 95.5399 100.651 95.88 101.92L125.68 212.99L155.45 101.91C156.138 99.3507 155.782 96.623 154.46 94.3261C153.138 92.0292 150.958 90.3509 148.4 89.66V89.66Z" fill="#345FAC"/>
<path opacity="0.5" d="M148.4 89.66L142.16 87.99H109.22L102.96 89.67C101.69 90.0089 100.5 90.5947 99.4571 91.3939C98.4141 92.1931 97.5388 93.19 96.8812 94.3277C96.2237 95.4654 95.7969 96.7215 95.6251 98.0242C95.4533 99.3269 95.5399 100.651 95.88 101.92L125.68 212.99L155.45 101.91C156.138 99.3507 155.782 96.623 154.46 94.3261C153.138 92.0292 150.958 90.3509 148.4 89.66V89.66Z" fill="#345FAC"/>
<path opacity="0.5" d="M148.4 89.66L142.16 87.99H109.22L102.96 89.67C101.69 90.0089 100.5 90.5947 99.4571 91.3939C98.4141 92.1931 97.5388 93.19 96.8812 94.3277C96.2237 95.4654 95.7969 96.7215 95.6251 98.0242C95.4533 99.3269 95.5399 100.651 95.88 101.92L125.68 212.99L155.45 101.91C156.138 99.3507 155.782 96.623 154.46 94.3261C153.138 92.0292 150.958 90.3509 148.4 89.66V89.66Z" fill="#345FAC"/>
<path opacity="0.5" d="M148.4 89.66L142.16 87.99H109.22L102.96 89.67C101.69 90.0089 100.5 90.5947 99.4571 91.3939C98.4141 92.1931 97.5388 93.19 96.8812 94.3277C96.2237 95.4654 95.7969 96.7215 95.6251 98.0242C95.4533 99.3269 95.5399 100.651 95.88 101.92L125.68 212.99L155.45 101.91C156.138 99.3507 155.782 96.623 154.46 94.3261C153.138 92.0292 150.958 90.3509 148.4 89.66V89.66Z" fill="#345FAC"/>
<path d="M148.4 89.66L142.16 87.99H109.22L102.96 89.67C101.69 90.0089 100.5 90.5947 99.4571 91.3939C98.4141 92.1931 97.5388 93.19 96.8812 94.3277C96.2237 95.4654 95.7969 96.7215 95.6251 98.0242C95.4533 99.3269 95.5399 100.651 95.88 101.92L125.68 212.99L155.45 101.91C156.138 99.3507 155.782 96.623 154.46 94.3261C153.138 92.0292 150.958 90.3509 148.4 89.66V89.66Z" fill="#0020B1"/>
<path d="M225.64 52.76C232.82 52.76 238.64 46.9397 238.64 39.76C238.64 32.5803 232.82 26.76 225.64 26.76C218.46 26.76 212.64 32.5803 212.64 39.76C212.64 46.9397 218.46 52.76 225.64 52.76Z" fill="#FFBC00"/>
<path d="M125.69 109.07C117.95 116.46 102.46 135.17 102.46 150.91C102.465 157.067 104.915 162.969 109.272 167.32C113.628 171.67 119.533 174.113 125.69 174.11C131.84 174.105 137.737 171.658 142.085 167.308C146.434 162.958 148.877 157.06 148.88 150.91C148.88 135.17 133.43 116.46 125.69 109.07Z" fill="white"/>
<path d="M67.2299 239.87L52.02 296.74C51.9663 296.906 51.8579 297.049 51.7126 297.145C51.5673 297.241 51.3937 297.285 51.22 297.27H41.49C41.3198 297.273 41.1528 297.224 41.0115 297.129C40.8702 297.035 40.7615 296.899 40.7 296.74L34.7 274.36L26.57 296.83C26.5351 296.965 26.4537 297.083 26.3403 297.163C26.2269 297.244 26.0886 297.282 25.95 297.27H16.57C16.4074 297.283 16.2456 297.237 16.1148 297.139C15.9841 297.042 15.8935 296.9 15.86 296.74L0.739961 239.74C0.713751 239.627 0.715105 239.508 0.743868 239.396C0.77263 239.283 0.827977 239.178 0.905306 239.091C0.982635 239.004 1.07972 238.937 1.18839 238.895C1.29706 238.853 1.41419 238.837 1.53 238.85H11.7C11.8434 238.869 11.9783 238.929 12.0884 239.023C12.1984 239.117 12.2788 239.241 12.32 239.38L22.14 276.89L29.48 254.69L25.42 239.83C25.3802 239.717 25.3678 239.597 25.3839 239.479C25.4001 239.36 25.4442 239.248 25.5127 239.15C25.5811 239.052 25.6719 238.972 25.7776 238.916C25.8832 238.861 26.0006 238.831 26.12 238.83H37.12C37.48 238.83 37.65 238.92 37.83 239.36L45.97 275.45L55.7 239.36C55.7488 239.211 55.8419 239.08 55.967 238.985C56.0921 238.891 56.2432 238.837 56.4 238.83H66.58C66.704 238.826 66.8268 238.855 66.9362 238.914C67.0457 238.972 67.1378 239.058 67.2036 239.163C67.2693 239.269 67.3064 239.389 67.311 239.513C67.3156 239.637 67.2877 239.76 67.2299 239.87V239.87Z" fill="#231F20"/>
<path d="M81.04 296.48V239.69C81.0288 239.59 81.0388 239.488 81.0693 239.392C81.0998 239.296 81.1501 239.207 81.217 239.132C81.284 239.057 81.366 238.996 81.4578 238.954C81.5496 238.913 81.6492 238.891 81.75 238.89H111.82C112.032 238.89 112.236 238.974 112.386 239.124C112.536 239.274 112.62 239.478 112.62 239.69V249.16C112.62 249.265 112.599 249.368 112.559 249.465C112.519 249.561 112.459 249.649 112.385 249.722C112.311 249.796 112.222 249.854 112.125 249.893C112.028 249.932 111.925 249.951 111.82 249.95H92.71V261.95H107.57C107.671 261.951 107.77 261.973 107.862 262.014C107.954 262.056 108.036 262.117 108.103 262.192C108.17 262.267 108.22 262.356 108.251 262.452C108.281 262.548 108.291 262.65 108.28 262.75V272.39C108.29 272.489 108.279 272.59 108.247 272.685C108.216 272.78 108.166 272.867 108.099 272.941C108.032 273.016 107.951 273.075 107.86 273.116C107.768 273.157 107.67 273.179 107.57 273.18H92.71V286.18H111.82C111.925 286.179 112.028 286.198 112.125 286.237C112.222 286.276 112.311 286.334 112.385 286.408C112.459 286.481 112.519 286.569 112.559 286.665C112.599 286.762 112.62 286.865 112.62 286.97V296.44C112.62 296.545 112.599 296.648 112.559 296.745C112.519 296.841 112.459 296.929 112.385 297.002C112.311 297.076 112.222 297.134 112.125 297.173C112.028 297.212 111.925 297.231 111.82 297.23H81.75C81.6537 297.229 81.5587 297.208 81.4705 297.17C81.3823 297.131 81.3027 297.075 81.2365 297.005C81.1703 296.935 81.1188 296.853 81.0851 296.762C81.0513 296.672 81.036 296.576 81.04 296.48V296.48Z" fill="#231F20"/>
<path d="M139.16 239.69V286.13H158.26C158.472 286.13 158.676 286.214 158.826 286.364C158.976 286.514 159.06 286.718 159.06 286.93V296.48C159.06 296.585 159.039 296.688 158.999 296.785C158.959 296.881 158.9 296.969 158.825 297.042C158.751 297.116 158.662 297.174 158.565 297.213C158.468 297.252 158.365 297.271 158.26 297.27H128.26C128.16 297.269 128.062 297.247 127.97 297.206C127.879 297.165 127.798 297.106 127.731 297.031C127.664 296.957 127.614 296.87 127.583 296.775C127.551 296.68 127.54 296.579 127.55 296.48V239.69C127.539 239.59 127.549 239.488 127.579 239.392C127.61 239.296 127.66 239.207 127.727 239.132C127.794 239.057 127.876 238.996 127.968 238.954C128.06 238.913 128.159 238.891 128.26 238.89H138.34C138.447 238.887 138.553 238.906 138.652 238.945C138.752 238.984 138.842 239.043 138.919 239.117C138.995 239.192 139.056 239.281 139.097 239.379C139.139 239.478 139.16 239.583 139.16 239.69V239.69Z" fill="#231F20"/>
<path d="M183.03 239.69V286.13H202.14C202.245 286.13 202.348 286.151 202.445 286.191C202.541 286.231 202.629 286.29 202.702 286.365C202.776 286.439 202.834 286.528 202.873 286.625C202.912 286.722 202.931 286.825 202.93 286.93V296.48C202.93 296.689 202.847 296.89 202.699 297.039C202.55 297.187 202.35 297.27 202.14 297.27H172.14C172.04 297.269 171.941 297.247 171.85 297.206C171.759 297.165 171.678 297.106 171.611 297.031C171.544 296.957 171.494 296.87 171.463 296.775C171.431 296.68 171.42 296.579 171.43 296.48V239.69C171.42 239.59 171.431 239.489 171.462 239.394C171.494 239.298 171.544 239.21 171.611 239.135C171.677 239.06 171.759 239 171.85 238.957C171.941 238.915 172.04 238.892 172.14 238.89H182.22C182.326 238.889 182.431 238.908 182.529 238.948C182.627 238.988 182.717 239.046 182.792 239.121C182.868 239.195 182.927 239.284 182.968 239.381C183.009 239.479 183.03 239.584 183.03 239.69Z" fill="#231F20"/>
<path d="M250.7 278.79C250.765 283.069 249.599 287.276 247.34 290.91C244.07 295.77 238.94 298.16 231.86 298.16C224.34 298.16 215.58 294.53 212.86 286.31C212.814 286.179 212.816 286.036 212.866 285.906C212.915 285.776 213.009 285.668 213.13 285.6L221.27 278.6C221.353 278.527 221.451 278.474 221.556 278.443C221.662 278.412 221.773 278.405 221.882 278.422C221.991 278.44 222.095 278.481 222.186 278.542C222.277 278.604 222.354 278.685 222.41 278.78C222.59 279.22 222.94 279.93 223.41 280.78C224.73 283.52 227.92 286.27 231.46 286.27C234.2 286.27 237.91 284.76 237.91 280.52C237.91 276.45 232.34 274.15 228.91 272.82C224.732 271.27 220.845 269.028 217.41 266.19C213.79 262.82 212.02 259.11 212.02 254.69C212.02 243.63 222.19 238.06 231.83 238.06C239.44 238.06 245.1 242.06 248.83 249.91C248.912 250.081 248.931 250.275 248.883 250.458C248.835 250.641 248.725 250.801 248.57 250.91L240.7 256.4C240.34 256.57 240.17 256.57 239.81 256.13C236.81 251.8 234.15 249.76 230.61 249.76C228.75 249.76 224.42 250.47 224.42 253.76C224.42 257.76 231.76 259.76 235.3 261.46C241.94 264.63 250.7 269.68 250.7 278.79Z" fill="#231F20"/>
<path d="M24.8 387.29C24.8 387.202 24.8174 387.116 24.8512 387.035C24.885 386.954 24.9345 386.881 24.9968 386.82C25.0592 386.758 25.1331 386.71 25.2144 386.677C25.2956 386.645 25.3825 386.629 25.47 386.63H33.88C33.9671 386.629 34.0535 386.645 34.1342 386.677C34.2148 386.71 34.2882 386.759 34.3497 386.82C34.4113 386.882 34.4598 386.955 34.4925 387.036C34.5252 387.116 34.5413 387.203 34.54 387.29V391.95C34.54 402.82 28.7 407.4 17.69 407.4C7.41 407.4 0.690002 403.34 0.690002 391.95V372.5C0.690002 361.56 6.69 357.2 17.69 357.2C28.11 357.2 34.54 361.2 34.54 372.5V374.06C34.5413 374.147 34.5252 374.233 34.4925 374.314C34.4598 374.395 34.4113 374.468 34.3497 374.53C34.2882 374.591 34.2148 374.64 34.1342 374.672C34.0535 374.705 33.9671 374.721 33.88 374.72H25.37C25.195 374.72 25.0271 374.65 24.9033 374.527C24.7795 374.403 24.71 374.235 24.71 374.06V372.87C24.71 368.81 21.71 367.11 18.05 367.11H17.17C14.73 367.11 13.1 367.77 11.99 369.25C10.88 370.73 10.59 372.5 10.59 374.94V389.58C10.59 396.02 14.21 397.42 17.17 397.42H18.05C20.5 397.42 22.2 396.76 23.3 395.28C24.3879 393.586 24.9064 391.589 24.78 389.58L24.8 387.29Z" fill="#231F20"/>
<path d="M68.73 358.53C68.7287 358.442 68.7448 358.356 68.7774 358.274C68.8099 358.193 68.8583 358.119 68.9198 358.057C68.9812 357.994 69.0544 357.945 69.1351 357.911C69.2159 357.877 69.3025 357.86 69.39 357.86H77.82C77.908 357.86 77.9951 357.877 78.0764 357.911C78.1577 357.945 78.2316 357.994 78.2938 358.056C78.356 358.118 78.4054 358.192 78.439 358.274C78.4727 358.355 78.49 358.442 78.49 358.53V406C78.49 406.088 78.4726 406.174 78.4389 406.255C78.4051 406.336 78.3555 406.409 78.2932 406.47C78.2308 406.532 78.1569 406.58 78.0756 406.613C77.9944 406.645 77.9075 406.661 77.82 406.66H69.39C69.303 406.661 69.2166 406.645 69.1359 406.613C69.0552 406.58 68.9819 406.531 68.9203 406.47C68.8587 406.408 68.8102 406.335 68.7775 406.254C68.7448 406.173 68.7286 406.087 68.73 406V386.37H56.73V406.04C56.73 406.128 56.7126 406.214 56.6788 406.295C56.6451 406.376 56.5956 406.449 56.5332 406.51C56.4709 406.572 56.3969 406.62 56.3157 406.653C56.2345 406.685 56.1475 406.701 56.06 406.7H47.63C47.5468 406.699 47.4646 406.681 47.3888 406.646C47.313 406.612 47.2452 406.562 47.1897 406.5C47.1342 406.438 47.0922 406.365 47.0665 406.286C47.0407 406.207 47.0317 406.123 47.04 406.04V358.53C47.0317 358.447 47.0407 358.362 47.0664 358.283C47.0921 358.203 47.1339 358.129 47.1892 358.067C47.2446 358.004 47.3123 357.953 47.3881 357.917C47.464 357.882 47.5463 357.862 47.63 357.86H56.06C56.148 357.86 56.2351 357.877 56.3164 357.911C56.3977 357.945 56.4716 357.994 56.5338 358.056C56.596 358.118 56.6454 358.192 56.679 358.274C56.7127 358.355 56.73 358.442 56.73 358.53V377.09H68.73V358.53Z" fill="#231F20"/>
<path d="M102.08 357.86H111.24C111.364 357.866 111.483 357.914 111.577 357.996C111.671 358.077 111.736 358.188 111.76 358.31L124.55 405.85C124.573 405.948 124.573 406.05 124.55 406.149C124.528 406.247 124.483 406.339 124.419 406.417C124.355 406.495 124.274 406.558 124.183 406.6C124.091 406.642 123.991 406.663 123.89 406.66H115.46C115.335 406.659 115.215 406.615 115.12 406.535C115.025 406.454 114.961 406.343 114.94 406.22L112.06 395.87H101.26L98.45 406.22C98.4398 406.346 98.3806 406.462 98.2852 406.544C98.1897 406.627 98.0658 406.668 97.94 406.66H89.43C89.3291 406.663 89.229 406.642 89.1373 406.6C89.0456 406.558 88.9648 406.495 88.901 406.417C88.8373 406.339 88.7923 406.247 88.7696 406.149C88.7469 406.05 88.7471 405.948 88.77 405.85L101.56 358.31C101.584 358.188 101.649 358.077 101.743 357.996C101.837 357.914 101.956 357.866 102.08 357.86V357.86ZM109.77 386.7L106.59 375.54L103.59 386.7H109.77Z" fill="#231F20"/>
<path d="M155.76 357.86H164.26C164.348 357.86 164.435 357.877 164.516 357.911C164.598 357.945 164.672 357.994 164.734 358.056C164.796 358.118 164.845 358.192 164.879 358.274C164.913 358.355 164.93 358.442 164.93 358.53V406C164.93 406.088 164.913 406.174 164.879 406.255C164.845 406.336 164.796 406.409 164.733 406.47C164.671 406.532 164.597 406.58 164.516 406.613C164.434 406.645 164.348 406.661 164.26 406.66H156.05C155.916 406.672 155.781 406.643 155.663 406.577C155.545 406.511 155.45 406.411 155.39 406.29L144.59 381.97V405.97C144.591 406.057 144.575 406.143 144.543 406.224C144.51 406.305 144.461 406.378 144.4 406.44C144.338 406.501 144.265 406.55 144.184 406.583C144.104 406.615 144.017 406.631 143.93 406.63H135.5C135.417 406.629 135.335 406.611 135.259 406.576C135.183 406.542 135.115 406.492 135.06 406.43C135.004 406.368 134.962 406.295 134.936 406.216C134.911 406.137 134.902 406.053 134.91 405.97V358.53C134.902 358.447 134.911 358.362 134.936 358.283C134.962 358.203 135.004 358.129 135.059 358.067C135.115 358.004 135.182 357.953 135.258 357.917C135.334 357.882 135.416 357.862 135.5 357.86H144.22C144.333 357.865 144.442 357.903 144.534 357.969C144.627 358.034 144.698 358.125 144.74 358.23L155.09 382.12V358.53C155.09 358.442 155.107 358.355 155.141 358.274C155.175 358.192 155.224 358.118 155.286 358.056C155.348 357.994 155.422 357.945 155.504 357.911C155.585 357.877 155.672 357.86 155.76 357.86V357.86Z" fill="#231F20"/>
<path d="M193.47 388.25V380.37C193.469 380.283 193.485 380.196 193.517 380.116C193.55 380.035 193.599 379.962 193.66 379.9C193.722 379.839 193.795 379.79 193.876 379.757C193.957 379.725 194.043 379.709 194.13 379.71H211.07C211.157 379.709 211.243 379.725 211.324 379.757C211.405 379.79 211.478 379.839 211.54 379.9C211.601 379.962 211.65 380.035 211.683 380.116C211.715 380.196 211.731 380.283 211.73 380.37V391.98C211.73 402.82 205.88 407.37 194.88 407.37C184.61 407.37 177.88 403.31 177.88 391.92V372.5C177.88 361.78 183.88 357.2 194.88 357.2C205.23 357.2 211.74 361.2 211.74 372.5V374.06C211.741 374.147 211.725 374.233 211.693 374.314C211.66 374.395 211.611 374.468 211.55 374.53C211.488 374.591 211.415 374.64 211.334 374.672C211.253 374.705 211.167 374.721 211.08 374.72H202.57C202.483 374.721 202.397 374.705 202.316 374.672C202.235 374.64 202.162 374.591 202.1 374.53C202.039 374.468 201.99 374.395 201.957 374.314C201.925 374.233 201.909 374.147 201.91 374.06V373.06C201.91 368.55 199.02 367.06 195.25 367.06H194.37C191.93 367.06 190.3 367.72 189.19 369.2C188.08 370.68 187.79 372.45 187.79 374.89V389.53C187.79 395.97 191.26 397.37 194.37 397.37H195.25C199.76 397.37 201.91 394.27 201.91 389.53V388.87H194.14C193.97 388.873 193.805 388.81 193.681 388.694C193.556 388.579 193.48 388.42 193.47 388.25V388.25Z" fill="#231F20"/>
<path d="M224.3 406V358.53C224.292 358.447 224.301 358.362 224.326 358.283C224.352 358.203 224.394 358.129 224.449 358.067C224.505 358.004 224.572 357.953 224.648 357.917C224.724 357.882 224.806 357.862 224.89 357.86H250.03C250.118 357.86 250.205 357.877 250.286 357.911C250.368 357.945 250.442 357.994 250.504 358.056C250.566 358.118 250.615 358.192 250.649 358.274C250.683 358.355 250.7 358.442 250.7 358.53V366.44C250.7 366.618 250.629 366.788 250.504 366.914C250.378 367.039 250.208 367.11 250.03 367.11H234.03V377.16H246.45C246.535 377.161 246.618 377.18 246.695 377.214C246.772 377.249 246.841 377.3 246.897 377.363C246.954 377.426 246.997 377.5 247.023 377.58C247.049 377.661 247.058 377.746 247.05 377.83V385.89C247.057 385.973 247.047 386.057 247.02 386.136C246.993 386.216 246.95 386.288 246.893 386.35C246.837 386.412 246.769 386.462 246.692 386.496C246.616 386.531 246.534 386.549 246.45 386.55H234.03V397.42H250.03C250.208 397.42 250.378 397.491 250.504 397.616C250.629 397.742 250.7 397.912 250.7 398.09V406C250.7 406.088 250.683 406.174 250.649 406.255C250.615 406.336 250.566 406.409 250.503 406.47C250.441 406.532 250.367 406.58 250.286 406.613C250.204 406.645 250.118 406.661 250.03 406.66H224.88C224.798 406.658 224.717 406.638 224.642 406.603C224.567 406.568 224.501 406.518 224.446 406.456C224.392 406.394 224.351 406.322 224.326 406.243C224.3 406.165 224.292 406.082 224.3 406V406Z" fill="#231F20"/>
<path d="M121.32 316.26C122.54 317.61 123.11 319.53 123.11 322.26V333C123.11 335.82 122.54 337.78 121.32 339.09C119.72 340.72 117.32 341.54 113.8 341.54C110.28 341.54 107.8 340.72 106.24 339.09C105.06 337.78 104.41 335.82 104.41 333V322.27C104.41 319.53 105.02 317.57 106.24 316.27C107.8 314.6 110.24 313.86 113.8 313.86C117.36 313.86 119.76 314.59 121.32 316.26ZM117.68 323.61C117.68 320.02 115.76 319.28 114 319.28H113.52C110.9 319.28 109.88 320.96 109.88 323.61V331.78C109.88 335.38 111.8 336.15 113.52 336.15H114C116.62 336.15 117.64 334.4 117.68 331.78V323.61Z" fill="#231F20"/>
<path d="M131.03 341.14C130.984 341.139 130.938 341.128 130.896 341.109C130.854 341.089 130.816 341.061 130.785 341.026C130.754 340.992 130.73 340.951 130.716 340.907C130.701 340.863 130.696 340.816 130.7 340.77V314.55C130.696 314.504 130.701 314.457 130.716 314.413C130.73 314.369 130.754 314.328 130.785 314.294C130.816 314.259 130.854 314.231 130.896 314.211C130.938 314.192 130.984 314.181 131.03 314.18H144.88C144.978 314.18 145.072 314.219 145.142 314.288C145.211 314.358 145.25 314.452 145.25 314.55V318.92C145.247 319.016 145.207 319.108 145.138 319.175C145.069 319.242 144.976 319.28 144.88 319.28H136.06V324.84H142.92C142.966 324.841 143.012 324.852 143.054 324.871C143.096 324.891 143.134 324.919 143.165 324.954C143.196 324.988 143.219 325.029 143.234 325.073C143.249 325.117 143.254 325.164 143.25 325.21V329.66C143.254 329.706 143.249 329.753 143.234 329.797C143.219 329.841 143.196 329.882 143.165 329.916C143.134 329.951 143.096 329.979 143.054 329.999C143.012 330.018 142.966 330.029 142.92 330.03H136.06V340.77C136.057 340.867 136.018 340.96 135.949 341.029C135.88 341.098 135.787 341.137 135.69 341.14H131.03Z" fill="#231F20"/>
<path d="M250.32 324.84H159.26C159.05 324.84 158.88 325.01 158.88 325.22V329.65C158.88 329.86 159.05 330.03 159.26 330.03H250.32C250.53 330.03 250.7 329.86 250.7 329.65V325.22C250.7 325.01 250.53 324.84 250.32 324.84Z" fill="#231F20"/>
<path d="M90.44 324.84H1.07999C0.870118 324.84 0.700012 325.01 0.700012 325.22V329.65C0.700012 329.86 0.870118 330.03 1.07999 330.03H90.44C90.6499 330.03 90.82 329.86 90.82 329.65V325.22C90.82 325.01 90.6499 324.84 90.44 324.84Z" fill="#231F20"/>
</g>
<defs>
<clipPath id="clip0_193:1915">
<rect width="250.05" height="407.4" fill="white" transform="translate(0.690002)"/>
</clipPath>
</defs>
</svg>
